NewsreaderDisplay-SemiBold.ufo
<glyph name="exclam" format="2">
	<unicode hex="0021"/>
	<advance width="565.088"/>
	<outline>
		<contour>
			<point x="471.44" y="1303.296" type="line" smooth="yes"/>
			<point x="471.44" y="1401.008"/>
			<point x="377.424" y="1454.24"/>
			<point x="283.408" y="1454.24" type="curve" smooth="yes"/>
			<point x="189.392" y="1454.24"/>
			<point x="94.8" y="1401.008"/>
			<point x="94.8" y="1303.296" type="curve" smooth="yes"/>
			<point x="94.8" y="1279.84" type="line" smooth="yes"/>
			<point x="94.8" y="1201.456"/>
			<point x="201.48" y="974.08"/>
			<point x="263.712" y="501.16" type="curve"/>
			<point x="301.376" y="501.16" type="line"/>
			<point x="363.608" y="974.08"/>
			<point x="471.44" y="1202.032"/>
			<point x="471.44" y="1279.84" type="curve" smooth="yes"/>
		</contour>
		<contour>
			<point x="283.408" y="317.088" type="curve" smooth="yes"/>
			<point x="182.328" y="317.088"/>
			<point x="110.608" y="243.368"/>
			<point x="110.608" y="147.984" type="curve" smooth="yes"/>
			<point x="110.608" y="52.6"/>
			<point x="182.328" y="-21.12"/>
			<point x="283.408" y="-21.12" type="curve" smooth="yes"/>
			<point x="384.488" y="-21.12"/>
			<point x="456.208" y="52.6"/>
			<point x="456.208" y="147.984" type="curve" smooth="yes"/>
			<point x="456.208" y="243.368"/>
			<point x="384.488" y="317.088"/>
		</contour>
	</outline>
</glyph>
<glyph name="ampersand" format="2">
	<unicode hex="0026"/>
	<advance width="1561.304"/>
	<outline>
		<contour>
			<point x="693.328" y="852.44" type="line"/>
			<point x="971.736" y="950.664"/>
			<point x="1051.68" y="1053.392"/>
			<point x="1051.68" y="1190" type="curve" smooth="yes"/>
			<point x="1051.68" y="1334.816"/>
			<point x="937.168" y="1454.24"/>
			<point x="693.032" y="1454.24" type="curve" smooth="yes"/>
			<point x="403.424" y="1454.24"/>
			<point x="260.584" y="1298.552"/>
			<point x="260.584" y="1108.104" type="curve" smooth="yes"/>
			<point x="260.584" y="1004.528"/>
			<point x="298.128" y="903.744"/>
			<point x="412.504" y="773.216" type="curve" smooth="yes"/>
			<point x="1086.392" y="0" type="line"/>
			<point x="1559.728" y="0" type="line"/>
			<point x="1559.728" y="32.512" type="line"/>
			<point x="1388.352" y="83.416" type="line"/>
			<point x="673.168" y="893.472" type="line" smooth="yes"/>
			<point x="550.8" y="1031.688"/>
			<point x="507.104" y="1123.624"/>
			<point x="507.104" y="1224.808" type="curve" smooth="yes"/>
			<point x="507.104" y="1331.544"/>
			<point x="574.904" y="1394.552"/>
			<point x="673.04" y="1394.552" type="curve" smooth="yes"/>
			<point x="771.72" y="1394.552"/>
			<point x="827" y="1326.848"/>
			<point x="827" y="1192.48" type="curve" smooth="yes"/>
			<point x="827" y="1075.264"/>
			<point x="780.84" y="974.2"/>
			<point x="652.424" y="877.8" type="curve"/>
			<point x="485.792" y="783.976" type="line"/>
			<point x="177.56" y="660.912"/>
			<point x="89.104" y="522.728"/>
			<point x="89.104" y="343.696" type="curve" smooth="yes"/>
			<point x="89.104" y="129.304"/>
			<point x="223.776" y="-24.24"/>
			<point x="505.984" y="-24.24" type="curve" smooth="yes"/>
			<point x="712.952" y="-24.24"/>
			<point x="869.896" y="54.368"/>
			<point x="1025.184" y="233.328" type="curve"/>
			<point x="1080.952" y="278.984" type="line"/>
			<point x="1198.696" y="430.152"/>
			<point x="1280.696" y="592.768"/>
			<point x="1337.184" y="800.672" type="curve"/>
			<point x="1502.096" y="842.88" type="line"/>
			<point x="1502.096" y="874" type="line"/>
			<point x="1014.512" y="874" type="line"/>
			<point x="1014.512" y="842.88" type="line"/>
			<point x="1183.392" y="800.672" type="line"/>
			<point x="1168.872" y="581.144"/>
			<point x="1123.136" y="429.168"/>
			<point x="1052.92" y="328.952" type="curve"/>
			<point x="980.856" y="264.152" type="line"/>
			<point x="897.216" y="181.472"/>
			<point x="805.896" y="144.28"/>
			<point x="691.424" y="144.28" type="curve" smooth="yes"/>
			<point x="479.096" y="144.28"/>
			<point x="362.448" y="286.784"/>
			<point x="362.448" y="468.912" type="curve" smooth="yes"/>
			<point x="362.448" y="581.232"/>
			<point x="401.824" y="690.448"/>
			<point x="507.976" y="769.096" type="curve"/>
		</contour>
	</outline>
</glyph>
<glyph name="quotesingle" format="2">
	<unicode hex="0027"/>
	<advance width="395.984"/>
	<outline>
		<contour>
			<point x="173.056" y="889.024" type="line"/>
			<point x="210.688" y="889.024" type="line"/>
			<point x="340.336" y="1396.816" type="line"/>
			<point x="340.336" y="1430" type="line"/>
			<point x="61.92" y="1430" type="line"/>
			<point x="61.92" y="1396.816" type="line"/>
		</contour>
	</outline>
</glyph>
<glyph name="parenleft" format="2">
	<unicode hex="0028"/>
	<advance width="563.992"/>
	<outline>
		<contour>
			<point x="263.104" y="625.328" type="curve" smooth="yes"/>
			<point x="263.104" y="922.352"/>
			<point x="318.592" y="1134.936"/>
			<point x="516.624" y="1470.544" type="curve"/>
			<point x="487.232" y="1488.24" type="line"/>
			<point x="147.072" y="1062.648"/>
			<point x="70.4" y="894.368"/>
			<point x="70.4" y="625.328" type="curve" smooth="yes"/>
			<point x="70.4" y="356.288"/>
			<point x="147.072" y="187.432"/>
			<point x="487.232" y="-238.16" type="curve"/>
			<point x="516.624" y="-220.464" type="line"/>
			<point x="318.592" y="115.144"/>
			<point x="263.104" y="328.728"/>
		</contour>
	</outline>
</glyph>
<glyph name="parenright" format="2">
	<unicode hex="0029"/>
	<advance width="563.992"/>
	<outline>
		<contour>
			<point x="300.888" y="625.328" type="curve" smooth="yes"/>
			<point x="300.888" y="328.728"/>
			<point x="245.4" y="115.72"/>
			<point x="47.368" y="-219.888" type="curve"/>
			<point x="76.76" y="-237.584" type="line"/>
			<point x="416.92" y="188.008"/>
			<point x="493.592" y="356.288"/>
			<point x="493.592" y="625.328" type="curve" smooth="yes"/>
			<point x="493.592" y="894.368"/>
			<point x="416.92" y="1063.224"/>
			<point x="76.76" y="1488.816" type="curve"/>
			<point x="47.368" y="1471.12" type="line"/>
			<point x="245.4" y="1135.512"/>
			<point x="300.888" y="921.928"/>
		</contour>
	</outline>
</glyph>
<glyph name="asterisk" format="2">
  <advance width="796"/>
  <unicode hex="002A"/>
  <outline>
    <contour>
      <point x="538.7199999999999" y="844.2560000000001" type="line"/>
      <point x="481.928" y="1087.072" type="line"/>
      <point x="720.808" y="1148.704" type="line"/>
      <point x="718.808" y="1178.3680000000002" type="line"/>
      <point x="473.232" y="1198.576" type="line"/>
      <point x="494.17600000000004" y="1448.12" type="line"/>
      <point x="465.36" y="1455.544" type="line"/>
      <point x="366.0" y="1225.24" type="line"/>
      <point x="133.064" y="1320.8799999999999" type="line"/>
      <point x="116.52" y="1293.216" type="line"/>
      <point x="306.824" y="1130.704" type="line"/>
      <point x="144.368" y="940.3439999999999" type="line"/>
      <point x="165.184" y="917.952" type="line"/>
      <point x="379.12" y="1044.864" type="line"/>
      <point x="511.904" y="833.56" type="line"/>
    </contour>
  </outline>
</glyph>
<glyph name="plus" format="2">
	<unicode hex="002B"/>
	<advance width="1150"/>
	<outline>
		<contour>
			<point x="535.64" y="923" type="line"/>
			<point x="535.64" y="101" type="line"/>
			<point x="614.36" y="101" type="line"/>
			<point x="614.36" y="923" type="line"/>
		</contour>
		<contour>
			<point x="986" y="551.36" type="line"/>
			<point x="164" y="551.36" type="line"/>
			<point x="164" y="472.64" type="line"/>
			<point x="986" y="472.64" type="line"/>
		</contour>
	</outline>
</glyph>
<glyph name="comma" format="2">
	<unicode hex="002C"/>
	<advance width="506.888"/>
	<outline>
		<contour>
			<point x="71.488" y="-301.512" type="curve"/>
			<point x="101.152" y="-332.448" type="line"/>
			<point x="336.008" y="-187.848"/>
			<point x="420.76" y="-30.072"/>
			<point x="420.76" y="119.768" type="curve" smooth="yes"/>
			<point x="420.76" y="238.184"/>
			<point x="349.04" y="310.176"/>
			<point x="247.384" y="310.176" type="curve" smooth="yes"/>
			<point x="145.152" y="310.176"/>
			<point x="76.312" y="245.88"/>
			<point x="76.312" y="150.496" type="curve" smooth="yes"/>
			<point x="76.312" y="115.768"/>
			<point x="237.968" y="68.688"/>
			<point x="237.968" y="-48.12" type="curve" smooth="yes"/>
			<point x="237.968" y="-147.208"/>
			<point x="183.544" y="-221.904"/>
		</contour>
	</outline>
</glyph>
<glyph name="hyphen" format="2">
  <advance width="662.208"/>
  <unicode hex="002D"/>
  <outline>
    <contour>
      <point x="116.096" y="589.8399999999999" type="line"/>
      <point x="116.096" y="447.824" type="line"/>
      <point x="546.112" y="447.824" type="line"/>
      <point x="546.112" y="589.8399999999999" type="line"/>
    </contour>
  </outline>
</glyph>
<glyph name="slash" format="2">
  <advance width="781.608"/>
  <unicode hex="002F"/>
  <outline>
    <contour>
      <point x="51.488" y="0.0" type="line"/>
      <point x="136.11999999999998" y="0.0" type="line"/>
      <point x="733.12" y="1430.0" type="line"/>
      <point x="648.4879999999999" y="1430.0" type="line"/>
    </contour>
  </outline>
</glyph>
<glyph name="zero" format="2">
	<unicode hex="0030"/>
	<advance width="1284.8"/>
	<outline>
		<contour>
			<point x="645.128" y="37.448" type="curve" smooth="yes"/>
			<point x="486.4330549451" y="37.448"/>
			<point x="393.208" y="262.896"/>
			<point x="393.208" y="755.48" type="curve" smooth="yes"/>
			<point x="393.208" y="1188.408"/>
			<point x="485.0396404494" y="1392.552"/>
			<point x="640.096" y="1392.552" type="curve" smooth="yes"/>
			<point x="798.7909450549" y="1392.552"/>
			<point x="892.016" y="1167.104"/>
			<point x="892.016" y="674.52" type="curve" smooth="yes"/>
			<point x="892.016" y="241.592"/>
			<point x="800.1843595506" y="37.448"/>
		</contour>
		<contour>
			<point x="650.912" y="1454.24" type="curve" smooth="yes"/>
			<point x="312.6128849558" y="1454.24"/>
			<point x="73.336" y="1154.392"/>
			<point x="73.336" y="714.272" type="curve" smooth="yes"/>
			<point x="73.336" y="273.728"/>
			<point x="295.3115134168" y="-24.24"/>
			<point x="634.312" y="-24.24" type="curve" smooth="yes"/>
			<point x="972.6111150442" y="-24.24"/>
			<point x="1211.888" y="275.608"/>
			<point x="1211.888" y="715.728" type="curve" smooth="yes"/>
			<point x="1211.888" y="1156.272"/>
			<point x="989.9124865832" y="1454.24"/>
		</contour>
	</outline>
</glyph>
<glyph name="one" format="2">
	<unicode hex="0031"/>
	<advance width="1284.8"/>
	<outline>
		<contour>
			<point x="548.296" y="82.816" type="line"/>
			<point x="253.376" y="31.816" type="line"/>
			<point x="253.376" y="0" type="line"/>
			<point x="1151.112" y="0" type="line"/>
			<point x="1151.112" y="31.816" type="line"/>
			<point x="872.344" y="82.816" type="line"/>
			<point x="872.344" y="1441.52" type="line"/>
			<point x="829.048" y="1441.52" type="line"/>
			<point x="170.088" y="1120.896" type="line"/>
			<point x="182.48" y="1080.992" type="line"/>
			<point x="743.232" y="1209.36" type="line"/>
			<point x="548.296" y="1279.848" type="line"/>
		</contour>
	</outline>
</glyph>
<glyph name="colon" format="2">
	<unicode hex="003A"/>
	<advance width="566.224"/>
	<outline>
		<contour>
			<point x="283.112" y="317.088" type="curve" smooth="yes"/>
			<point x="182.032" y="317.088"/>
			<point x="110.312" y="243.368"/>
			<point x="110.312" y="147.984" type="curve" smooth="yes"/>
			<point x="110.312" y="52.6"/>
			<point x="182.032" y="-21.12"/>
			<point x="283.112" y="-21.12" type="curve" smooth="yes"/>
			<point x="384.192" y="-21.12"/>
			<point x="455.912" y="52.6"/>
			<point x="455.912" y="147.984" type="curve" smooth="yes"/>
			<point x="455.912" y="243.368"/>
			<point x="384.192" y="317.088"/>
		</contour>
		<contour>
			<point x="283.112" y="1045.544" type="curve" smooth="yes"/>
			<point x="182.032" y="1045.544"/>
			<point x="110.312" y="971.824"/>
			<point x="110.312" y="876.44" type="curve" smooth="yes"/>
			<point x="110.312" y="781.056"/>
			<point x="182.032" y="707.336"/>
			<point x="283.112" y="707.336" type="curve" smooth="yes"/>
			<point x="384.192" y="707.336"/>
			<point x="455.912" y="781.056"/>
			<point x="455.912" y="876.44" type="curve" smooth="yes"/>
			<point x="455.912" y="971.824"/>
			<point x="384.192" y="1045.544"/>
		</contour>
	</outline>
</glyph>
<glyph name="semicolon" format="2">
	<unicode hex="003B"/>
	<advance width="575.168"/>
	<outline>
		<contour>
			<point x="110.28" y="-301.512" type="curve"/>
			<point x="139.944" y="-332.448" type="line"/>
			<point x="374.8" y="-187.848"/>
			<point x="459.552" y="-30.072"/>
			<point x="459.552" y="119.768" type="curve" smooth="yes"/>
			<point x="459.552" y="238.184"/>
			<point x="387.832" y="310.176"/>
			<point x="286.176" y="310.176" type="curve" smooth="yes"/>
			<point x="183.944" y="310.176"/>
			<point x="115.104" y="245.88"/>
			<point x="115.104" y="150.496" type="curve" smooth="yes"/>
			<point x="115.104" y="115.768"/>
			<point x="276.76" y="68.688"/>
			<point x="276.76" y="-48.12" type="curve" smooth="yes"/>
			<point x="276.76" y="-147.208"/>
			<point x="222.336" y="-221.904"/>
		</contour>
		<contour>
			<point x="285.024" y="1045.12" type="curve" smooth="yes"/>
			<point x="183.944" y="1045.12"/>
			<point x="112.224" y="971.4"/>
			<point x="112.224" y="876.016" type="curve" smooth="yes"/>
			<point x="112.224" y="780.632"/>
			<point x="183.944" y="706.912"/>
			<point x="285.024" y="706.912" type="curve" smooth="yes"/>
			<point x="386.104" y="706.912"/>
			<point x="457.824" y="780.632"/>
			<point x="457.824" y="876.016" type="curve" smooth="yes"/>
			<point x="457.824" y="971.4"/>
			<point x="386.104" y="1045.12"/>
		</contour>
	</outline>
</glyph>
<glyph name="less" format="2">
	<unicode hex="003C"/>
	<advance width="1150"/>
	<outline>
		<contour>
			<point x="177.832" y="488.736" type="line"/>
			<point x="981" y="530.296" type="line"/>
			<point x="981" y="615.592" type="line"/>
			<point x="184.856" y="536.52" type="line"/>
			<point x="184.856" y="490.024" type="line"/>
			<point x="981" y="408.408" type="line"/>
			<point x="981" y="493.704" type="line"/>
			<point x="177.832" y="538.72" type="line"/>
		</contour>
	</outline>
</glyph>
<glyph name="greater" format="2">
  <advance width="1150.0"/>
  <unicode hex="003E"/>
  <outline>
    <contour>
      <point x="972.168" y="488.736" type="line"/>
      <point x="972.168" y="538.72" type="line"/>
      <point x="169.0" y="493.70399999999995" type="line"/>
      <point x="169.0" y="408.40799999999996" type="line"/>
      <point x="965.144" y="490.024" type="line"/>
      <point x="965.144" y="536.5200000000001" type="line"/>
      <point x="169.0" y="615.592" type="line"/>
      <point x="169.0" y="530.296" type="line"/>
    </contour>
  </outline>
</glyph>
<glyph name="question" format="2">
	<unicode hex="003F"/>
	<advance width="997.16"/>
	<outline>
		<contour>
			<point x="338.904" y="1454.24" type="curve" smooth="yes"/>
			<point x="133.304" y="1454.24"/>
			<point x="53.032" y="1388.576"/>
			<point x="53.032" y="1306.704" type="curve" smooth="yes"/>
			<point x="53.032" y="1240.408"/>
			<point x="115.024" y="1185.264"/>
			<point x="166.08" y="1185.264" type="curve" smooth="yes"/>
			<point x="195.864" y="1185.264"/>
			<point x="323.488" y="1358.368"/>
			<point x="518.728" y="1358.368" type="curve" smooth="yes"/>
			<point x="672.32" y="1358.368"/>
			<point x="759.152" y="1280.512"/>
			<point x="759.152" y="1133.616" type="curve" smooth="yes"/>
			<point x="759.152" y="990.424"/>
			<point x="677.024" y="896.296"/>
			<point x="327.12" y="903.208" type="curve"/>
			<point x="418.776" y="501.16" type="line"/>
			<point x="457.136" y="501.16" type="line"/>
			<point x="457.136" y="834.528" type="line"/>
			<point x="423.592" y="679.184" type="line"/>
			<point x="790.224" y="664.76"/>
			<point x="913.312" y="773.04"/>
			<point x="913.312" y="1007.88" type="curve" smooth="yes"/>
			<point x="913.312" y="1257.824"/>
			<point x="683.12" y="1454.24"/>
		</contour>
		<contour>
			<point x="440.472" y="317.088" type="curve" smooth="yes"/>
			<point x="339.392" y="317.088"/>
			<point x="267.672" y="243.368"/>
			<point x="267.672" y="147.984" type="curve" smooth="yes"/>
			<point x="267.672" y="52.6"/>
			<point x="339.392" y="-21.12"/>
			<point x="440.472" y="-21.12" type="curve" smooth="yes"/>
			<point x="541.552" y="-21.12"/>
			<point x="613.272" y="52.6"/>
			<point x="613.272" y="147.984" type="curve" smooth="yes"/>
			<point x="613.272" y="243.368"/>
			<point x="541.552" y="317.088"/>
		</contour>
	</outline>
</glyph>
<glyph name="at" format="2">
	<unicode hex="0040"/>
	<advance width="1810.48"/>
	<outline>
		<contour>
			<point x="1263.456" y="240.456" type="curve" smooth="yes"/>
			<point x="1564.752" y="240.456"/>
			<point x="1771.232" y="489.488"/>
			<point x="1771.232" y="814.88" type="curve" smooth="yes"/>
			<point x="1771.232" y="1181.12"/>
			<point x="1477.504" y="1456.544"/>
			<point x="1015.088" y="1456.544" type="curve" smooth="yes"/>
			<point x="466.552" y="1456.544"/>
			<point x="71.672" y="1052.696"/>
			<point x="71.672" y="535.272" type="curve" smooth="yes"/>
			<point x="71.672" y="53.816"/>
			<point x="426.4" y="-218"/>
			<point x="921.544" y="-218" type="curve" smooth="yes"/>
			<point x="1167.384" y="-218"/>
			<point x="1392.752" y="-145.424"/>
			<point x="1570.84" y="-24.424" type="curve"/>
			<point x="1550.176" y="8.936" type="line"/>
			<point x="1353.088" y="-115.064"/>
			<point x="1135.72" y="-161.944"/>
			<point x="949.392" y="-161.944" type="curve" smooth="yes"/>
			<point x="508.056" y="-161.944"/>
			<point x="212.112" y="104.448"/>
			<point x="212.112" y="546.968" type="curve" smooth="yes"/>
			<point x="212.112" y="1047.184"/>
			<point x="527.36" y="1405.488"/>
			<point x="1007.544" y="1405.488" type="curve" smooth="yes"/>
			<point x="1406.448" y="1405.488"/>
			<point x="1650.64" y="1134.336"/>
			<point x="1650.64" y="796.544" type="curve" smooth="yes"/>
			<point x="1650.64" y="468.424"/>
			<point x="1470.912" y="283.936"/>
			<point x="1323.112" y="283.936" type="curve" smooth="yes"/>
			<point x="1269.408" y="283.936"/>
			<point x="1236.584" y="314.576"/>
			<point x="1236.584" y="387.312" type="curve" smooth="yes"/>
			<point x="1236.584" y="425.496"/>
			<point x="1244.736" y="475.256"/>
			<point x="1263.192" y="538.592" type="curve" smooth="yes"/>
			<point x="1404.344" y="1039" type="line"/>
			<point x="1169.8" y="1039" type="line"/>
			<point x="1143.376" y="948.064" type="line"/>
			<point x="1043.04" y="627.272" type="line" smooth="yes"/>
			<point x="943.84" y="456.04"/>
			<point x="871.896" y="402.432"/>
			<point x="812.952" y="402.432" type="curve" smooth="yes"/>
			<point x="770.28" y="402.432"/>
			<point x="753.944" y="427.528"/>
			<point x="753.944" y="493.2" type="curve" smooth="yes"/>
			<point x="753.944" y="662.24"/>
			<point x="909.016" y="971.8"/>
			<point x="1056.424" y="971.8" type="curve" smooth="yes"/>
			<point x="1114.424" y="971.8"/>
			<point x="1146.216" y="939.288"/>
			<point x="1180.128" y="860.2" type="curve"/>
			<point x="1193.824" y="882.016" type="line"/>
			<point x="1154.096" y="1005.792"/>
			<point x="1071.072" y="1059.696"/>
			<point x="989.528" y="1059.696" type="curve" smooth="yes"/>
			<point x="747.256" y="1059.696"/>
			<point x="502.584" y="693.424"/>
			<point x="502.584" y="435.272" type="curve" smooth="yes"/>
			<point x="502.584" y="306.216"/>
			<point x="555.824" y="240.456"/>
			<point x="673.856" y="240.456" type="curve" smooth="yes"/>
			<point x="783.216" y="240.456"/>
			<point x="899.368" y="302.976"/>
			<point x="1078.52" y="627.056" type="curve"/>
			<point x="1054.976" y="630.328" type="line"/>
			<point x="1033.704" y="531.152" type="line" smooth="yes"/>
			<point x="1026.704" y="498.728"/>
			<point x="1022.552" y="468.152"/>
			<point x="1022.552" y="441.152" type="curve" smooth="yes"/>
			<point x="1022.552" y="305.216"/>
			<point x="1111.216" y="240.456"/>
		</contour>
	</outline>
</glyph>
<glyph name="A" format="2">
	<unicode hex="0041"/>
	<advance width="1534.984"/>
	<outline>
		<contour>
			<point x="331.28" y="506.24" type="line"/>
			<point x="1036.584" y="506.24" type="line"/>
			<point x="1036.584" y="578.96" type="line"/>
			<point x="331.28" y="578.96" type="line"/>
		</contour>
		<contour>
			<point x="1420.952" y="80.48" type="line"/>
			<point x="819.216" y="1441.52" type="line"/>
			<point x="664.192" y="1441.52" type="line"/>
			<point x="129.76" y="82.544" type="line"/>
			<point x="-23.24" y="31.968" type="line"/>
			<point x="-23.24" y="0" type="line"/>
			<point x="393.392" y="0" type="line"/>
			<point x="393.392" y="31.968" type="line"/>
			<point x="210.176" y="79.544" type="line"/>
			<point x="637.792" y="1191.824" type="line"/>
			<point x="588.624" y="1171.472" type="line"/>
			<point x="1064.88" y="78.48" type="line"/>
			<point x="889.664" y="32.816" type="line"/>
			<point x="889.664" y="0" type="line"/>
			<point x="1576.952" y="0" type="line"/>
			<point x="1576.952" y="32.816" type="line"/>
		</contour>
	</outline>
	<anchor name="UCtop" x="738.28" y="1430"/>
	<anchor name="right" x="1372.152" y="0"/>
	<anchor name="bottom" x="711.064" y="0"/>
</glyph>
<glyph name="B" format="2">
	<unicode hex="0042"/>
	<advance width="1426.784"/>
	<outline>
		<contour>
			<point x="303.584" y="1357.648" type="line"/>
			<point x="638.08" y="1357.648" type="line" smooth="yes"/>
			<point x="863.216" y="1357.648"/>
			<point x="956.072" y="1249.008"/>
			<point x="956.072" y="1082.76" type="curve" smooth="yes"/>
			<point x="956.072" y="893.632"/>
			<point x="862.064" y="799.296"/>
			<point x="716.96" y="799.296" type="curve" smooth="yes"/>
			<point x="303.584" y="799.296" type="line"/>
			<point x="323.376" y="726.944" type="line"/>
			<point x="719.512" y="726.944" type="line" smooth="yes"/>
			<point x="946.736" y="726.944"/>
			<point x="1047.408" y="594.032"/>
			<point x="1047.408" y="406.088" type="curve" smooth="yes"/>
			<point x="1047.408" y="174.264"/>
			<point x="913.28" y="72.352"/>
			<point x="692.512" y="72.352" type="curve" smooth="yes"/>
			<point x="324.376" y="72.352" type="line"/>
			<point x="418.272" y="0" type="line"/>
			<point x="762.664" y="0" type="line" smooth="yes"/>
			<point x="1191.512" y="0"/>
			<point x="1357.808" y="169.4"/>
			<point x="1357.808" y="397.488" type="curve" smooth="yes"/>
			<point x="1357.808" y="615.72"/>
			<point x="1186.96" y="760.848"/>
			<point x="892.752" y="783" type="curve"/>
			<point x="864.992" y="767" type="line"/>
			<point x="1091.472" y="789"/>
			<point x="1255.56" y="908"/>
			<point x="1255.56" y="1104" type="curve" smooth="yes"/>
			<point x="1255.56" y="1293"/>
			<point x="1123.048" y="1430"/>
			<point x="799.056" y="1430" type="curve" smooth="yes"/>
			<point x="417.272" y="1430" type="line"/>
		</contour>
		<contour>
			<point x="56.552" y="0" type="line"/>
			<point x="558.576" y="0" type="line"/>
			<point x="558.576" y="1430" type="line"/>
			<point x="56.552" y="1430" type="line"/>
			<point x="56.552" y="1396.76" type="line"/>
			<point x="224.528" y="1350.248" type="line"/>
			<point x="224.528" y="80.752" type="line"/>
			<point x="56.552" y="32.816" type="line"/>
		</contour>
	</outline>
	<anchor name="UCtop" x="698.488" y="1430"/>
	<anchor name="bottom" x="698.488" y="0"/>
</glyph>
<glyph name="C" format="2">
  <advance width="1442.864"/>
  <unicode hex="0043"/>
  <anchor x="811.568" y="1430.0" name="UCtop"/>
  <anchor x="811.5680000000001" y="0.0" name="bottom"/>
  <anchor x="1292.6719999999998" y="0.0" name="right"/>
  <outline>
    <contour>
      <point x="932.6959999999999" y="31.688000000000002" type="curve" smooth="yes"/>
      <point x="657.952" y="31.688000000000002"/>
      <point x="424.752" y="302.144"/>
      <point x="424.752" y="773.016" type="curve" smooth="yes"/>
      <point x="424.752" y="1236.64"/>
      <point x="613.384" y="1390.856"/>
      <point x="844.7919999999999" y="1390.856" type="curve" smooth="yes"/>
      <point x="954.4403943661972" y="1390.856"/>
      <point x="1051.5945418523534" y="1357.500961045562"/>
      <point x="1171.1680000000001" y="1254.048" type="curve"/>
      <point x="1106.576" y="1330.3919999999998" type="line"/>
      <point x="1335.4959999999999" y="962.744" type="line"/>
      <point x="1365.584" y="969.9839999999999" type="line"/>
      <point x="1264.984" y="1495.0240000000001" type="line"/>
      <point x="1250.136" y="1495.0240000000001" type="line"/>
      <point x="1116.968" y="1395.4560000000001" type="line"/>
      <point x="1193.288" y="1415.936" type="line"/>
      <point x="1076.709652279733" y="1442.3842461078555"/>
      <point x="988.2003672131148" y="1454.24"/>
      <point x="872.9839999999999" y="1454.24" type="curve" smooth="yes"/>
      <point x="402.152" y="1454.24"/>
      <point x="80.28" y="1159.696"/>
      <point x="80.28" y="728.576" type="curve" smooth="yes"/>
      <point x="80.28" y="230.27200000000002"/>
      <point x="415.288" y="-24.240000000000002"/>
      <point x="889.48" y="-24.240000000000002" type="curve" smooth="yes"/>
      <point x="1041.20280794702" y="-24.240000000000002"/>
      <point x="1158.092744829937" y="-11.151662162891387"/>
      <point x="1301.2559999999999" y="28.791999999999998" type="curve"/>
      <point x="1384.344" y="410.504" type="line"/>
      <point x="1353.408" y="410.504" type="line"/>
      <point x="1142.368" y="84.49600000000001" type="line"/>
      <point x="1189.424" y="129.224" type="line"/>
      <point x="1107.9538782927316" y="61.01100202629637"/>
      <point x="1022.1463265306123" y="31.688000000000002"/>
    </contour>
  </outline>
</glyph>
<glyph name="D" format="2">
	<unicode hex="0044"/>
	<advance width="1603.816"/>
	<outline>
		<contour>
			<point x="1180.064" y="726.152" type="curve" smooth="yes"/>
			<point x="1180.064" y="259.8721066667"/>
			<point x="1000.248" y="76.96"/>
			<point x="682.448" y="76.96" type="curve" smooth="yes"/>
			<point x="393.512" y="76.96" type="line"/>
			<point x="376.128" y="0" type="line"/>
			<point x="722.536" y="0" type="line" smooth="yes"/>
			<point x="1177.536" y="0"/>
			<point x="1521.536" y="253"/>
			<point x="1521.536" y="748" type="curve" smooth="yes"/>
			<point x="1521.536" y="1182"/>
			<point x="1225.96" y="1430"/>
			<point x="708.536" y="1430" type="curve" smooth="yes"/>
			<point x="376.128" y="1430" type="line"/>
			<point x="393.512" y="1353.04" type="line"/>
			<point x="650.264" y="1353.04" type="line" smooth="yes"/>
			<point x="1002.4" y="1353.04"/>
			<point x="1180.064" y="1149.872"/>
		</contour>
		<contour>
			<point x="59.096" y="0" type="line"/>
			<point x="556.88" y="0" type="line"/>
			<point x="556.88" y="1430" type="line"/>
			<point x="59.096" y="1430" type="line"/>
			<point x="59.096" y="1396.76" type="line"/>
			<point x="222.832" y="1353.64" type="line"/>
			<point x="222.832" y="77.36" type="line"/>
			<point x="59.096" y="32.816" type="line"/>
		</contour>
	</outline>
	<anchor name="UCtop" x="809.408" y="1430"/>
	<anchor name="bottom" x="809.408" y="0"/>
</glyph>
<glyph name="E" format="2">
	<unicode hex="0045"/>
	<advance width="1421.56"/>
	<outline>
		<contour>
			<point x="998.504" y="1055.96" type="line"/>
			<point x="972.264" y="1055.96" type="line"/>
			<point x="849.392" y="796.176" type="line"/>
			<point x="437.808" y="769.448" type="line"/>
			<point x="437.808" y="723.976" type="line"/>
			<point x="849.392" y="700.4" type="line"/>
			<point x="972.264" y="438.04" type="line"/>
			<point x="998.504" y="438.04" type="line"/>
			<point x="956.024" y="746" type="line"/>
		</contour>
		<contour>
			<point x="1320.8" y="1008.44" type="line"/>
			<point x="1238.112" y="1498.84" type="line"/>
			<point x="1224.6" y="1498.84" type="line"/>
			<point x="1083.968" y="1430" type="line"/>
			<point x="360.576" y="1430" type="line"/>
			<point x="360.576" y="1353.04" type="line"/>
			<point x="1214.728" y="1353.04" type="line"/>
			<point x="1054.52" y="1391.032" type="line"/>
			<point x="1289.864" y="998.744" type="line"/>
		</contour>
		<contour>
			<point x="1089.056" y="43.056" type="line"/>
			<point x="1239.24" y="76.96" type="line"/>
			<point x="360.576" y="76.96" type="line"/>
			<point x="360.576" y="0" type="line"/>
			<point x="1120.384" y="0" type="line"/>
			<point x="1253.048" y="-66.296" type="line"/>
			<point x="1270.376" y="-66.296" type="line"/>
			<point x="1386.552" y="436.128" type="line"/>
			<point x="1353.072" y="444.824" type="line"/>
		</contour>
		<contour>
			<point x="59.096" y="0" type="line"/>
			<point x="556.88" y="0" type="line"/>
			<point x="556.88" y="1430" type="line"/>
			<point x="59.096" y="1430" type="line"/>
			<point x="59.096" y="1396.76" type="line"/>
			<point x="222.832" y="1353.64" type="line"/>
			<point x="222.832" y="77.36" type="line"/>
			<point x="59.096" y="32.816" type="line"/>
		</contour>
	</outline>
	<anchor name="UCtop" x="708.352" y="1430"/>
	<anchor name="right" x="1216.136" y="0"/>
	<anchor name="bottom" x="716.832" y="0"/>
</glyph>
<glyph name="F" format="2">
	<unicode hex="0046"/>
	<advance width="1296.352"/>
	<outline>
		<contour>
			<point x="1007.72" y="1023.448" type="line"/>
			<point x="981.48" y="1023.448" type="line"/>
			<point x="858.608" y="763.664" type="line"/>
			<point x="432.048" y="736.936" type="line"/>
			<point x="432.048" y="691.464" type="line"/>
			<point x="858.608" y="667.888" type="line"/>
			<point x="981.48" y="405.528" type="line"/>
			<point x="1007.72" y="405.528" type="line"/>
			<point x="965.24" y="713.488" type="line"/>
		</contour>
		<contour>
			<point x="1163.864" y="1498.84" type="line"/>
			<point x="1025.536" y="1430" type="line"/>
			<point x="360.576" y="1430" type="line"/>
			<point x="360.576" y="1353.04" type="line"/>
			<point x="1155.144" y="1353.04" type="line"/>
			<point x="994.36" y="1391.608" type="line"/>
			<point x="1251.592" y="998.744" type="line"/>
			<point x="1282.528" y="1007.864" type="line"/>
			<point x="1177.376" y="1498.84" type="line"/>
		</contour>
		<contour>
			<point x="556.88" y="1430" type="line"/>
			<point x="59.096" y="1430" type="line"/>
			<point x="59.096" y="1396.76" type="line"/>
			<point x="222.832" y="1353.64" type="line"/>
			<point x="222.832" y="77.36" type="line"/>
			<point x="59.096" y="32.816" type="line"/>
			<point x="59.096" y="0" type="line"/>
			<point x="720.616" y="0" type="line"/>
			<point x="720.616" y="32.816" type="line"/>
			<point x="556.88" y="77.36" type="line"/>
		</contour>
	</outline>
	<anchor name="UCtop" x="661.888" y="1430"/>
	<anchor name="bottom" x="390.28" y="0"/>
</glyph>
<glyph name="G" format="2">
	<unicode hex="0047"/>
	<advance width="1575.824"/>
	<outline>
		<contour>
			<point x="1391.72" y="112.904" type="line"/>
			<point x="1391.72" y="562.248" type="line"/>
			<point x="1518.664" y="604.76" type="line"/>
			<point x="1518.664" y="639.576" type="line"/>
			<point x="883.656" y="639.576" type="line"/>
			<point x="883.656" y="604.76" type="line"/>
			<point x="1074.672" y="556.248" type="line"/>
			<point x="1074.672" y="13.976" type="line"/>
			<point x="1147.16" y="88.456" type="line"/>
			<point x="1092.976" y="52.6"/>
			<point x="1016.6" y="33.384"/>
			<point x="934.464" y="33.384" type="curve" smooth="yes"/>
			<point x="659.32" y="33.384"/>
			<point x="424.752" y="295.36"/>
			<point x="424.752" y="775.984" type="curve" smooth="yes"/>
			<point x="424.752" y="1236.64"/>
			<point x="627.624" y="1390.856"/>
			<point x="877.512" y="1390.856" type="curve" smooth="yes"/>
			<point x="1018.744" y="1390.856"/>
			<point x="1139.096" y="1328.176"/>
			<point x="1260.584" y="1204.512" type="curve"/>
			<point x="1115.352" y="1360.344" type="line"/>
			<point x="1365.584" y="962.744" type="line"/>
			<point x="1395.672" y="969.984" type="line"/>
			<point x="1295.072" y="1495.024" type="line"/>
			<point x="1280.224" y="1495.024" type="line"/>
			<point x="1143.024" y="1386.816" type="line"/>
			<point x="1263.12" y="1403.84" type="line"/>
			<point x="1156.64" y="1433.872"/>
			<point x="1048.2" y="1454.24"/>
			<point x="905.704" y="1454.24" type="curve" smooth="yes"/>
			<point x="415.816" y="1454.24"/>
			<point x="80.28" y="1159.696"/>
			<point x="80.28" y="728.576" type="curve" smooth="yes"/>
			<point x="80.28" y="230.272"/>
			<point x="421.048" y="-24.24"/>
			<point x="901" y="-24.24" type="curve" smooth="yes"/>
			<point x="1074.624" y="-24.24"/>
			<point x="1278.496" y="4.576"/>
			<point x="1511.752" y="80.12" type="curve"/>
			<point x="1511.752" y="112.904" type="line"/>
		</contour>
	</outline>
	<anchor name="UCtop" x="825.232" y="1430"/>
	<anchor name="bottom" x="858.304" y="0"/>
</glyph>
<glyph name="H" format="2">
	<unicode hex="0048"/>
	<advance width="1735.072"/>
	<outline>
		<contour>
			<point x="556.88" y="77.36" type="line"/>
			<point x="556.88" y="1353.64" type="line"/>
			<point x="720.616" y="1396.76" type="line"/>
			<point x="720.616" y="1430" type="line"/>
			<point x="59.096" y="1430" type="line"/>
			<point x="59.096" y="1396.76" type="line"/>
			<point x="222.832" y="1353.64" type="line"/>
			<point x="222.832" y="77.36" type="line"/>
			<point x="59.096" y="32.816" type="line"/>
			<point x="59.096" y="0" type="line"/>
			<point x="720.616" y="0" type="line"/>
			<point x="720.616" y="32.816" type="line"/>
		</contour>
		<contour>
			<point x="1512.24" y="77.36" type="line"/>
			<point x="1512.24" y="1353.64" type="line"/>
			<point x="1675.976" y="1396.76" type="line"/>
			<point x="1675.976" y="1430" type="line"/>
			<point x="1014.456" y="1430" type="line"/>
			<point x="1014.456" y="1396.76" type="line"/>
			<point x="1178.192" y="1353.64" type="line"/>
			<point x="1178.192" y="77.36" type="line"/>
			<point x="1014.456" y="32.816" type="line"/>
			<point x="1014.456" y="0" type="line"/>
			<point x="1675.976" y="0" type="line"/>
			<point x="1675.976" y="32.816" type="line"/>
		</contour>
		<contour>
			<point x="373.824" y="702.368" type="line"/>
			<point x="1358.248" y="702.368" type="line"/>
			<point x="1358.248" y="779.328" type="line"/>
			<point x="373.824" y="779.328" type="line"/>
		</contour>
	</outline>
	<anchor name="UCtop" x="867.248" y="1430"/>
	<anchor name="bottom" x="867.248" y="0"/>
</glyph>
<glyph name="I" format="2">
  <advance width="780"/>
  <unicode hex="0049"/>
  <anchor x="389.856" y="1430.0" name="UCtop"/>
  <anchor x="558.704" y="0.0" name="right"/>
  <anchor x="389.856" y="0.0" name="bottom"/>
  <outline>
    <contour>
      <point x="720.6160000000001" y="32.816" type="line"/>
      <point x="556.88" y="77.36" type="line"/>
      <point x="556.88" y="1353.6399999999999" type="line"/>
      <point x="720.6160000000001" y="1396.76" type="line"/>
      <point x="720.6160000000001" y="1430.0" type="line"/>
      <point x="59.096" y="1430.0" type="line"/>
      <point x="59.096" y="1396.76" type="line"/>
      <point x="222.83200000000002" y="1353.6399999999999" type="line"/>
      <point x="222.83200000000002" y="77.36" type="line"/>
      <point x="59.096" y="32.816" type="line"/>
      <point x="59.096" y="0.0" type="line"/>
      <point x="720.6160000000001" y="0.0" type="line"/>
    </contour>
  </outline>
</glyph>
<glyph name="J" format="2">
  <advance width="907"/>
  <unicode hex="004A"/>
  <anchor x="545.416" y="1430.0" name="UCtop"/>
  <anchor x="472.952" y="0.0" name="bottom"/>
  <outline>
    <contour>
      <point x="712.44" y="543.688" type="curve" smooth="yes"/>
      <point x="712.44" y="1353.6399999999999" type="line"/>
      <point x="876.176" y="1396.76" type="line"/>
      <point x="876.176" y="1430.0" type="line"/>
      <point x="214.656" y="1430.0" type="line"/>
      <point x="214.656" y="1396.76" type="line"/>
      <point x="378.392" y="1353.6399999999999" type="line"/>
      <point x="378.392" y="221.552" type="line" smooth="yes"/>
      <point x="378.392" y="135.328"/>
      <point x="350.664" y="108.96"/>
      <point x="292.808" y="108.96" type="curve" smooth="yes"/>
      <point x="204.264" y="108.96"/>
      <point x="135.904" y="208.464"/>
      <point x="103.328" y="208.464" type="curve" smooth="yes"/>
      <point x="54.456" y="208.464"/>
      <point x="7.552" y="161.68"/>
      <point x="7.552" y="99.688" type="curve" smooth="yes"/>
      <point x="7.552" y="26.36"/>
      <point x="55.696000000000005" y="-21.272"/>
      <point x="154.44" y="-21.272" type="curve" smooth="yes"/>
      <point x="415.616" y="-21.272"/>
      <point x="712.44" y="216.312"/>
    </contour>
  </outline>
</glyph>
<glyph name="K" format="2">
	<unicode hex="004B"/>
	<advance width="1630.328"/>
	<outline>
		<contour>
			<point x="1533.224" y="76.328" type="line"/>
			<point x="834.824" y="927.016" type="line"/>
			<point x="667.896" y="781.72" type="line"/>
			<point x="1364.144" y="1352.248" type="line"/>
			<point x="1540.112" y="1396.76" type="line"/>
			<point x="1540.112" y="1430" type="line"/>
			<point x="1081.448" y="1430" type="line"/>
			<point x="1081.448" y="1396.76" type="line"/>
			<point x="1262.968" y="1352.792" type="line"/>
			<point x="584.576" y="792.088" type="line"/>
			<point x="462.712" y="792.088" type="line"/>
			<point x="462.712" y="715.128" type="line"/>
			<point x="583.728" y="715.128" type="line"/>
			<point x="1115.336" y="72.24" type="line"/>
			<point x="958.504" y="32.816" type="line"/>
			<point x="958.504" y="0" type="line"/>
			<point x="1669.624" y="0" type="line"/>
			<point x="1669.624" y="32.816" type="line"/>
		</contour>
		<contour>
			<point x="556.88" y="1353.64" type="line"/>
			<point x="720.616" y="1396.76" type="line"/>
			<point x="720.616" y="1430" type="line"/>
			<point x="59.096" y="1430" type="line"/>
			<point x="59.096" y="1396.76" type="line"/>
			<point x="222.832" y="1353.64" type="line"/>
			<point x="222.832" y="77.36" type="line"/>
			<point x="59.096" y="32.816" type="line"/>
			<point x="59.096" y="0" type="line"/>
			<point x="720.616" y="0" type="line"/>
			<point x="720.616" y="32.816" type="line"/>
			<point x="556.88" y="77.36" type="line"/>
		</contour>
	</outline>
	<anchor name="bottom" x="829.568" y="0"/>
	<anchor name="UCtop" x="842.24" y="1430"/>
</glyph>
<glyph name="L" format="2">
	<unicode hex="004C"/>
	<advance width="1317.68"/>
	<outline>
		<contour>
			<point x="1186.136" y="-66.296" type="line"/>
			<point x="1302.312" y="436.128" type="line"/>
			<point x="1268.832" y="444.824" type="line"/>
			<point x="996.336" y="43.056" type="line"/>
			<point x="1155" y="76.96" type="line"/>
			<point x="360.576" y="76.96" type="line"/>
			<point x="360.576" y="0" type="line"/>
			<point x="1027.664" y="0" type="line"/>
			<point x="1168.808" y="-66.296" type="line"/>
		</contour>
		<contour>
			<point x="556.88" y="1353.64" type="line"/>
			<point x="720.616" y="1396.76" type="line"/>
			<point x="720.616" y="1430" type="line"/>
			<point x="59.096" y="1430" type="line"/>
			<point x="59.096" y="1396.76" type="line"/>
			<point x="222.832" y="1353.64" type="line"/>
			<point x="222.832" y="77.36" type="line"/>
			<point x="59.096" y="32.816" type="line"/>
			<point x="59.096" y="0" type="line"/>
			<point x="556.88" y="0" type="line"/>
		</contour>
	</outline>
	<anchor name="UCtop" x="389.856" y="1430"/>
	<anchor name="bottom" x="651.376" y="0"/>
	<anchor name="mid" x="1061.408" y="773"/>
	<anchor name="right" x="786.128" y="1430"/>
</glyph>
<glyph name="M" format="2">
	<unicode hex="004D"/>
	<advance width="2138.736"/>
	<outline>
		<contour>
			<point x="1946.576" y="83.296" type="line"/>
			<point x="1844.424" y="1350.248" type="line"/>
			<point x="2034.368" y="1396.76" type="line"/>
			<point x="2034.368" y="1430" type="line"/>
			<point x="1496.2" y="1430" type="line"/>
			<point x="1054.952" y="297.44" type="line"/>
			<point x="1086.592" y="297.016" type="line"/>
			<point x="629.352" y="1430" type="line"/>
			<point x="89.288" y="1430" type="line"/>
			<point x="89.288" y="1396.76" type="line"/>
			<point x="271.016" y="1322.432" type="line"/>
			<point x="193.104" y="72.272" type="line"/>
			<point x="25.552" y="32.816" type="line"/>
			<point x="25.552" y="0" type="line"/>
			<point x="448.744" y="0" type="line"/>
			<point x="448.744" y="32.816" type="line"/>
			<point x="267.128" y="72.272" type="line"/>
			<point x="342.888" y="1288.064" type="line"/>
			<point x="326.344" y="1285.488" type="line"/>
			<point x="856.024" y="-11.52" type="line"/>
			<point x="1010.864" y="-11.52" type="line"/>
			<point x="1526.256" y="1302.952" type="line"/>
			<point x="1509.712" y="1305.376" type="line"/>
			<point x="1603.016" y="75.24" type="line"/>
			<point x="1424.016" y="32.816" type="line"/>
			<point x="1424.016" y="0" type="line"/>
			<point x="2120.912" y="0" type="line"/>
			<point x="2120.912" y="32.816" type="line"/>
		</contour>
	</outline>
	<anchor name="UCtop" x="1028.08" y="1430"/>
	<anchor name="bottom" x="1009.648" y="0"/>
</glyph>
<glyph name="N" format="2">
	<unicode hex="004E"/>
	<advance width="1576.232"/>
	<outline>
		<contour>
			<point x="231.8" y="76.512" type="line"/>
			<point x="63.824" y="32.816" type="line"/>
			<point x="63.824" y="0" type="line"/>
			<point x="481.96" y="0" type="line"/>
			<point x="481.96" y="32.816" type="line"/>
			<point x="300.768" y="76.512" type="line"/>
			<point x="300.768" y="1346.856" type="line"/>
			<point x="275.312" y="1321.576" type="line"/>
			<point x="1212.344" y="-11.52" type="line"/>
			<point x="1363.552" y="-11.52" type="line"/>
			<point x="1363.552" y="1353.064" type="line"/>
			<point x="1531.528" y="1396.76" type="line"/>
			<point x="1531.528" y="1430" type="line"/>
			<point x="1106.608" y="1430" type="line"/>
			<point x="1106.608" y="1396.76" type="line"/>
			<point x="1287.8" y="1353.064" type="line"/>
			<point x="1287.8" y="210.768" type="line"/>
			<point x="1341.648" y="340.872" type="line"/>
			<point x="577.024" y="1430" type="line"/>
			<point x="33.224" y="1430" type="line"/>
			<point x="33.224" y="1400.576" type="line"/>
			<point x="231.8" y="1331.28" type="line"/>
		</contour>
	</outline>
	<anchor name="UCtop" x="822.992" y="1430"/>
	<anchor name="bottom" x="803.912" y="0"/>
</glyph>
<glyph name="O" format="2">
	<unicode hex="004F"/>
	<advance width="1634.616"/>
	<outline>
		<contour>
			<point x="829.952" y="1454.24" type="curve" smooth="yes"/>
			<point x="395.36" y="1454.24"/>
			<point x="80.432" y="1142.1191533243"/>
			<point x="80.432" y="702.976" type="curve" smooth="yes"/>
			<point x="80.432" y="272.5865469388"/>
			<point x="385.336" y="-24.24"/>
			<point x="805.816" y="-24.24" type="curve" smooth="yes"/>
			<point x="1239.256" y="-24.24"/>
			<point x="1554.184" y="287.8814939107"/>
			<point x="1554.184" y="728.176" type="curve" smooth="yes"/>
			<point x="1554.184" y="1157.414100955"/>
			<point x="1249.28" y="1454.24"/>
		</contour>
		<contour>
			<point x="830.048" y="40.296" type="curve" smooth="yes"/>
			<point x="578.992" y="40.296"/>
			<point x="418.904" y="301.2384"/>
			<point x="418.904" y="771.168" type="curve" smooth="yes"/>
			<point x="418.904" y="1190.7746849315"/>
			<point x="572.528" y="1390.28"/>
			<point x="804.568" y="1390.28" type="curve" smooth="yes"/>
			<point x="1054.472" y="1390.28"/>
			<point x="1215.136" y="1128.7621081831"/>
			<point x="1215.136" y="658.832" type="curve" smooth="yes"/>
			<point x="1215.136" y="239.8009756098"/>
			<point x="1061.512" y="40.296"/>
		</contour>
	</outline>
	<anchor name="UCtop" x="817.808" y="1430"/>
	<anchor name="bottom" x="817.808" y="0"/>
	<anchor name="horn" x="1162.888" y="1430"/>
	<anchor name="right" x="1000.112" y="0"/>
</glyph>
<glyph name="P" format="2">
	<unicode hex="0050"/>
	<advance width="1373.696"/>
	<outline>
		<contour>
			<point x="1012.12" y="1028.096" type="curve" smooth="yes"/>
			<point x="1012.12" y="816.456"/>
			<point x="875.232" y="704.152"/>
			<point x="683.408" y="704.152" type="curve" smooth="yes"/>
			<point x="371.456" y="704.152" type="line"/>
			<point x="380.784" y="627.192" type="line"/>
			<point x="808" y="627.192" type="line" smooth="yes"/>
			<point x="1179.48" y="627.192"/>
			<point x="1339.568" y="812.464"/>
			<point x="1339.568" y="1036.008" type="curve" smooth="yes"/>
			<point x="1339.568" y="1255.096"/>
			<point x="1187.752" y="1430"/>
			<point x="808" y="1430" type="curve" smooth="yes"/>
			<point x="380.784" y="1430" type="line"/>
			<point x="371.456" y="1353.04" type="line"/>
			<point x="600.896" y="1353.04" type="line" smooth="yes"/>
			<point x="901.84" y="1353.04"/>
			<point x="1012.12" y="1235.736"/>
		</contour>
		<contour>
			<point x="556.88" y="1430" type="line"/>
			<point x="59.096" y="1430" type="line"/>
			<point x="59.096" y="1396.76" type="line"/>
			<point x="222.832" y="1353.64" type="line"/>
			<point x="222.832" y="77.36" type="line"/>
			<point x="59.096" y="32.816" type="line"/>
			<point x="59.096" y="0" type="line"/>
			<point x="720.616" y="0" type="line"/>
			<point x="720.616" y="32.816" type="line"/>
			<point x="556.88" y="77.36" type="line"/>
		</contour>
	</outline>
	<anchor name="UCtop" x="708.944" y="1430"/>
	<anchor name="bottom" x="389.856" y="0"/>
</glyph>
<glyph name="Q" format="2">
  <advance width="1637"/>
  <unicode hex="0051"/>
  <anchor x="819.08" y="1430.0" name="UCtop"/>
  <anchor x="819.0799999999999" y="-440.76" name="bottom"/>
  <outline>
    <contour>
      <point x="875.648" y="-283.168" type="line" smooth="yes"/>
      <point x="1047.048" y="-421.62399999999997"/>
      <point x="1172.416" y="-468.392"/>
      <point x="1378.424" y="-468.392" type="curve" smooth="yes"/>
      <point x="1480.144" y="-468.392"/>
      <point x="1619.208" y="-437.976"/>
      <point x="1743.2240000000002" y="-401.152" type="curve"/>
      <point x="1743.2240000000002" y="-353.248" type="line"/>
      <point x="1608.1680000000001" y="-370.88800000000003"/>
      <point x="1506.888" y="-347.864"/>
      <point x="1276.784" y="-217.34400000000002" type="curve" smooth="yes"/>
      <point x="845.8639999999999" y="27.959999999999997" type="line"/>
      <point x="846.984" y="0.5439999999999996" type="line"/>
      <point x="1270.232" y="-8.176000000000002"/>
      <point x="1555.4560000000001" y="310.80800000000005"/>
      <point x="1555.4560000000001" y="717.576" type="curve" smooth="yes"/>
      <point x="1555.4560000000001" y="1158.024"/>
      <point x="1261.152" y="1454.24"/>
      <point x="831.2239999999999" y="1454.24" type="curve" smooth="yes"/>
      <point x="392.392" y="1454.24"/>
      <point x="81.70400000000001" y="1151.2079999999999"/>
      <point x="81.70400000000001" y="713.576" type="curve" smooth="yes"/>
      <point x="81.70400000000001" y="431.05600000000004"/>
      <point x="188.744" y="237.688"/>
      <point x="406.896" y="68.336" type="curve" smooth="yes"/>
    </contour>
    <contour>
      <point x="831.3199999999999" y="40.29600000000001" type="curve" smooth="yes"/>
      <point x="580.264" y="40.29600000000001"/>
      <point x="420.176" y="301.44800000000004"/>
      <point x="420.176" y="771.168" type="curve" smooth="yes"/>
      <point x="420.176" y="1190.5520000000001"/>
      <point x="573.8" y="1390.28"/>
      <point x="805.84" y="1390.28" type="curve" smooth="yes"/>
      <point x="1055.744" y="1390.28"/>
      <point x="1216.4080000000001" y="1128.5520000000001"/>
      <point x="1216.4080000000001" y="658.832" type="curve" smooth="yes"/>
      <point x="1216.4080000000001" y="240.02399999999997"/>
      <point x="1062.7839999999999" y="40.29600000000001"/>
    </contour>
  </outline>
</glyph>
<glyph name="R" format="2">
	<unicode hex="0052"/>
	<advance width="1507.056"/>
	<outline>
		<contour>
			<point x="692.568" y="773.088" type="curve" smooth="yes"/>
			<point x="283.976" y="773.088" type="line"/>
			<point x="340.792" y="700.736" type="line"/>
			<point x="676.064" y="700.736" type="line" smooth="yes"/>
			<point x="758.704" y="700.736"/>
			<point x="803.216" y="677.336"/>
			<point x="859.68" y="537.936" type="curve" smooth="yes"/>
			<point x="1002.912" y="177.328" type="line" smooth="yes"/>
			<point x="1072.496" y="0.24"/>
			<point x="1138.768" y="-30.904"/>
			<point x="1546.512" y="0" type="curve"/>
			<point x="1546.512" y="49.416" type="line"/>
			<point x="1432.392" y="48.416"/>
			<point x="1396.696" y="66.928"/>
			<point x="1334.744" y="215.032" type="curve" smooth="yes"/>
			<point x="1216.752" y="499.84" type="line" smooth="yes"/>
			<point x="1155.352" y="657.016"/>
			<point x="1066.152" y="736.304"/>
			<point x="860.68" y="742.968" type="curve"/>
			<point x="860.68" y="739.544" type="line"/>
			<point x="1158.432" y="751.728"/>
			<point x="1312.792" y="905.304"/>
			<point x="1312.792" y="1088.512" type="curve" smooth="yes"/>
			<point x="1312.792" y="1283.576"/>
			<point x="1178.792" y="1430"/>
			<point x="777.248" y="1430" type="curve" smooth="yes"/>
			<point x="349.272" y="1430" type="line"/>
			<point x="293.728" y="1357.648" type="line"/>
			<point x="667.544" y="1357.648" type="line" smooth="yes"/>
			<point x="893.488" y="1357.648"/>
			<point x="985.344" y="1258.64"/>
			<point x="985.344" y="1072.096" type="curve" smooth="yes"/>
			<point x="985.344" y="875.424"/>
			<point x="880.576" y="773.088"/>
		</contour>
		<contour>
			<point x="558.576" y="1430" type="line"/>
			<point x="56.552" y="1430" type="line"/>
			<point x="56.552" y="1396.76" type="line"/>
			<point x="224.528" y="1350.248" type="line"/>
			<point x="224.528" y="80.752" type="line"/>
			<point x="56.552" y="32.816" type="line"/>
			<point x="56.552" y="0" type="line"/>
			<point x="726.552" y="0" type="line"/>
			<point x="726.552" y="32.816" type="line"/>
			<point x="558.576" y="80.752" type="line"/>
		</contour>
	</outline>
	<anchor name="UCtop" x="723.232" y="1430"/>
	<anchor name="bottom" x="813.552" y="0"/>
</glyph>
<glyph name="S" format="2">
  <advance width="1196"/>
  <unicode hex="0053"/>
  <anchor x="576.592" y="1430.0" name="UCtop"/>
  <anchor x="593.552" y="0.0" name="bottom"/>
  <outline>
    <contour>
      <point x="977.9359999999999" y="1367.24" type="line"/>
      <point x="860.728" y="1427.8159999999998"/>
      <point x="759.456" y="1454.816"/>
      <point x="627.096" y="1454.816" type="curve" smooth="yes"/>
      <point x="313.632" y="1454.816"/>
      <point x="112.768" y="1294.944"/>
      <point x="112.768" y="1041.4080000000001" type="curve" smooth="yes"/>
      <point x="112.768" y="803.48"/>
      <point x="279.4" y="719.9680000000001"/>
      <point x="469.216" y="650.664" type="curve" smooth="yes"/>
      <point x="659.032" y="581.36"/>
      <point x="873.216" y="531.84"/>
      <point x="873.216" y="315.344" type="curve" smooth="yes"/>
      <point x="873.216" y="145.87199999999999"/>
      <point x="758.504" y="35.264"/>
      <point x="517.264" y="35.264" type="curve" smooth="yes"/>
      <point x="411.32800000000003" y="35.264"/>
      <point x="323.272" y="72.144"/>
      <point x="204.21599999999998" y="138.416" type="curve"/>
      <point x="380.53599999999994" y="21.695999999999998" type="line"/>
      <point x="106.184" y="439.536" type="line"/>
      <point x="74.21600000000001" y="439.536" type="line"/>
      <point x="155.976" y="37.488" type="line"/>
      <point x="281.54400000000004" y="-10.784"/>
      <point x="388.99199999999996" y="-24.816000000000003"/>
      <point x="530.504" y="-24.816000000000003" type="curve" smooth="yes"/>
      <point x="850.5120000000001" y="-24.816000000000003"/>
      <point x="1112.888" y="162.69600000000003"/>
      <point x="1112.888" y="455.8" type="curve" smooth="yes"/>
      <point x="1112.888" y="751.616"/>
      <point x="899.6800000000001" y="841.584"/>
      <point x="707.288" y="906.736" type="curve" smooth="yes"/>
      <point x="514.896" y="971.8879999999999"/>
      <point x="340.59200000000004" y="1016.4960000000001"/>
      <point x="340.59200000000004" y="1186.6879999999999" type="curve" smooth="yes"/>
      <point x="340.59200000000004" y="1306.304"/>
      <point x="408.296" y="1389.672"/>
      <point x="574.392" y="1389.672" type="curve" smooth="yes"/>
      <point x="687.0" y="1389.672"/>
      <point x="793.456" y="1344.728"/>
      <point x="896.928" y="1242.624" type="curve"/>
      <point x="814.944" y="1341.728" type="line"/>
      <point x="1028.44" y="1003.1600000000001" type="line"/>
      <point x="1057.528" y="1009.2800000000001" type="line"/>
      <point x="984.112" y="1495.0240000000001" type="line"/>
      <point x="964.9920000000001" y="1495.0240000000001" type="line"/>
      <point x="840.336" y="1389.88" type="line"/>
    </contour>
  </outline>
</glyph>
<glyph name="T" format="2">
	<unicode hex="0054"/>
	<advance width="1509.84"/>
	<outline>
		<contour>
			<point x="587.896" y="1395.76" type="line"/>
			<point x="587.896" y="80.752" type="line"/>
			<point x="419.92" y="32.816" type="line"/>
			<point x="419.92" y="0" type="line"/>
			<point x="1089.92" y="0" type="line"/>
			<point x="1089.92" y="32.816" type="line"/>
			<point x="921.944" y="80.752" type="line"/>
			<point x="921.944" y="1395.76" type="line"/>
		</contour>
		<contour>
			<point x="1341.968" y="1353.04" type="line"/>
			<point x="1219.64" y="1380.096" type="line"/>
			<point x="1442.656" y="955.352" type="line"/>
			<point x="1475.048" y="962.352" type="line"/>
			<point x="1409.928" y="1506.816" type="line"/>
			<point x="1391.08" y="1506.816" type="line"/>
			<point x="1203.376" y="1407.216" type="line"/>
			<point x="1317.968" y="1430" type="line"/>
			<point x="191.872" y="1430" type="line"/>
			<point x="306.464" y="1407.216" type="line"/>
			<point x="118.76" y="1506.816" type="line"/>
			<point x="99.912" y="1506.816" type="line"/>
			<point x="34.792" y="962.352" type="line"/>
			<point x="67.184" y="955.352" type="line"/>
			<point x="290.2" y="1380.096" type="line"/>
			<point x="167.872" y="1353.04" type="line"/>
		</contour>
	</outline>
	<anchor name="UCtop" x="754.92" y="1430"/>
	<anchor name="bottom" x="754.92" y="0"/>
</glyph>
<glyph name="U" format="2">
	<unicode hex="0055"/>
	<advance width="1617.432"/>
	<outline>
		<contour>
			<point x="1351.968" y="576.96" type="line" smooth="yes"/>
			<point x="1351.968" y="266.656"/>
			<point x="1200.784" y="140.4"/>
			<point x="933.048" y="140.4" type="curve" smooth="yes"/>
			<point x="660.248" y="140.4"/>
			<point x="521.456" y="272.744"/>
			<point x="521.456" y="568.904" type="curve" smooth="yes"/>
			<point x="521.456" y="1353.64" type="line"/>
			<point x="685.192" y="1396.76" type="line"/>
			<point x="685.192" y="1430" type="line"/>
			<point x="23.672" y="1430" type="line"/>
			<point x="23.672" y="1396.76" type="line"/>
			<point x="187.408" y="1353.64" type="line"/>
			<point x="187.408" y="582.12" type="line" smooth="yes"/>
			<point x="187.408" y="177.1715274542"/>
			<point x="409.552" y="-24.24"/>
			<point x="827.528" y="-24.24" type="curve" smooth="yes"/>
			<point x="1204.912" y="-24.24"/>
			<point x="1427.72" y="171.0716595745"/>
			<point x="1427.72" y="560.808" type="curve" smooth="yes"/>
			<point x="1427.72" y="1353.064" type="line"/>
			<point x="1591.456" y="1396.76" type="line"/>
			<point x="1591.456" y="1430" type="line"/>
			<point x="1175.016" y="1430" type="line"/>
			<point x="1175.016" y="1396.76" type="line"/>
			<point x="1351.968" y="1353.064" type="line"/>
		</contour>
	</outline>
	<anchor name="UCtop" x="878.976" y="1430"/>
	<anchor name="right" x="1039.936" y="0"/>
	<anchor name="bottom" x="878.976" y="0"/>
	<anchor name="horn" x="1446.016" y="1428"/>
</glyph>
<glyph name="V" format="2">
	<unicode hex="0056"/>
	<advance width="1511.792"/>
	<outline>
		<contour>
			<point x="107.488" y="1349.52" type="line"/>
			<point x="725.696" y="-11.52" type="line"/>
			<point x="880.72" y="-11.52" type="line"/>
			<point x="1375.64" y="1347.456" type="line"/>
			<point x="1528.64" y="1398.032" type="line"/>
			<point x="1528.64" y="1430" type="line"/>
			<point x="1117.096" y="1430" type="line"/>
			<point x="1117.096" y="1398.032" type="line"/>
			<point x="1294.8" y="1350.456" type="line"/>
			<point x="903.304" y="238.176" type="line"/>
			<point x="956.288" y="258.528" type="line"/>
			<point x="467.8" y="1351.52" type="line"/>
			<point x="643.016" y="1397.184" type="line"/>
			<point x="643.016" y="1430" type="line"/>
			<point x="-48.512" y="1430" type="line"/>
			<point x="-48.512" y="1397.184" type="line"/>
		</contour>
	</outline>
	<anchor name="UCtop" x="842.256" y="1430"/>
	<anchor name="bottom" x="801.512" y="0"/>
</glyph>
<glyph name="W" format="2">
	<unicode hex="0057"/>
	<advance width="2158.624"/>
	<outline>
		<contour>
			<point x="1105.672" y="1150.768" type="line"/>
			<point x="1043.936" y="1125.328" type="line"/>
			<point x="1498.952" y="-11.52" type="line"/>
			<point x="1653.976" y="-11.52" type="line"/>
			<point x="2026.896" y="1347.456" type="line"/>
			<point x="2179.896" y="1398.032" type="line"/>
			<point x="2179.896" y="1430" type="line"/>
			<point x="1767.08" y="1430" type="line"/>
			<point x="1767.08" y="1398.032" type="line"/>
			<point x="1944.784" y="1350.456" type="line"/>
			<point x="1669.224" y="284.392" type="line"/>
			<point x="1726.76" y="292.024" type="line"/>
			<point x="1286.384" y="1441.52" type="line"/>
			<point x="1124.176" y="1441.52" type="line"/>
			<point x="717.128" y="239.024" type="line"/>
			<point x="791.6" y="298.808" type="line"/>
			<point x="479.648" y="1351.52" type="line"/>
			<point x="654.864" y="1397.184" type="line"/>
			<point x="654.864" y="1430" type="line"/>
			<point x="-34.936" y="1430" type="line"/>
			<point x="-34.936" y="1397.184" type="line"/>
			<point x="121.064" y="1349.52" type="line"/>
			<point x="545.032" y="-11.52" type="line"/>
			<point x="700.056" y="-11.52" type="line"/>
		</contour>
	</outline>
	<anchor name="UCtop" x="1192.784" y="1430"/>
	<anchor name="bottom" x="1146.144" y="0"/>
</glyph>
<glyph name="X" format="2">
	<unicode hex="0058"/>
	<advance width="1551.28"/>
	<outline>
		<contour>
			<point x="726.568" y="669.528" type="line"/>
			<point x="841.2" y="750.24" type="line"/>
			<point x="1323.712" y="1347.032" type="line"/>
			<point x="1470.776" y="1396.76" type="line"/>
			<point x="1470.776" y="1430" type="line"/>
			<point x="1055.2" y="1430" type="line"/>
			<point x="1055.2" y="1396.76" type="line"/>
			<point x="1232.48" y="1350.032" type="line"/>
			<point x="799.112" y="808.504" type="line"/>
			<point x="685.208" y="727.672" type="line"/>
			<point x="150.152" y="82.968" type="line"/>
			<point x="1.816" y="33.24" type="line"/>
			<point x="1.816" y="0" type="line"/>
			<point x="417.816" y="0" type="line"/>
			<point x="417.816" y="33.24" type="line"/>
			<point x="240.96" y="79.968" type="line"/>
		</contour>
		<contour>
			<point x="1040.392" y="80.176" type="line"/>
			<point x="868.144" y="32.816" type="line"/>
			<point x="868.144" y="0" type="line"/>
			<point x="1582.816" y="0" type="line"/>
			<point x="1582.816" y="32.816" type="line"/>
			<point x="1428.512" y="82.176" type="line"/>
			<point x="890.096" y="864.008" type="line"/>
			<point x="877.52" y="882.008" type="line"/>
			<point x="554.68" y="1349.824" type="line"/>
			<point x="728.2" y="1396.76" type="line"/>
			<point x="728.2" y="1430" type="line"/>
			<point x="13.104" y="1430" type="line"/>
			<point x="13.104" y="1396.76" type="line"/>
			<point x="168.68" y="1347.824" type="line"/>
			<point x="646.944" y="651.176" type="line"/>
			<point x="662.672" y="627.872" type="line"/>
		</contour>
	</outline>
	<anchor name="UCtop" x="817.304" y="1430"/>
	<anchor name="bottom" x="740.344" y="0"/>
</glyph>
<glyph name="Y" format="2">
	<unicode hex="0059"/>
	<advance width="1487.096"/>
	<outline>
		<contour>
			<point x="122.096" y="1350.368" type="line"/>
			<point x="598.28" y="664.208" type="line"/>
			<point x="598.28" y="77.36" type="line"/>
			<point x="434.544" y="32.816" type="line"/>
			<point x="434.544" y="0" type="line"/>
			<point x="1096.064" y="0" type="line"/>
			<point x="1096.064" y="32.816" type="line"/>
			<point x="932.328" y="77.36" type="line"/>
			<point x="932.328" y="667.296" type="line"/>
			<point x="1339.064" y="1347.456" type="line"/>
			<point x="1490.792" y="1396.76" type="line"/>
			<point x="1490.792" y="1430" type="line"/>
			<point x="1077.736" y="1430" type="line"/>
			<point x="1077.736" y="1396.76" type="line"/>
			<point x="1256.288" y="1350.456" type="line"/>
			<point x="872.552" y="701.536" type="line"/>
			<point x="930.48" y="707.048" type="line"/>
			<point x="497.616" y="1352.368" type="line"/>
			<point x="681.072" y="1396.76" type="line"/>
			<point x="681.072" y="1430" type="line"/>
			<point x="-27.968" y="1430" type="line"/>
			<point x="-27.968" y="1396.76" type="line"/>
		</contour>
	</outline>
	<anchor name="UCtop" x="802.112" y="1430"/>
	<anchor name="bottom" x="765.304" y="0"/>
</glyph>
<glyph name="Z" format="2">
	<unicode hex="005A"/>
	<advance width="1386.768"/>
	<outline>
		<contour>
			<point x="1275.224" y="1430" type="line"/>
			<point x="299.576" y="1430" type="line"/>
			<point x="159.664" y="1501.056" type="line"/>
			<point x="143.272" y="1501.056" type="line"/>
			<point x="51.976" y="1008.408" type="line"/>
			<point x="78.368" y="1000.44" type="line"/>
			<point x="303.12" y="1353.04" type="line"/>
			<point x="1202.376" y="1353.04" type="line"/>
			<point x="932.568" y="1414.632" type="line"/>
			<point x="90.824" y="27.96" type="line"/>
			<point x="90.824" y="0" type="line"/>
			<point x="1094.44" y="0" type="line"/>
			<point x="1245.008" y="-64.72" type="line"/>
			<point x="1267.52" y="-64.72" type="line"/>
			<point x="1350.152" y="430.648" type="line"/>
			<point x="1321.456" y="439.04" type="line"/>
			<point x="1082.408" y="76.96" type="line"/>
			<point x="290.296" y="76.96" type="line"/>
			<point x="435.904" y="18.792" type="line"/>
			<point x="1275.224" y="1401.464" type="line"/>
		</contour>
	</outline>
	<anchor name="UCtop" x="733.784" y="1430"/>
	<anchor name="bottom" x="688.344" y="0"/>
</glyph>
<glyph name="bracketleft" format="2">
	<unicode hex="005B"/>
	<advance width="599.96"/>
	<outline>
		<contour>
			<point x="174.464" y="-222.4" type="line"/>
			<point x="584.168" y="-222.4" type="line"/>
			<point x="584.168" y="-188.736" type="line"/>
			<point x="357.168" y="-162.192" type="line"/>
			<point x="357.168" y="1403.792" type="line"/>
			<point x="584.168" y="1430.336" type="line"/>
			<point x="584.168" y="1464" type="line"/>
			<point x="174.464" y="1464" type="line"/>
		</contour>
	</outline>
</glyph>
<glyph name="backslash" format="2">
  <advance width="781.0319999999999"/>
  <unicode hex="005C"/>
  <outline>
    <contour>
      <point x="729.544" y="0.0" type="line"/>
      <point x="132.544" y="1430.0" type="line"/>
      <point x="48.488" y="1430.0" type="line"/>
      <point x="645.488" y="0.0" type="line"/>
    </contour>
  </outline>
</glyph>
<glyph name="bracketright" format="2">
  <advance width="599.9599999999999"/>
  <unicode hex="005D"/>
  <outline>
    <contour>
      <point x="425.496" y="1464.0" type="line"/>
      <point x="15.791999999999998" y="1464.0" type="line"/>
      <point x="15.791999999999998" y="1430.336" type="line"/>
      <point x="242.792" y="1403.792" type="line"/>
      <point x="242.792" y="-162.192" type="line"/>
      <point x="15.791999999999998" y="-188.73600000000002" type="line"/>
      <point x="15.791999999999998" y="-222.4" type="line"/>
      <point x="425.496" y="-222.4" type="line"/>
    </contour>
  </outline>
</glyph>
<glyph name="asciicircum" format="2">
  <advance width="1150.0"/>
  <unicode hex="005E"/>
  <outline>
    <contour>
      <point x="567.2719999999999" y="1350.04" type="line"/>
      <point x="889.064" y="662.0" type="line"/>
      <point x="974.2080000000001" y="662.0" type="line"/>
      <point x="612.208" y="1430.0" type="line"/>
      <point x="535.792" y="1430.0" type="line"/>
      <point x="175.79200000000003" y="662.0" type="line"/>
      <point x="260.93600000000004" y="662.0" type="line"/>
      <point x="579.7280000000001" y="1350.04" type="line"/>
    </contour>
  </outline>
</glyph>
<glyph name="a" format="2">
	<unicode hex="0061"/>
	<advance width="1089.232"/>
	<outline>
		<contour>
			<point x="680.832" y="654.552" type="line"/>
			<point x="146.376" y="487.576"/>
			<point x="66.04" y="408.76"/>
			<point x="66.04" y="239.696" type="curve" smooth="yes"/>
			<point x="66.04" y="75.088"/>
			<point x="178.592" y="-22.968"/>
			<point x="362.824" y="-22.968" type="curve" smooth="yes"/>
			<point x="497.912" y="-22.968"/>
			<point x="598.64" y="65.096"/>
			<point x="636.88" y="225.048" type="curve"/>
			<point x="627.096" y="231.408" type="line"/>
			<point x="632.096" y="58.608"/>
			<point x="680.664" y="-24.24"/>
			<point x="822.984" y="-24.24" type="curve" smooth="yes"/>
			<point x="925.88" y="-24.24"/>
			<point x="1002.512" y="1.392"/>
			<point x="1104.48" y="104.824" type="curve"/>
			<point x="1104.48" y="146.664" type="line"/>
			<point x="1065.384" y="123.416"/>
			<point x="1029.016" y="113.232"/>
			<point x="992.072" y="113.232" type="curve" smooth="yes"/>
			<point x="947.312" y="113.232"/>
			<point x="919.248" y="135.688"/>
			<point x="919.248" y="191.936" type="curve" smooth="yes"/>
			<point x="919.248" y="748.896" type="line" smooth="yes"/>
			<point x="919.248" y="931.216"/>
			<point x="823.92" y="1048.24"/>
			<point x="569.664" y="1048.24" type="curve" smooth="yes"/>
			<point x="335.968" y="1048.24"/>
			<point x="75.312" y="906.736"/>
			<point x="75.312" y="789.648" type="curve" smooth="yes"/>
			<point x="75.312" y="748.496"/>
			<point x="107.16" y="726.256"/>
			<point x="169.152" y="726.256" type="curve" smooth="yes"/>
			<point x="216.328" y="726.256"/>
			<point x="260.568" y="744.344"/>
			<point x="280.536" y="770.856" type="curve" smooth="yes"/>
			<point x="305.688" y="803.704"/>
			<point x="319.416" y="874.2"/>
			<point x="332.352" y="990.176" type="curve"/>
			<point x="286.56" y="937.456" type="line"/>
			<point x="321.44" y="950.52"/>
			<point x="380.448" y="957.552"/>
			<point x="442.632" y="957.552" type="curve" smooth="yes"/>
			<point x="567.336" y="957.552"/>
			<point x="627.552" y="890.64"/>
			<point x="627.552" y="773.568" type="curve" smooth="yes"/>
			<point x="627.552" y="304.392" type="line" smooth="yes"/>
			<point x="627.552" y="197.896"/>
			<point x="571.6" y="147.976"/>
			<point x="487.976" y="147.976" type="curve" smooth="yes"/>
			<point x="408.936" y="147.976"/>
			<point x="352.016" y="197.496"/>
			<point x="352.016" y="308.68" type="curve" smooth="yes"/>
			<point x="352.016" y="438.656"/>
			<point x="401.48" y="511.512"/>
			<point x="683.352" y="606.616" type="curve"/>
		</contour>
	</outline>
	<anchor name="top" x="516.248" y="1024"/>
	<anchor name="right" x="1104.48" y="0"/>
	<anchor name="bottom" x="523.88" y="0"/>
</glyph>
<glyph name="c" format="2">
  <advance width="995.576"/>
  <unicode hex="0063"/>
  <anchor x="545.5360000000001" y="1024.0" name="top"/>
  <anchor x="958.032" y="0.0" name="right"/>
  <anchor x="552.744" y="0.0" name="bottom"/>
  <outline>
    <contour>
      <point x="620.1999999999999" y="1048.24" type="curve" smooth="yes"/>
      <point x="306.056" y="1048.24"/>
      <point x="62.28" y="813.0"/>
      <point x="62.28" y="493.152" type="curve" smooth="yes"/>
      <point x="62.28" y="162.24"/>
      <point x="258.94399999999996" y="-24.240000000000002"/>
      <point x="538.352" y="-24.240000000000002" type="curve" smooth="yes"/>
      <point x="711.16" y="-24.240000000000002"/>
      <point x="835.64" y="52.239999999999995"/>
      <point x="966.512" y="283.464" type="curve"/>
      <point x="945.576" y="300.824" type="line"/>
      <point x="864.888" y="209.4"/>
      <point x="776.272" y="174.72799999999998"/>
      <point x="666.88" y="174.72799999999998" type="curve" smooth="yes"/>
      <point x="457.384" y="174.72799999999998"/>
      <point x="343.016" y="303.248"/>
      <point x="343.016" y="637.824" type="curve" smooth="yes"/>
      <point x="343.016" y="890.4720000000001"/>
      <point x="422.12" y="986.336"/>
      <point x="537.168" y="986.336" type="curve" smooth="yes"/>
      <point x="662.8960000000001" y="986.336"/>
      <point x="792.3679999999999" y="762.808"/>
      <point x="824.88" y="762.808" type="curve" smooth="yes"/>
      <point x="890.0" y="762.808"/>
      <point x="943.8399999999999" y="808.44"/>
      <point x="943.8399999999999" y="879.496" type="curve" smooth="yes"/>
      <point x="943.8399999999999" y="963.008"/>
      <point x="854.176" y="1048.24"/>
    </contour>
  </outline>
</glyph>
<glyph name="e" format="2">
	<unicode hex="0065"/>
	<advance width="1028.824"/>
	<outline>
		<contour>
			<point x="573.504" y="1048.24" type="curve" smooth="yes"/>
			<point x="243.368" y="1048.24"/>
			<point x="63.128" y="790.576"/>
			<point x="63.128" y="492.304" type="curve" smooth="yes"/>
			<point x="63.128" y="161.816"/>
			<point x="263.824" y="-24.24"/>
			<point x="548.992" y="-24.24" type="curve" smooth="yes"/>
			<point x="726.104" y="-24.24"/>
			<point x="855.008" y="54.36"/>
			<point x="990.032" y="287.704" type="curve"/>
			<point x="968.52" y="305.064" type="line"/>
			<point x="886.256" y="211.52"/>
			<point x="792.792" y="174.728"/>
			<point x="684.064" y="174.728" type="curve" smooth="yes"/>
			<point x="462.6" y="174.728"/>
			<point x="343.864" y="301.128"/>
			<point x="343.864" y="619.168" type="curve" smooth="yes"/>
			<point x="343.864" y="880.376"/>
			<point x="415.848" y="986.096"/>
			<point x="540.96" y="986.096" type="curve" smooth="yes"/>
			<point x="638.488" y="986.096"/>
			<point x="687.072" y="902.512"/>
			<point x="702.56" y="668.008" type="curve"/>
			<point x="833.136" y="714.368" type="line"/>
			<point x="298.096" y="714.368" type="line"/>
			<point x="298.096" y="642.376" type="line"/>
			<point x="970.272" y="642.376" type="line"/>
			<point x="951" y="901.4"/>
			<point x="812.336" y="1048.24"/>
		</contour>
	</outline>
	<anchor name="top" x="539.176" y="1024"/>
	<anchor name="right" x="990.032" y="0"/>
	<anchor name="bottom" x="551.896" y="0"/>
</glyph>
<glyph name="f" format="2">
	<unicode hex="0066"/>
	<advance width="802.312"/>
	<outline>
		<contour>
			<point x="240.704" y="885.048" type="line"/>
			<point x="785.824" y="885.048" type="line"/>
			<point x="804.792" y="1024" type="line"/>
			<point x="329.816" y="1024" type="line"/>
			<point x="216.792" y="1040.448" type="line"/>
			<point x="22.52" y="967.336" type="line"/>
			<point x="22.52" y="936.184" type="line"/>
			<point x="203.52" y="862.568" type="line"/>
		</contour>
		<contour>
			<point x="482.672" y="61.664" type="line"/>
			<point x="482.672" y="1232.216" type="line" smooth="yes"/>
			<point x="482.672" y="1352.144"/>
			<point x="522.04" y="1409.76"/>
			<point x="608.568" y="1409.76" type="curve" smooth="yes"/>
			<point x="736.416" y="1409.76"/>
			<point x="859.656" y="1237.744"/>
			<point x="890.048" y="1237.744" type="curve" smooth="yes"/>
			<point x="946.408" y="1237.744"/>
			<point x="995.824" y="1289.528"/>
			<point x="995.824" y="1348.552" type="curve" smooth="yes"/>
			<point x="995.824" y="1429.576"/>
			<point x="914.768" y="1488.24"/>
			<point x="726.488" y="1488.24" type="curve" smooth="yes"/>
			<point x="404.032" y="1488.24"/>
			<point x="187.52" y="1287.76"/>
			<point x="187.52" y="987.016" type="curve" smooth="yes"/>
			<point x="187.52" y="61.664" type="line"/>
			<point x="68.688" y="29.544" type="line"/>
			<point x="68.688" y="0" type="line"/>
			<point x="621.504" y="0" type="line"/>
			<point x="621.504" y="29.544" type="line"/>
		</contour>
	</outline>
	<anchor name="UCtop" x="588.736" y="1430"/>
	<anchor name="bottom" x="335.096" y="0"/>
</glyph>
<glyph name="g" format="2">
	<unicode hex="0067"/>
	<advance width="1081.872"/>
	<outline>
		<contour>
			<point x="460.384" y="-465" type="curve" smooth="yes"/>
			<point x="861.208" y="-465"/>
			<point x="1043.808" y="-298.456"/>
			<point x="1043.808" y="-112.824" type="curve" smooth="yes"/>
			<point x="1043.808" y="57.352"/>
			<point x="920.168" y="152.104"/>
			<point x="605.328" y="178.68" type="curve" smooth="yes"/>
			<point x="325.048" y="202.376"/>
			<point x="278.048" y="223.744"/>
			<point x="278.048" y="291.568" type="curve" smooth="yes"/>
			<point x="278.048" y="330.176"/>
			<point x="310.32" y="365.912"/>
			<point x="402.08" y="372.912" type="curve"/>
			<point x="389.352" y="398.608" type="line"/>
			<point x="196.3097751675" y="366.589489309"/>
			<point x="89.408" y="279.6187692308"/>
			<point x="89.408" y="167.376" type="curve" smooth="yes"/>
			<point x="89.408" y="31.36"/>
			<point x="175.12" y="-51.576"/>
			<point x="434.264" y="-73.88" type="curve" smooth="yes"/>
			<point x="727.24" y="-95.032"/>
			<point x="851.472" y="-123.344"/>
			<point x="851.472" y="-228.928" type="curve" smooth="yes"/>
			<point x="851.472" y="-329.4897391304"/>
			<point x="751.048" y="-406.16"/>
			<point x="535.816" y="-406.16" type="curve" smooth="yes"/>
			<point x="338.8516178344" y="-406.16"/>
			<point x="213.088" y="-337.0130047393"/>
			<point x="213.088" y="-220.688" type="curve" smooth="yes"/>
			<point x="213.088" y="-134.016"/>
			<point x="281.968" y="-71.216"/>
			<point x="512.392" y="-42.576" type="curve"/>
			<point x="512.816" y="-28.816" type="line"/>
			<point x="424.192" y="-29.24" type="line"/>
			<point x="116.688" y="-81.488"/>
			<point x="9.968" y="-154.56"/>
			<point x="9.968" y="-252.592" type="curve" smooth="yes"/>
			<point x="9.968" y="-371.84"/>
			<point x="125.456" y="-465"/>
		</contour>
		<contour>
			<point x="487.376" y="359.76" type="curve" smooth="yes"/>
			<point x="731.152" y="359.76"/>
			<point x="903.056" y="501.912"/>
			<point x="903.056" y="703.848" type="curve" smooth="yes"/>
			<point x="903.056" y="909.752"/>
			<point x="735.392" y="1048.24"/>
			<point x="483.984" y="1048.24" type="curve" smooth="yes"/>
			<point x="245.392" y="1048.24"/>
			<point x="71.184" y="905.512"/>
			<point x="71.184" y="703" type="curve" smooth="yes"/>
			<point x="71.184" y="497.672"/>
			<point x="241.152" y="359.76"/>
		</contour>
		<contour>
			<point x="509.352" y="410.72" type="curve" smooth="yes"/>
			<point x="413.76" y="404.384"/>
			<point x="352.048" y="522.688"/>
			<point x="342.256" y="728.216" type="curve" smooth="yes"/>
			<point x="331.888" y="886.224"/>
			<point x="375.536" y="990.368"/>
			<point x="462.008" y="997.28" type="curve" smooth="yes"/>
			<point x="560.48" y="1003.616"/>
			<point x="620.464" y="889.344"/>
			<point x="631.408" y="680.936" type="curve" smooth="yes"/>
			<point x="642.928" y="522.352"/>
			<point x="602.16" y="419.936"/>
		</contour>
		<contour>
			<point x="623.856" y="1006.696" type="line"/>
			<point x="866.456" y="995.752"/>
			<point x="927.328" y="864.16"/>
			<point x="1001.016" y="864.16" type="curve" smooth="yes"/>
			<point x="1056.072" y="864.16"/>
			<point x="1106.8" y="925.424"/>
			<point x="1106.8" y="1008.12" type="curve" smooth="yes"/>
			<point x="1106.8" y="1053.752"/>
			<point x="1085.712" y="1070.6"/>
			<point x="1058.776" y="1070.6" type="curve" smooth="yes"/>
			<point x="1011.904" y="1070.6"/>
			<point x="955.784" y="1017.056"/>
			<point x="572.68" y="1041.088" type="curve"/>
		</contour>
	</outline>
	<anchor name="top" x="492.984" y="1024"/>
	<anchor name="bottom" x="516.376" y="-440.76"/>
</glyph>
<glyph name="h" format="2">
	<unicode hex="0068"/>
	<advance width="1246.688"/>
	<outline>
		<contour>
			<point x="692.992" y="29.544" type="line"/>
			<point x="692.992" y="0" type="line"/>
			<point x="1217.84" y="0" type="line"/>
			<point x="1217.84" y="29.544" type="line"/>
			<point x="1099.432" y="61.664" type="line"/>
			<point x="1099.432" y="733.96" type="line" smooth="yes"/>
			<point x="1099.432" y="941.032"/>
			<point x="1009.104" y="1044"/>
			<point x="820.312" y="1044" type="curve" smooth="yes"/>
			<point x="683.928" y="1044"/>
			<point x="611.984" y="1014.12"/>
			<point x="405.104" y="814.176" type="curve"/>
			<point x="412.592" y="794.872" type="line"/>
			<point x="477.136" y="825.72"/>
			<point x="554.12" y="850.696"/>
			<point x="633.256" y="850.696" type="curve" smooth="yes"/>
			<point x="752.88" y="850.696"/>
			<point x="807.736" y="799.656"/>
			<point x="807.736" y="682.192" type="curve" smooth="yes"/>
			<point x="807.736" y="60.392" type="line"/>
		</contour>
		<contour>
			<point x="559.24" y="0" type="line"/>
			<point x="559.24" y="29.544" type="line"/>
			<point x="445.072" y="60.392" type="line"/>
			<point x="445.072" y="1036.384" type="line"/>
			<point x="445.072" y="1488.24" type="line"/>
			<point x="431.32" y="1488.24" type="line"/>
			<point x="-9.2" y="1385.376" type="line"/>
			<point x="-9.2" y="1361.016" type="line"/>
			<point x="68.8" y="1302.8518318564"/>
			<point x="127.376" y="1259.3400560479"/>
			<point x="153.376" y="1239.952" type="curve"/>
			<point x="153.376" y="61.664" type="line"/>
			<point x="34.544" y="29.544" type="line"/>
			<point x="34.544" y="0" type="line"/>
		</contour>
	</outline>
	<anchor name="UCtop" x="625.712" y="1430.424"/>
	<anchor name="bottom" x="628.736" y="0"/>
	<anchor name="center" x="364.232" y="1166.312"/>
</glyph>
<glyph name="i" format="2">
  <advance width="613"/>
  <unicode hex="0069"/>
  <anchor x="305.136" y="1430.0" name="top"/>
  <anchor x="316.648" y="0.0" name="bottom"/>
  <anchor x="465.096" y="0.0" name="right"/>
  <outline>
    <contour>
      <point x="303.616" y="1168.0800000000002" type="curve" smooth="yes"/>
      <point x="403.728" y="1168.0800000000002"/>
      <point x="462.32800000000003" y="1244.136"/>
      <point x="462.32800000000003" y="1328.7040000000002" type="curve" smooth="yes"/>
      <point x="462.32800000000003" y="1411.0"/>
      <point x="403.728" y="1479.056"/>
      <point x="303.616" y="1479.056" type="curve" smooth="yes"/>
      <point x="203.928" y="1479.056"/>
      <point x="141.752" y="1411.0"/>
      <point x="141.752" y="1328.7040000000002" type="curve" smooth="yes"/>
      <point x="141.752" y="1244.136"/>
      <point x="203.928" y="1168.0800000000002"/>
    </contour>
    <contour>
      <point x="462.496" y="1054.576" type="line"/>
      <point x="448.74399999999997" y="1054.576" type="line"/>
      <point x="40.944" y="943.648" type="line"/>
      <point x="40.944" y="919.288" type="line"/>
      <point x="101.944" y="863.6897907092907"/>
      <point x="148.8" y="826.0198131868132"/>
      <point x="170.79999999999998" y="805.9680000000001" type="curve"/>
      <point x="170.79999999999998" y="61.664" type="line"/>
      <point x="51.967999999999996" y="29.544" type="line"/>
      <point x="51.967999999999996" y="0.0" type="line"/>
      <point x="576.664" y="0.0" type="line"/>
      <point x="576.664" y="29.544" type="line"/>
      <point x="462.496" y="60.392" type="line"/>
      <point x="462.496" y="849.824" type="line"/>
    </contour>
  </outline>
</glyph>
<glyph name="j" format="2">
  <advance width="578.928"/>
  <unicode hex="006A"/>
  <anchor x="296.976" y="1430.0" name="top"/>
  <anchor x="285.45599999999996" y="-440.76" name="bottom"/>
  <outline>
    <contour>
      <point x="292.00800000000004" y="1168.0800000000002" type="curve" smooth="yes"/>
      <point x="392.12" y="1168.0800000000002"/>
      <point x="450.71999999999997" y="1244.136"/>
      <point x="450.71999999999997" y="1328.7040000000002" type="curve" smooth="yes"/>
      <point x="450.71999999999997" y="1411.0"/>
      <point x="392.12" y="1479.056"/>
      <point x="292.00800000000004" y="1479.056" type="curve" smooth="yes"/>
      <point x="192.32" y="1479.056"/>
      <point x="130.144" y="1411.0"/>
      <point x="130.144" y="1328.7040000000002" type="curve" smooth="yes"/>
      <point x="130.144" y="1244.136"/>
      <point x="192.32" y="1168.0800000000002"/>
    </contour>
    <contour>
      <point x="159.768" y="805.9680000000001" type="curve"/>
      <point x="159.768" y="-37.608000000000004" type="line" smooth="yes"/>
      <point x="159.768" y="-225.056"/>
      <point x="152.376" y="-259.264"/>
      <point x="4.5120000000000005" y="-439.216" type="curve"/>
      <point x="24.664" y="-460.76" type="line"/>
      <point x="422.08" y="-162.00799999999998"/>
      <point x="451.464" y="-112.864"/>
      <point x="451.464" y="101.73599999999999" type="curve" smooth="yes"/>
      <point x="451.464" y="849.824" type="line"/>
      <point x="451.464" y="1054.576" type="line"/>
      <point x="437.712" y="1054.576" type="line"/>
      <point x="29.912000000000003" y="943.648" type="line"/>
      <point x="29.912000000000003" y="919.288" type="line"/>
      <point x="90.912" y="863.6897907092907"/>
      <point x="137.76799999999997" y="826.0198131868132"/>
    </contour>
  </outline>
</glyph>
<glyph name="k" format="2">
	<unicode hex="006B"/>
	<advance width="1219.68"/>
	<outline>
		<contour>
			<point x="554.432" y="613.504" type="line"/>
			<point x="1021.104" y="954.608" type="line"/>
			<point x="1181.248" y="991" type="line"/>
			<point x="1181.248" y="1024" type="line"/>
			<point x="764.176" y="1024" type="line"/>
			<point x="764.176" y="991" type="line"/>
			<point x="917.96" y="956.184" type="line"/>
			<point x="465.192" y="593.024" type="line"/>
			<point x="380.392" y="593.024" type="line"/>
			<point x="380.392" y="535.576" type="line"/>
			<point x="458.432" y="535.576" type="line"/>
			<point x="810.336" y="56.968" type="line"/>
			<point x="703.864" y="29.544" type="line"/>
			<point x="703.864" y="0" type="line"/>
			<point x="1247.04" y="0" type="line"/>
			<point x="1247.04" y="29.544" type="line"/>
			<point x="1148.88" y="61.512" type="line"/>
			<point x="663.848" y="716.288" type="line"/>
		</contour>
		<contour>
			<point x="445.072" y="61.664" type="line"/>
			<point x="445.072" y="1301.344" type="line"/>
			<point x="445.072" y="1488.24" type="line"/>
			<point x="431.32" y="1488.24" type="line"/>
			<point x="-9.2" y="1390.04" type="line"/>
			<point x="-9.2" y="1365.68" type="line"/>
			<point x="68.8" y="1311.5987948194"/>
			<point x="127.376" y="1271.1230683935"/>
			<point x="153.376" y="1253.096" type="curve"/>
			<point x="153.376" y="61.664" type="line"/>
			<point x="34.544" y="29.544" type="line"/>
			<point x="34.544" y="0" type="line"/>
			<point x="559.664" y="0" type="line"/>
			<point x="559.664" y="29.544" type="line"/>
		</contour>
	</outline>
	<anchor name="bottom" x="623.944" y="0"/>
	<anchor name="UCtop" x="623.488" y="1430"/>
</glyph>
<glyph name="l" format="2">
	<unicode hex="006C"/>
	<advance width="601.904"/>
	<outline>
		<contour>
			<point x="446.8" y="61.664" type="line"/>
			<point x="446.8" y="1295.584" type="line"/>
			<point x="446.8" y="1488.24" type="line"/>
			<point x="433.048" y="1488.24" type="line"/>
			<point x="-7.472" y="1390.04" type="line"/>
			<point x="-7.472" y="1365.68" type="line"/>
			<point x="70.528" y="1311.5987948194"/>
			<point x="129.104" y="1271.1230683935"/>
			<point x="155.104" y="1253.096" type="curve"/>
			<point x="155.104" y="61.664" type="line"/>
			<point x="36.272" y="29.544" type="line"/>
			<point x="36.272" y="0" type="line"/>
			<point x="565.632" y="0" type="line"/>
			<point x="565.632" y="29.544" type="line"/>
		</contour>
	</outline>
	<anchor name="UCtop" x="291.376" y="1430"/>
	<anchor name="right" x="446.8" y="1444.416"/>
	<anchor name="bottom" x="300.952" y="0"/>
	<anchor name="mid" x="684.368" y="582"/>
</glyph>
<glyph name="m" format="2">
	<unicode hex="006D"/>
	<advance width="1847.92"/>
	<outline>
		<contour>
			<point x="460.344" y="833.288" type="line"/>
			<point x="460.344" y="1054.576" type="line"/>
			<point x="446.592" y="1054.576" type="line"/>
			<point x="38.792" y="943.648" type="line"/>
			<point x="38.792" y="919.288" type="line"/>
			<point x="109.016" y="863.8269090909"/>
			<point x="146.224" y="827.0873846154"/>
			<point x="168.648" y="805.968" type="curve"/>
			<point x="168.648" y="61.664" type="line"/>
			<point x="49.816" y="29.544" type="line"/>
			<point x="49.816" y="0" type="line"/>
			<point x="570.272" y="0" type="line"/>
			<point x="570.272" y="29.544" type="line"/>
			<point x="460.344" y="60.392" type="line"/>
		</contour>
		<contour>
			<point x="1080.216" y="749.568" type="line" smooth="yes"/>
			<point x="1080.216" y="946.184"/>
			<point x="993.888" y="1044"/>
			<point x="814.976" y="1044" type="curve" smooth="yes"/>
			<point x="688.56" y="1044"/>
			<point x="619.072" y="1016.968"/>
			<point x="420.376" y="823.48" type="curve"/>
			<point x="427.288" y="799.872" type="line"/>
			<point x="486.56" y="828.872"/>
			<point x="557.664" y="850.696"/>
			<point x="628.92" y="850.696" type="curve" smooth="yes"/>
			<point x="738.24" y="850.696"/>
			<point x="788.52" y="804.232"/>
			<point x="788.52" y="696.92" type="curve" smooth="yes"/>
			<point x="788.52" y="60.392" type="line"/>
			<point x="678.016" y="29.544" type="line"/>
			<point x="678.016" y="0" type="line"/>
			<point x="1190.144" y="0" type="line"/>
			<point x="1190.144" y="29.544" type="line"/>
			<point x="1080.216" y="60.392" type="line"/>
		</contour>
		<contour>
			<point x="1700.088" y="749.568" type="line" smooth="yes"/>
			<point x="1700.088" y="946.184"/>
			<point x="1613.76" y="1044"/>
			<point x="1434.848" y="1044" type="curve" smooth="yes"/>
			<point x="1308.432" y="1044"/>
			<point x="1238.944" y="1016.968"/>
			<point x="1040.248" y="823.48" type="curve"/>
			<point x="1047.16" y="799.872" type="line"/>
			<point x="1106.432" y="828.872"/>
			<point x="1177.536" y="850.696"/>
			<point x="1248.792" y="850.696" type="curve" smooth="yes"/>
			<point x="1358.112" y="850.696"/>
			<point x="1408.392" y="804.232"/>
			<point x="1408.392" y="696.92" type="curve" smooth="yes"/>
			<point x="1408.392" y="60.392" type="line"/>
			<point x="1297.888" y="29.544" type="line"/>
			<point x="1297.888" y="0" type="line"/>
			<point x="1818.496" y="0" type="line"/>
			<point x="1818.496" y="29.544" type="line"/>
			<point x="1700.088" y="61.664" type="line"/>
		</contour>
	</outline>
	<anchor name="top" x="928.856" y="1024"/>
	<anchor name="bottom" x="928.856" y="0"/>
</glyph>
<glyph name="n" format="2">
	<unicode hex="006E"/>
	<advance width="1261.96"/>
	<outline>
		<contour>
			<point x="460.344" y="829.048" type="line"/>
			<point x="460.344" y="1054.576" type="line"/>
			<point x="446.592" y="1054.576" type="line"/>
			<point x="38.792" y="943.648" type="line"/>
			<point x="38.792" y="919.288" type="line"/>
			<point x="109.016" y="863.8269090909"/>
			<point x="146.224" y="827.0873846154"/>
			<point x="168.648" y="805.968" type="curve"/>
			<point x="168.648" y="61.664" type="line"/>
			<point x="49.816" y="29.544" type="line"/>
			<point x="49.816" y="0" type="line"/>
			<point x="574.512" y="0" type="line"/>
			<point x="574.512" y="29.544" type="line"/>
			<point x="460.344" y="60.392" type="line"/>
		</contour>
		<contour>
			<point x="708.264" y="29.544" type="line"/>
			<point x="708.264" y="0" type="line"/>
			<point x="1233.112" y="0" type="line"/>
			<point x="1233.112" y="29.544" type="line"/>
			<point x="1114.704" y="61.664" type="line"/>
			<point x="1114.704" y="733.96" type="line" smooth="yes"/>
			<point x="1114.704" y="941.032"/>
			<point x="1024.376" y="1044"/>
			<point x="835.584" y="1044" type="curve" smooth="yes"/>
			<point x="699.2" y="1044"/>
			<point x="627.256" y="1014.12"/>
			<point x="420.376" y="814.176" type="curve"/>
			<point x="427.864" y="794.872" type="line"/>
			<point x="492.408" y="825.72"/>
			<point x="569.392" y="850.696"/>
			<point x="648.528" y="850.696" type="curve" smooth="yes"/>
			<point x="768.152" y="850.696"/>
			<point x="823.008" y="799.656"/>
			<point x="823.008" y="682.192" type="curve" smooth="yes"/>
			<point x="823.008" y="60.392" type="line"/>
		</contour>
	</outline>
	<anchor name="top" x="643.584" y="1024"/>
	<anchor name="bottom" x="643.584" y="0"/>
</glyph>
<glyph name="o" format="2">
  <advance width="1170.648"/>
  <unicode hex="006F"/>
  <anchor x="585.536" y="1024.0" name="top"/>
  <anchor x="585.536" y="0.0" name="bottom"/>
  <anchor x="777.3199999999999" y="1022.8480000000001" name="horn"/>
  <anchor x="767.8960000000001" y="0.0" name="right"/>
  <outline>
    <contour>
      <point x="584.656" y="34.6" type="curve" smooth="yes"/>
      <point x="431.968" y="34.6"/>
      <point x="369.28000000000003" y="202.60000000000002"/>
      <point x="369.28000000000003" y="529.96" type="curve" smooth="yes"/>
      <point x="369.28000000000003" y="844.872"/>
      <point x="435.664" y="988.976"/>
      <point x="585.5680000000001" y="988.976" type="curve" smooth="yes"/>
      <point x="738.256" y="988.976"/>
      <point x="800.944" y="821.4"/>
      <point x="800.944" y="494.04" type="curve" smooth="yes"/>
      <point x="800.944" y="178.704"/>
      <point x="734.5600000000001" y="34.6"/>
    </contour>
    <contour>
      <point x="575.872" y="-24.240000000000002" type="curve" smooth="yes"/>
      <point x="872.888" y="-24.240000000000002"/>
      <point x="1109.096" y="195.456"/>
      <point x="1109.096" y="513.968" type="curve" smooth="yes"/>
      <point x="1109.096" y="829.088"/>
      <point x="897.792" y="1048.24"/>
      <point x="594.352" y="1048.24" type="curve" smooth="yes"/>
      <point x="292.184" y="1048.24"/>
      <point x="61.552" y="827.544"/>
      <point x="61.552" y="510.032" type="curve" smooth="yes"/>
      <point x="61.552" y="195.488"/>
      <point x="278.432" y="-24.240000000000002"/>
    </contour>
  </outline>
</glyph>
<glyph name="p" format="2">
	<unicode hex="0070"/>
	<advance width="1243"/>
	<outline>
		<contour>
			<point x="873.904" y="485.816" type="curve" smooth="yes"/>
			<point x="873.904" y="168.224"/>
			<point x="786.496" y="34.36"/>
			<point x="635.44" y="34.36" type="curve" smooth="yes"/>
			<point x="524.968" y="34.36"/>
			<point x="449.464" y="109.704"/>
			<point x="449.464" y="224.592" type="curve" smooth="yes"/>
			<point x="449.464" y="868.68" type="line"/>
			<point x="449.464" y="1054.576" type="line"/>
			<point x="435.712" y="1054.576" type="line"/>
			<point x="27.912" y="943.648" type="line"/>
			<point x="27.912" y="919.288" type="line"/>
			<point x="101.912" y="852.1211348651"/>
			<point x="131.768" y="829.9911688312"/>
			<point x="157.768" y="806.392" type="curve"/>
			<point x="157.768" y="-379.096" type="line"/>
			<point x="38.936" y="-411.216" type="line"/>
			<point x="38.936" y="-440.76" type="line"/>
			<point x="588.296" y="-440.76" type="line"/>
			<point x="588.296" y="-411.216" type="line"/>
			<point x="449.464" y="-379.096" type="line"/>
			<point x="449.464" y="55.064" type="line"/>
			<point x="272.216" y="55.064" type="line"/>
			<point x="375.152" y="-0.512"/>
			<point x="498.488" y="-24.24"/>
			<point x="618.032" y="-24.24" type="curve" smooth="yes"/>
			<point x="942.424" y="-24.24"/>
			<point x="1177.6" y="189.912"/>
			<point x="1177.6" y="572.6" type="curve" smooth="yes"/>
			<point x="1177.6" y="869.232"/>
			<point x="1035.592" y="1048.24"/>
			<point x="782.92" y="1048.24" type="curve" smooth="yes"/>
			<point x="665.288" y="1048.24"/>
			<point x="567.912" y="1004.112"/>
			<point x="386.672" y="814.112" type="curve"/>
			<point x="395.312" y="786.904" type="line"/>
			<point x="460.144" y="850.952"/>
			<point x="533.096" y="879.864"/>
			<point x="622.352" y="879.864" type="curve" smooth="yes"/>
			<point x="796.888" y="879.864"/>
			<point x="873.904" y="763.336"/>
		</contour>
	</outline>
	<anchor name="top" x="605.72" y="1024"/>
	<anchor name="bottom" x="303.616" y="-440.76"/>
</glyph>
<glyph name="q" format="2">
	<unicode hex="0071"/>
	<advance width="1216.392"/>
	<outline>
		<contour>
			<point x="367.248" y="551.328" type="curve" smooth="yes"/>
			<point x="367.248" y="856.624"/>
			<point x="455.504" y="989.64"/>
			<point x="605.712" y="989.64" type="curve" smooth="yes"/>
			<point x="716.184" y="989.64"/>
			<point x="791.688" y="914.296"/>
			<point x="791.688" y="799.408" type="curve" smooth="yes"/>
			<point x="791.688" y="-379.096" type="line"/>
			<point x="652.856" y="-411.216" type="line"/>
			<point x="652.856" y="-440.76" type="line"/>
			<point x="1202.64" y="-440.76" type="line"/>
			<point x="1202.64" y="-411.216" type="line"/>
			<point x="1083.808" y="-379.096" type="line"/>
			<point x="1083.808" y="825.544" type="line"/>
			<point x="1130.168" y="1036.848" type="line"/>
			<point x="1113.32" y="1049.088" type="line"/>
			<point x="887.064" y="960.624" type="line"/>
			<point x="996.072" y="968.512" type="line"/>
			<point x="889.744" y="1024.088"/>
			<point x="763.016" y="1048.24"/>
			<point x="639.656" y="1048.24" type="curve" smooth="yes"/>
			<point x="304.24" y="1048.24"/>
			<point x="63.552" y="835.36"/>
			<point x="63.552" y="462.424" type="curve" smooth="yes"/>
			<point x="63.552" y="170.456"/>
			<point x="228.28" y="-24.24"/>
			<point x="488.584" y="-24.24" type="curve" smooth="yes"/>
			<point x="601.552" y="-24.24"/>
			<point x="695.96" y="18.616"/>
			<point x="854.056" y="211.584" type="curve"/>
			<point x="845.416" y="237.52" type="line"/>
			<point x="779.312" y="166.688"/>
			<point x="701.272" y="144.136"/>
			<point x="623.04" y="144.136" type="curve" smooth="yes"/>
			<point x="445.96" y="144.136"/>
			<point x="367.248" y="268.296"/>
		</contour>
	</outline>
	<anchor name="top" x="611.288" y="1024"/>
	<anchor name="bottom" x="937.96" y="-440.76"/>
</glyph>
<glyph name="r" format="2">
	<unicode hex="0072"/>
	<advance width="917.72"/>
	<outline>
		<contour>
			<point x="796.24" y="1044.12" type="curve" smooth="yes"/>
			<point x="711.856" y="1044.12"/>
			<point x="650.192" y="1017.216"/>
			<point x="433.08" y="777.96" type="curve"/>
			<point x="433.504" y="732.264" type="line"/>
			<point x="480.144" y="778.296"/>
			<point x="521.208" y="801.968"/>
			<point x="580.056" y="801.968" type="curve" smooth="yes"/>
			<point x="651.808" y="801.968"/>
			<point x="691.112" y="774.88"/>
			<point x="763.248" y="774.88" type="curve" smooth="yes"/>
			<point x="844.512" y="774.88"/>
			<point x="908.776" y="841.808"/>
			<point x="908.776" y="928.92" type="curve" smooth="yes"/>
			<point x="908.776" y="998.944"/>
			<point x="865.264" y="1044.12"/>
		</contour>
		<contour>
			<point x="460.344" y="850.248" type="line"/>
			<point x="460.344" y="1054.576" type="line"/>
			<point x="446.592" y="1054.576" type="line"/>
			<point x="38.792" y="943.648" type="line"/>
			<point x="38.792" y="919.288" type="line"/>
			<point x="112.792" y="851.840992008"/>
			<point x="142.648" y="829.6655974026"/>
			<point x="168.648" y="805.968" type="curve"/>
			<point x="168.648" y="61.664" type="line"/>
			<point x="49.816" y="29.544" type="line"/>
			<point x="49.816" y="0" type="line"/>
			<point x="599.176" y="0" type="line"/>
			<point x="599.176" y="29.544" type="line"/>
			<point x="460.344" y="61.664" type="line"/>
		</contour>
	</outline>
	<anchor name="top" x="474.936" y="1024"/>
	<anchor name="bottom" x="314.496" y="0"/>
</glyph>
<glyph name="s" format="2">
	<unicode hex="0073"/>
	<advance width="891.424"/>
	<outline>
		<contour>
			<point x="486.048" y="1048.24" type="curve" smooth="yes"/>
			<point x="262.856" y="1048.24"/>
			<point x="90.8" y="927.344"/>
			<point x="90.8" y="730.688" type="curve" smooth="yes"/>
			<point x="90.8" y="584.12"/>
			<point x="167.032" y="490.512"/>
			<point x="363.152" y="427.264" type="curve" smooth="yes"/>
			<point x="559.272" y="363.592"/>
			<point x="615.544" y="303.952"/>
			<point x="615.544" y="210.16" type="curve" smooth="yes"/>
			<point x="615.544" y="87.184"/>
			<point x="521.536" y="28.12"/>
			<point x="406.568" y="28.12" type="curve" smooth="yes"/>
			<point x="341.024" y="28.12"/>
			<point x="275.088" y="46.272"/>
			<point x="220.968" y="84.696" type="curve"/>
			<point x="278.176" y="28.728" type="line"/>
			<point x="96.488" y="351.608" type="line"/>
			<point x="60.216" y="351.608" type="line"/>
			<point x="115.52" y="32.792" type="line"/>
			<point x="185.704" y="-3.392"/>
			<point x="273.032" y="-24.24"/>
			<point x="395.808" y="-24.24" type="curve" smooth="yes"/>
			<point x="642.36" y="-24.24"/>
			<point x="826.688" y="119.48"/>
			<point x="826.688" y="326.016" type="curve" smooth="yes"/>
			<point x="826.688" y="480.976"/>
			<point x="760.664" y="591.184"/>
			<point x="546.152" y="662.856" type="curve" smooth="yes"/>
			<point x="330.64" y="734.528"/>
			<point x="299.248" y="784.472"/>
			<point x="299.248" y="859.688" type="curve" smooth="yes"/>
			<point x="299.248" y="950.088"/>
			<point x="362.008" y="996.608"/>
			<point x="478.432" y="996.608" type="curve" smooth="yes"/>
			<point x="557.8" y="996.608"/>
			<point x="616.432" y="971.152"/>
			<point x="689.704" y="901.784" type="curve"/>
			<point x="603.224" y="990.088" type="line"/>
			<point x="755.12" y="717.936" type="line"/>
			<point x="786.544" y="717.936" type="line"/>
			<point x="748.76" y="995.328" type="line"/>
			<point x="664.4" y="1030.36"/>
			<point x="591.04" y="1048.24"/>
		</contour>
	</outline>
	<anchor name="top" x="447.56" y="1024"/>
	<anchor name="bottom" x="438.712" y="0"/>
</glyph>
<glyph name="t" format="2">
	<unicode hex="0074"/>
	<advance width="824.76"/>
	<outline>
		<contour>
			<point x="457.848" y="291.256" type="curve" smooth="yes"/>
			<point x="457.848" y="993.512" type="line"/>
			<point x="457.848" y="1225.552" type="line"/>
			<point x="442.488" y="1225.552" type="line"/>
			<point x="277.7523086817" y="1127.552"/>
			<point x="58.7494817245" y="1002.792"/>
			<point x="21.768" y="980.792" type="curve"/>
			<point x="21.768" y="960.008" type="line"/>
			<point x="167" y="852.752" type="line"/>
			<point x="167" y="265.56" type="line" smooth="yes"/>
			<point x="167" y="63.024"/>
			<point x="280.512" y="-24.816"/>
			<point x="438.608" y="-24.816" type="curve" smooth="yes"/>
			<point x="547.536" y="-24.816"/>
			<point x="633.4" y="11.696"/>
			<point x="835.512" y="147.136" type="curve"/>
			<point x="835.512" y="186.16" type="line"/>
			<point x="745.272" y="161.432"/>
			<point x="682.728" y="153.704"/>
			<point x="622.608" y="153.704" type="curve" smooth="yes"/>
			<point x="516.368" y="153.704"/>
			<point x="457.848" y="199.04"/>
		</contour>
		<contour>
			<point x="348.784" y="885.048" type="line"/>
			<point x="783.456" y="885.048" type="line"/>
			<point x="802.424" y="1024" type="line"/>
			<point x="348.784" y="1024" type="line"/>
		</contour>
	</outline>
	<anchor name="bottom" x="475.6" y="0"/>
	<anchor name="right" x="486.656" y="1534.816"/>
</glyph>
<glyph name="u" format="2">
	<unicode hex="0075"/>
	<advance width="1222.96"/>
	<outline>
		<contour>
			<point x="438.376" y="329.84" type="curve" smooth="yes"/>
			<point x="438.376" y="934.944" type="line"/>
			<point x="446.256" y="1034.968" type="line"/>
			<point x="-0.368" y="1011.88" type="line"/>
			<point x="-0.368" y="975.424" type="line"/>
			<point x="146.68" y="925.192" type="line"/>
			<point x="146.68" y="284.256" type="line" smooth="yes"/>
			<point x="146.68" y="81"/>
			<point x="235.5865531915" y="-20"/>
			<point x="418.864" y="-20" type="curve" smooth="yes"/>
			<point x="553.28" y="-20"/>
			<point x="623.376" y="9.88"/>
			<point x="825.32" y="204.04" type="curve"/>
			<point x="816.104" y="227.736" type="line"/>
			<point x="755.8" y="193.824"/>
			<point x="682.664" y="168.12"/>
			<point x="606.072" y="168.12" type="curve" smooth="yes"/>
			<point x="491.112" y="168.12"/>
			<point x="438.376" y="217.888"/>
		</contour>
		<contour>
			<point x="782.672" y="-33.208" type="line"/>
			<point x="797.848" y="-33.208" type="line"/>
			<point x="1212.592" y="33.656" type="line"/>
			<point x="1212.592" y="59.472" type="line"/>
			<point x="1170.592" y="81.2524805212"/>
			<point x="1086.072" y="123.7460111307"/>
			<point x="1062.072" y="136.192" type="curve"/>
			<point x="1062.072" y="933.672" type="line"/>
			<point x="1074.616" y="1034.968" type="line"/>
			<point x="627.568" y="1011.88" type="line"/>
			<point x="627.568" y="975.424" type="line"/>
			<point x="770.376" y="926.464" type="line"/>
			<point x="770.376" y="158.488" type="line"/>
		</contour>
	</outline>
	<anchor name="top" x="583.856" y="1024"/>
	<anchor name="right" x="1114.672" y="0"/>
	<anchor name="bottom" x="589.616" y="0"/>
	<anchor name="horn" x="996.112" y="1022"/>
</glyph>
<glyph name="v" format="2">
	<unicode hex="0076"/>
	<advance width="1187.12"/>
	<outline>
		<contour>
			<point x="1076.656" y="962.848" type="line"/>
			<point x="1185.48" y="991" type="line"/>
			<point x="1185.48" y="1024" type="line"/>
			<point x="868.072" y="1024" type="line"/>
			<point x="868.072" y="991" type="line"/>
			<point x="994.96" y="963.12" type="line"/>
			<point x="695.928" y="161.888" type="line"/>
			<point x="749.256" y="178.848" type="line"/>
			<point x="411.824" y="957.968" type="line"/>
			<point x="539.864" y="991" type="line"/>
			<point x="539.864" y="1024" type="line"/>
			<point x="-27.448" y="1024" type="line"/>
			<point x="-27.448" y="992.272" type="line"/>
			<point x="86.136" y="951.728" type="line"/>
			<point x="536.44" y="-14.976" type="line"/>
			<point x="684.128" y="-14.976" type="line"/>
		</contour>
	</outline>
	<anchor name="top" x="627.248" y="1024"/>
	<anchor name="bottom" x="604.528" y="0"/>
</glyph>
<glyph name="w" format="2">
	<unicode hex="0077"/>
	<advance width="1674.128"/>
	<outline>
		<contour>
			<point x="1480.6" y="963.12" type="line"/>
			<point x="1285.392" y="162.736" type="line"/>
			<point x="1345.416" y="229.304" type="line"/>
			<point x="1006.904" y="1041.28" type="line"/>
			<point x="855.488" y="1041.28" type="line"/>
			<point x="561.176" y="162.312" type="line"/>
			<point x="618.624" y="219.816" type="line"/>
			<point x="405.952" y="957.968" type="line"/>
			<point x="533.992" y="991" type="line"/>
			<point x="533.992" y="1024" type="line"/>
			<point x="-13.752" y="1024" type="line"/>
			<point x="-13.752" y="992.272" type="line"/>
			<point x="99.832" y="951.728" type="line"/>
			<point x="401.048" y="-14.976" type="line"/>
			<point x="548.736" y="-14.976" type="line"/>
			<point x="860.632" y="813.416" type="line"/>
			<point x="795.696" y="798.576" type="line"/>
			<point x="1140.36" y="-14.976" type="line"/>
			<point x="1288.048" y="-14.976" type="line"/>
			<point x="1565.176" y="962.848" type="line"/>
			<point x="1679.76" y="991" type="line"/>
			<point x="1679.76" y="1024" type="line"/>
			<point x="1350.256" y="1024" type="line"/>
			<point x="1350.256" y="991" type="line"/>
		</contour>
	</outline>
	<anchor name="top" x="889.016" y="1024"/>
	<anchor name="bottom" x="859.336" y="0"/>
</glyph>
<glyph name="x" format="2">
	<unicode hex="0078"/>
	<advance width="1169.032"/>
	<outline>
		<contour>
			<point x="1071.04" y="67" type="line"/>
			<point x="686.872" y="610.656" type="line"/>
			<point x="676.632" y="621.352" type="line"/>
			<point x="444.232" y="960.816" type="line"/>
			<point x="561.912" y="991" type="line"/>
			<point x="561.912" y="1024" type="line"/>
			<point x="3.888" y="1024" type="line"/>
			<point x="3.888" y="991" type="line"/>
			<point x="123.84" y="951" type="line"/>
			<point x="476.768" y="447.04" type="line"/>
			<point x="488.584" y="433.768" type="line"/>
			<point x="746.224" y="61.76" type="line"/>
			<point x="622.544" y="32.576" type="line"/>
			<point x="622.544" y="0" type="line"/>
			<point x="1189.568" y="0" type="line"/>
			<point x="1189.568" y="32.576" type="line"/>
		</contour>
		<contour>
			<point x="542.92" y="477.68" type="line"/>
			<point x="617.976" y="495.912" type="line"/>
			<point x="1007.184" y="960.88" type="line"/>
			<point x="1132.304" y="991" type="line"/>
			<point x="1132.304" y="1024" type="line"/>
			<point x="790.368" y="1024" type="line"/>
			<point x="790.368" y="991" type="line"/>
			<point x="919.976" y="962.576" type="line"/>
			<point x="603.184" y="562.448" type="line"/>
			<point x="528.704" y="544.216" type="line"/>
			<point x="127.976" y="63.12" type="line"/>
			<point x="-2.904" y="33" type="line"/>
			<point x="-2.904" y="0" type="line"/>
			<point x="340.76" y="0" type="line"/>
			<point x="340.76" y="33" type="line"/>
			<point x="216.912" y="61.424" type="line"/>
		</contour>
	</outline>
	<anchor name="top" x="612.16" y="1024"/>
	<anchor name="bottom" x="585.2" y="0"/>
</glyph>
<glyph name="y" format="2">
	<unicode hex="0079"/>
	<advance width="1164.696"/>
	<outline>
		<contour>
			<point x="762.32" y="254.208" type="line"/>
			<point x="415.704" y="957.968" type="line"/>
			<point x="543.744" y="991" type="line"/>
			<point x="543.744" y="1024" type="line"/>
			<point x="-22.992" y="1024" type="line"/>
			<point x="-22.992" y="992.272" type="line"/>
			<point x="90.592" y="951.728" type="line"/>
			<point x="617.344" y="-70.944" type="line"/>
		</contour>
		<contour>
			<point x="284.824" y="-460.76" type="curve" smooth="yes"/>
			<point x="436.088" y="-460.76"/>
			<point x="538.6" y="-374.888"/>
			<point x="646.528" y="-99.032" type="curve" smooth="yes"/>
			<point x="1057.288" y="962.848" type="line"/>
			<point x="1171.872" y="991" type="line"/>
			<point x="1171.872" y="1024" type="line"/>
			<point x="845.064" y="1024" type="line"/>
			<point x="845.064" y="991" type="line"/>
			<point x="975.408" y="963.12" type="line"/>
			<point x="712.928" y="212.128" type="line"/>
			<point x="629.8" y="15.696" type="line"/>
			<point x="569.424" y="-119.52" type="line" smooth="yes"/>
			<point x="518.176" y="-231.024"/>
			<point x="461.936" y="-258.48"/>
			<point x="356.4" y="-258.48" type="curve" smooth="yes"/>
			<point x="269.344" y="-258.48"/>
			<point x="210.744" y="-213.448"/>
			<point x="191.648" y="-213.448" type="curve" smooth="yes"/>
			<point x="162.224" y="-213.448"/>
			<point x="122.832" y="-251.472"/>
			<point x="122.832" y="-315.256" type="curve" smooth="yes"/>
			<point x="122.832" y="-409.976"/>
			<point x="191.344" y="-460.76"/>
		</contour>
	</outline>
	<anchor name="top" x="622.92" y="1024"/>
	<anchor name="bottom" x="824.496" y="-116.528"/>
</glyph>
<glyph name="z" format="2">
	<unicode hex="007A"/>
	<advance width="1016.352"/>
	<outline>
		<contour>
			<point x="56.672" y="0" type="line"/>
			<point x="894.744" y="0" type="line"/>
			<point x="997.8" y="402.624" type="line"/>
			<point x="960.408" y="402.624" type="line"/>
			<point x="750.368" y="22.152" type="line"/>
			<point x="845.776" y="70.304" type="line"/>
			<point x="212.576" y="54.176" type="line"/>
			<point x="343.376" y="7.336" type="line"/>
			<point x="941.352" y="994.552" type="line"/>
			<point x="941.352" y="1024" type="line"/>
			<point x="215.056" y="1024" type="line"/>
			<point x="129.368" y="1098.24" type="line"/>
			<point x="114.064" y="1098.24" type="line"/>
			<point x="48.128" y="667.064" type="line"/>
			<point x="83.944" y="667.064" type="line"/>
			<point x="232.264" y="992.728" type="line"/>
			<point x="131.984" y="956.576" type="line"/>
			<point x="748.312" y="967.52" type="line"/>
			<point x="648.016" y="1006.944" type="line"/>
			<point x="56.672" y="29.6" type="line"/>
		</contour>
	</outline>
	<anchor name="top" x="537.28" y="1024"/>
	<anchor name="bottom" x="513.04" y="0"/>
</glyph>
<glyph name="braceleft" format="2">
	<unicode hex="007B"/>
	<advance width="590.784"/>
	<outline>
		<contour>
			<point x="39.912" y="608.056" type="line"/>
			<point x="102.768" y="602.632" type="line" smooth="yes"/>
			<point x="209.432" y="591.24"/>
			<point x="237.768" y="548.96"/>
			<point x="237.768" y="471.776" type="curve" smooth="yes"/>
			<point x="237.768" y="322.408"/>
			<point x="155.984" y="182.264"/>
			<point x="155.984" y="61.536" type="curve" smooth="yes"/>
			<point x="155.984" y="-86.008"/>
			<point x="256.704" y="-211.432"/>
			<point x="456.544" y="-230.16" type="curve" smooth="yes"/>
			<point x="546.6" y="-238.16" type="line"/>
			<point x="553.024" y="-207.616" type="line"/>
			<point x="494.72" y="-198.616" type="line" smooth="yes"/>
			<point x="383.264" y="-182.192"/>
			<point x="344.08" y="-99.496"/>
			<point x="344.08" y="10.416" type="curve" smooth="yes"/>
			<point x="344.08" y="124.568"/>
			<point x="388.808" y="249.296"/>
			<point x="388.808" y="396.448" type="curve" smooth="yes"/>
			<point x="388.808" y="515.448"/>
			<point x="312.632" y="608.936"/>
			<point x="170.512" y="633.056" type="curve"/>
			<point x="170.512" y="617.6" type="line"/>
			<point x="312.632" y="641.144"/>
			<point x="388.808" y="735.208"/>
			<point x="388.808" y="854.632" type="curve" smooth="yes"/>
			<point x="388.808" y="1001.36"/>
			<point x="344.08" y="1126.088"/>
			<point x="344.08" y="1240.24" type="curve" smooth="yes"/>
			<point x="344.08" y="1349.576"/>
			<point x="383.264" y="1432.272"/>
			<point x="494.72" y="1449.272" type="curve" smooth="yes"/>
			<point x="553.024" y="1458.272" type="line"/>
			<point x="546.6" y="1488.24" type="line"/>
			<point x="456.544" y="1480.24" type="line" smooth="yes"/>
			<point x="256.704" y="1462.664"/>
			<point x="155.984" y="1336.088"/>
			<point x="155.984" y="1188.544" type="curve" smooth="yes"/>
			<point x="155.984" y="1068.392"/>
			<point x="237.768" y="928.672"/>
			<point x="237.768" y="778.304" type="curve" smooth="yes"/>
			<point x="237.768" y="701.12"/>
			<point x="209.432" y="659.416"/>
			<point x="102.768" y="648.448" type="curve" smooth="yes"/>
			<point x="39.912" y="642.6" type="line"/>
		</contour>
	</outline>
</glyph>
<glyph name="bar" format="2">
  <advance width="428.56"/>
  <unicode hex="007C"/>
  <outline>
    <contour>
      <point x="174.888" y="-465.0" type="line"/>
      <point x="253.672" y="-465.0" type="line"/>
      <point x="253.672" y="1535.0" type="line"/>
      <point x="174.888" y="1535.0" type="line"/>
    </contour>
  </outline>
</glyph>
<glyph name="braceright" format="2">
	<unicode hex="007D"/>
	<advance width="590.632"/>
	<outline>
		<contour>
			<point x="551.296" y="643.6" type="line"/>
			<point x="488.44" y="649.024" type="line" smooth="yes"/>
			<point x="381.776" y="659.992"/>
			<point x="353.44" y="702.696"/>
			<point x="353.44" y="779.456" type="curve" smooth="yes"/>
			<point x="353.44" y="929.248"/>
			<point x="435.224" y="1068.968"/>
			<point x="435.224" y="1189.696" type="curve" smooth="yes"/>
			<point x="435.224" y="1337.24"/>
			<point x="334.504" y="1462.664"/>
			<point x="134.664" y="1481.392" type="curve" smooth="yes"/>
			<point x="44.608" y="1489.392" type="line"/>
			<point x="38.184" y="1458.848" type="line"/>
			<point x="96.488" y="1449.848" type="line" smooth="yes"/>
			<point x="207.944" y="1433.424"/>
			<point x="247.128" y="1350.728"/>
			<point x="247.128" y="1240.816" type="curve" smooth="yes"/>
			<point x="247.128" y="1126.664"/>
			<point x="202.4" y="1002.36"/>
			<point x="202.4" y="855.208" type="curve" smooth="yes"/>
			<point x="202.4" y="736.208"/>
			<point x="278.576" y="642.72"/>
			<point x="420.696" y="618.176" type="curve"/>
			<point x="420.696" y="634.056" type="line"/>
			<point x="278.576" y="610.088"/>
			<point x="202.4" y="516.024"/>
			<point x="202.4" y="397.024" type="curve" smooth="yes"/>
			<point x="202.4" y="249.872"/>
			<point x="247.128" y="125.568"/>
			<point x="247.128" y="11.416" type="curve" smooth="yes"/>
			<point x="247.128" y="-97.92"/>
			<point x="207.944" y="-180.616"/>
			<point x="96.488" y="-197.616" type="curve" smooth="yes"/>
			<point x="38.184" y="-206.616" type="line"/>
			<point x="44.608" y="-236.584" type="line"/>
			<point x="134.664" y="-228.584" type="line" smooth="yes"/>
			<point x="334.504" y="-211.008"/>
			<point x="435.224" y="-84.432"/>
			<point x="435.224" y="63.112" type="curve" smooth="yes"/>
			<point x="435.224" y="183.264"/>
			<point x="353.44" y="322.984"/>
			<point x="353.44" y="473.352" type="curve" smooth="yes"/>
			<point x="353.44" y="550.112"/>
			<point x="381.776" y="592.24"/>
			<point x="488.44" y="603.208" type="curve" smooth="yes"/>
			<point x="551.296" y="608.632" type="line"/>
		</contour>
	</outline>
</glyph>
<glyph name="asciitilde" format="2">
	<unicode hex="007E"/>
	<advance width="1150"/>
	<outline>
		<contour>
			<point x="162" y="396" type="curve"/>
			<point x="243.992" y="396" type="line"/>
			<point x="254.024" y="504.368"/>
			<point x="291.056" y="556.552"/>
			<point x="390.544" y="556.552" type="curve" smooth="yes"/>
			<point x="528.336" y="556.552"/>
			<point x="584" y="388"/>
			<point x="761" y="388" type="curve" smooth="yes"/>
			<point x="876.544" y="388"/>
			<point x="982.544" y="440"/>
			<point x="988" y="628" type="curve"/>
			<point x="906.008" y="628" type="line"/>
			<point x="895.976" y="519.632"/>
			<point x="858.944" y="467.448"/>
			<point x="759.456" y="467.448" type="curve" smooth="yes"/>
			<point x="621.664" y="467.448"/>
			<point x="566" y="636"/>
			<point x="389" y="636" type="curve" smooth="yes"/>
			<point x="273.456" y="636"/>
			<point x="167.456" y="584"/>
		</contour>
	</outline>
</glyph>
<glyph name="exclamdown" format="2">
	<unicode hex="00A1"/>
	<advance width="539.6"/>
	<outline>
		<contour>
			<point x="81.192" y="-278.448" type="line" smooth="yes"/>
			<point x="81.192" y="-376.16"/>
			<point x="175.208" y="-429.392"/>
			<point x="269.224" y="-429.392" type="curve" smooth="yes"/>
			<point x="363.24" y="-429.392"/>
			<point x="457.832" y="-376.16"/>
			<point x="457.832" y="-278.448" type="curve" smooth="yes"/>
			<point x="457.832" y="-254.992" type="line" smooth="yes"/>
			<point x="457.832" y="-176.608"/>
			<point x="351.152" y="50.768"/>
			<point x="288.92" y="523.688" type="curve"/>
			<point x="251.256" y="523.688" type="line"/>
			<point x="189.024" y="50.768"/>
			<point x="81.192" y="-177.184"/>
			<point x="81.192" y="-254.992" type="curve" smooth="yes"/>
		</contour>
		<contour>
			<point x="269.224" y="707.76" type="curve" smooth="yes"/>
			<point x="370.304" y="707.76"/>
			<point x="442.024" y="781.48"/>
			<point x="442.024" y="876.864" type="curve" smooth="yes"/>
			<point x="442.024" y="972.248"/>
			<point x="370.304" y="1045.968"/>
			<point x="269.224" y="1045.968" type="curve" smooth="yes"/>
			<point x="168.144" y="1045.968"/>
			<point x="96.424" y="972.248"/>
			<point x="96.424" y="876.864" type="curve" smooth="yes"/>
			<point x="96.424" y="781.48"/>
			<point x="168.144" y="707.76"/>
		</contour>
	</outline>
</glyph>
<glyph name="currency" format="2">
	<unicode hex="00A4"/>
	<advance width="932.192"/>
	<outline>
		<contour>
			<point x="168.76" y="865.24" type="line"/>
			<point x="112.856" y="809.336" type="line"/>
			<point x="232.768" y="689.424" type="line"/>
			<point x="288.672" y="745.328" type="line"/>
		</contour>
		<contour>
			<point x="112.856" y="214.664" type="line"/>
			<point x="168.76" y="158.76" type="line"/>
			<point x="286.976" y="276.976" type="line"/>
			<point x="231.072" y="332.88" type="line"/>
		</contour>
		<contour>
			<point x="466.096" y="812.664" type="curve" smooth="yes"/>
			<point x="290.552" y="812.664"/>
			<point x="164.432" y="687.544"/>
			<point x="164.432" y="512" type="curve" smooth="yes"/>
			<point x="164.432" y="336.456"/>
			<point x="290.552" y="211.336"/>
			<point x="466.096" y="211.336" type="curve" smooth="yes"/>
			<point x="641.64" y="211.336"/>
			<point x="767.76" y="336.456"/>
			<point x="767.76" y="512" type="curve" smooth="yes"/>
			<point x="767.76" y="687.544"/>
			<point x="641.64" y="812.664"/>
		</contour>
		<contour>
			<point x="466.096" y="286.36" type="curve" smooth="yes"/>
			<point x="336.912" y="286.36"/>
			<point x="243.88" y="376.816"/>
			<point x="243.88" y="512" type="curve" smooth="yes"/>
			<point x="243.88" y="647.184"/>
			<point x="336.912" y="737.64"/>
			<point x="466.096" y="737.64" type="curve" smooth="yes"/>
			<point x="595.28" y="737.64"/>
			<point x="688.312" y="647.184"/>
			<point x="688.312" y="512" type="curve" smooth="yes"/>
			<point x="688.312" y="376.816"/>
			<point x="595.28" y="286.36"/>
		</contour>
		<contour>
			<point x="819.336" y="809.336" type="line"/>
			<point x="763.432" y="865.24" type="line"/>
			<point x="643.52" y="745.328" type="line"/>
			<point x="699.424" y="689.424" type="line"/>
		</contour>
		<contour>
			<point x="819.336" y="214.664" type="line"/>
			<point x="701.12" y="332.88" type="line"/>
			<point x="645.216" y="276.976" type="line"/>
			<point x="763.432" y="158.76" type="line"/>
		</contour>
	</outline>
</glyph>
<glyph name="brokenbar" format="2">
	<unicode hex="00A6"/>
	<advance width="428.56"/>
	<outline>
		<contour>
			<point x="253.672" y="725" type="line"/>
			<point x="253.672" y="1535" type="line"/>
			<point x="174.888" y="1535" type="line"/>
			<point x="174.888" y="725" type="line"/>
		</contour>
		<contour>
			<point x="174.888" y="-465" type="line"/>
			<point x="253.672" y="-465" type="line"/>
			<point x="253.672" y="345" type="line"/>
			<point x="174.888" y="345" type="line"/>
		</contour>
	</outline>
</glyph>
<glyph name="section" format="2">
	<unicode hex="00A7"/>
	<advance width="1222.048"/>
	<outline>
		<contour>
			<point x="521.192" y="-218" type="curve" smooth="yes"/>
			<point x="851.928" y="-218"/>
			<point x="1017.2" y="-60.672"/>
			<point x="1017.2" y="146.656" type="curve" smooth="yes"/>
			<point x="1017.2" y="544.688"/>
			<point x="281.184" y="431.224"/>
			<point x="281.184" y="713.36" type="curve" smooth="yes"/>
			<point x="281.184" y="793.488"/>
			<point x="327.432" y="857.192"/>
			<point x="401.992" y="884.376" type="curve"/>
			<point x="376.872" y="904.344" type="line"/>
			<point x="184.632" y="849.344"/>
			<point x="84.152" y="736.104"/>
			<point x="84.152" y="582.776" type="curve" smooth="yes"/>
			<point x="84.152" y="151.176"/>
			<point x="802.112" y="281.512"/>
			<point x="802.112" y="13.768" type="curve" smooth="yes"/>
			<point x="802.112" y="-85.336"/>
			<point x="728.312" y="-157.584"/>
			<point x="586.912" y="-157.584" type="curve" smooth="yes"/>
			<point x="416.872" y="-157.584"/>
			<point x="324.224" y="51.376"/>
			<point x="284.344" y="51.376" type="curve" smooth="yes"/>
			<point x="212.984" y="51.376"/>
			<point x="171.624" y="6.984"/>
			<point x="171.624" y="-58.496" type="curve" smooth="yes"/>
			<point x="171.624" y="-155.736"/>
			<point x="279.2" y="-218"/>
		</contour>
		<contour>
			<point x="939.712" y="546.496" type="curve" smooth="yes"/>
			<point x="939.712" y="464.64"/>
			<point x="888.856" y="396.904"/>
			<point x="811.416" y="374.328" type="curve"/>
			<point x="836.536" y="352.632" type="line"/>
			<point x="1027.048" y="400.72"/>
			<point x="1135.592" y="523.752"/>
			<point x="1135.592" y="678.808" type="curve" smooth="yes"/>
			<point x="1135.592" y="1114.528"/>
			<point x="421.088" y="972.648"/>
			<point x="421.088" y="1238.024" type="curve" smooth="yes"/>
			<point x="421.088" y="1324.456"/>
			<point x="479.336" y="1394.4"/>
			<point x="622.464" y="1394.4" type="curve" smooth="yes"/>
			<point x="793.656" y="1394.4"/>
			<point x="885.728" y="1184.288"/>
			<point x="923.88" y="1184.288" type="curve" smooth="yes"/>
			<point x="991.208" y="1184.288"/>
			<point x="1033.144" y="1226.952"/>
			<point x="1033.144" y="1290.704" type="curve" smooth="yes"/>
			<point x="1033.144" y="1382.184"/>
			<point x="931.328" y="1454.24"/>
			<point x="688.76" y="1454.24" type="curve" smooth="yes"/>
			<point x="362.632" y="1454.24"/>
			<point x="204.848" y="1304.4"/>
			<point x="204.848" y="1103.984" type="curve" smooth="yes"/>
			<point x="204.848" y="717.592"/>
			<point x="939.712" y="827.208"/>
		</contour>
	</outline>
</glyph>
<glyph name="copyright" format="2">
  <advance width="1713.368"/>
  <unicode hex="00A9"/>
  <outline>
    <contour>
      <point x="855.184" y="1454.24" type="curve" smooth="yes"/>
      <point x="419.48800000000006" y="1454.24"/>
      <point x="107.64" y="1147.9207351351351"/>
      <point x="107.64" y="714.0" type="curve" smooth="yes"/>
      <point x="107.64" y="281.0798048780488"/>
      <point x="419.48800000000006" y="-24.240000000000002"/>
      <point x="855.184" y="-24.240000000000002" type="curve" smooth="yes"/>
      <point x="1292.4560000000001" y="-24.240000000000002"/>
      <point x="1605.7279999999998" y="281.0798048780488"/>
      <point x="1605.7279999999998" y="714.0" type="curve" smooth="yes"/>
      <point x="1605.7279999999998" y="1147.9207351351351"/>
      <point x="1292.4560000000001" y="1454.24"/>
    </contour>
    <contour>
      <point x="855.184" y="1398.032" type="curve" smooth="yes"/>
      <point x="1247.64" y="1398.032"/>
      <point x="1535.672" y="1116.1022749638205"/>
      <point x="1535.672" y="714.0" type="curve" smooth="yes"/>
      <point x="1535.672" y="312.896347826087"/>
      <point x="1247.64" y="30.968"/>
      <point x="855.184" y="30.968" type="curve" smooth="yes"/>
      <point x="463.728" y="30.968"/>
      <point x="177.27200000000002" y="312.896347826087"/>
      <point x="177.27200000000002" y="714.0" type="curve" smooth="yes"/>
      <point x="177.27200000000002" y="1116.1022749638205"/>
      <point x="463.728" y="1398.032"/>
    </contour>
    <contour>
      <point x="977.72" y="317.904" type="curve"/>
      <point x="819.04" y="317.904"/>
      <point x="693.424" y="484.144"/>
      <point x="693.424" y="765.512" type="curve" smooth="yes"/>
      <point x="693.424" y="1015.24"/>
      <point x="787.616" y="1115.7920000000001"/>
      <point x="917.6" y="1115.7920000000001" type="curve" smooth="yes"/>
      <point x="982.272" y="1115.7920000000001"/>
      <point x="1041.6399999999999" y="1091.216"/>
      <point x="1098.464" y="1045.4560000000001" type="curve"/>
      <point x="1041.04" y="1103.184" type="line"/>
      <point x="1202.848" y="851.76" type="line"/>
      <point x="1223.1200000000001" y="855.76" type="line"/>
      <point x="1172.3600000000001" y="1197.664" type="line"/>
      <point x="1163.36" y="1197.664" type="line"/>
      <point x="1066.312" y="1128.544" type="line"/>
      <point x="1135.368" y="1137.9360000000001" type="line"/>
      <point x="1062.944" y="1159.1200000000001"/>
      <point x="1008.576" y="1171.272"/>
      <point x="936.272" y="1171.272" type="curve" smooth="yes"/>
      <point x="628.976" y="1171.272"/>
      <point x="429.70399999999995" y="990.12"/>
      <point x="429.70399999999995" y="724.1199999999999" type="curve" smooth="yes"/>
      <point x="429.70399999999995" y="424.88"/>
      <point x="631.008" y="266.728"/>
      <point x="933.152" y="266.728" type="curve" smooth="yes"/>
      <point x="1033.392" y="266.728"/>
      <point x="1107.456" y="279.18399999999997"/>
      <point x="1187.392" y="302.488" type="curve"/>
      <point x="1247.784" y="537.9040000000001" type="line"/>
      <point x="1225.664" y="537.9040000000001" type="line"/>
      <point x="1066.704" y="317.968" type="line"/>
      <point x="1125.9759999999999" y="363.512" type="line"/>
      <point x="1080.488" y="333.208"/>
      <point x="1031.088" y="317.904"/>
    </contour>
  </outline>
</glyph>
<glyph name="ordfeminine" format="2">
  <advance width="923.1999999999999"/>
  <unicode hex="00AA"/>
  <outline>
    <contour>
      <point x="126.09599999999999" y="565.76" type="line"/>
      <point x="807.1039999999999" y="565.76" type="line"/>
      <point x="807.1039999999999" y="633.24" type="line"/>
      <point x="126.09599999999999" y="633.24" type="line"/>
    </contour>
    <contour>
      <point x="520.648" y="1170.128" type="curve"/>
      <point x="524.3439999999999" y="1208.0639999999999" type="line"/>
      <point x="170.008" y="1110.7279999999998"/>
      <point x="125.73599999999999" y="1055.456"/>
      <point x="125.73599999999999" y="954.0319999999999" type="curve" smooth="yes"/>
      <point x="125.73599999999999" y="851.728"/>
      <point x="193.312" y="787.184"/>
      <point x="318.55199999999996" y="787.184" type="curve" smooth="yes"/>
      <point x="418.4" y="787.184"/>
      <point x="484.7947143688814" y="841.3016132412599"/>
      <point x="514.192" y="970.152" type="curve"/>
      <point x="501.344" y="976.272" type="line"/>
      <point x="501.40213563284897" y="833.0459223913468"/>
      <point x="542.704" y="785.76"/>
      <point x="646.424" y="785.76" type="curve" smooth="yes"/>
      <point x="720.9920000000001" y="785.76"/>
      <point x="771.776" y="806.6080000000001"/>
      <point x="831.952" y="851.968" type="curve"/>
      <point x="831.952" y="883.48" type="line"/>
      <point x="807.768" y="872.4480000000001"/>
      <point x="790.9200000000001" y="869.448"/>
      <point x="769.464" y="869.448" type="curve" smooth="yes"/>
      <point x="741.8879999999999" y="869.448"/>
      <point x="723.856" y="882.6"/>
      <point x="723.856" y="920.544" type="curve" smooth="yes"/>
      <point x="723.856" y="1248.184" type="line" smooth="yes"/>
      <point x="723.856" y="1374.6960000000001"/>
      <point x="659.8" y="1454.24"/>
      <point x="472.50399999999996" y="1454.24" type="curve" smooth="yes"/>
      <point x="308.792" y="1454.24"/>
      <point x="130.856" y="1362.488"/>
      <point x="130.856" y="1291.4" type="curve" smooth="yes"/>
      <point x="130.856" y="1269.856"/>
      <point x="148.82399999999998" y="1253.584"/>
      <point x="194.30399999999997" y="1253.584" type="curve" smooth="yes"/>
      <point x="227.664" y="1253.584"/>
      <point x="256.904" y="1266.128"/>
      <point x="270.59999999999997" y="1283.672" type="curve" smooth="yes"/>
      <point x="285.296" y="1301.792"/>
      <point x="292.72" y="1328.64"/>
      <point x="304.84" y="1416.904" type="curve"/>
      <point x="273.504" y="1373.848" type="line"/>
      <point x="309.904" y="1384.336"/>
      <point x="345.968" y="1389.2160000000001"/>
      <point x="391.304" y="1389.2160000000001" type="curve" smooth="yes"/>
      <point x="467.73600000000005" y="1389.2160000000001"/>
      <point x="499.91999999999996" y="1343.728"/>
      <point x="499.91999999999996" y="1272.7520000000002" type="curve" smooth="yes"/>
      <point x="499.91999999999996" y="1001.2719999999999" type="line" smooth="yes"/>
      <point x="499.91999999999996" y="932.992"/>
      <point x="462.304" y="901.864"/>
      <point x="415.536" y="901.864" type="curve" smooth="yes"/>
      <point x="368.68" y="901.864"/>
      <point x="340.00800000000004" y="933.9617582417583"/>
      <point x="340.00800000000004" y="1000.72" type="curve" smooth="yes"/>
      <point x="340.00800000000004" y="1073.5090410958903"/>
      <point x="358.0735366991788" y="1115.354576262192"/>
    </contour>
  </outline>
</glyph>
<glyph name="guillemotleft" format="2">
	<unicode hex="00AB"/>
	<advance width="924.264"/>
	<outline>
		<contour>
			<point x="232.592" y="611.84" type="line"/>
			<point x="232.592" y="432.16" type="line"/>
			<point x="482.544" y="949.024" type="line"/>
			<point x="462.848" y="963.296" type="line"/>
			<point x="42.888" y="530.272" type="line"/>
			<point x="42.888" y="513.728" type="line"/>
			<point x="462.848" y="80.704" type="line"/>
			<point x="482.544" y="94.976" type="line"/>
		</contour>
		<contour>
			<point x="603.216" y="611.84" type="line"/>
			<point x="603.216" y="432.16" type="line"/>
			<point x="852.592" y="949.024" type="line"/>
			<point x="833.472" y="963.296" type="line"/>
			<point x="412.936" y="530.272" type="line"/>
			<point x="412.936" y="513.728" type="line"/>
			<point x="833.472" y="80.704" type="line"/>
			<point x="852.592" y="94.976" type="line"/>
		</contour>
	</outline>
</glyph>
<glyph name="logicalnot" format="2">
  <advance width="1150.0"/>
  <unicode hex="00AC"/>
  <outline>
    <contour>
      <point x="160.032" y="747.936" type="line"/>
      <point x="160.032" y="668.216" type="line"/>
      <point x="982.032" y="668.216" type="line"/>
      <point x="982.032" y="747.936" type="line"/>
    </contour>
    <contour>
      <point x="982.032" y="704.0" type="line"/>
      <point x="902.3119999999999" y="704.0" type="line"/>
      <point x="902.3119999999999" y="268.0" type="line"/>
      <point x="982.032" y="268.0" type="line"/>
    </contour>
  </outline>
</glyph>
<glyph name="registered" format="2">
	<unicode hex="00AE"/>
	<advance width="1071.856"/>
	<outline>
		<contour>
			<point x="533.64" y="1454.24" type="curve" smooth="yes"/>
			<point x="283.64" y="1454.24"/>
			<point x="104.64" y="1277.24"/>
			<point x="104.64" y="1028.24" type="curve" smooth="yes"/>
			<point x="104.64" y="780.24"/>
			<point x="283.64" y="600.24"/>
			<point x="533.64" y="600.24" type="curve" smooth="yes"/>
			<point x="785.64" y="600.24"/>
			<point x="967.64" y="780.24"/>
			<point x="967.64" y="1028.24" type="curve" smooth="yes"/>
			<point x="967.64" y="1277.24"/>
			<point x="785.64" y="1454.24"/>
		</contour>
		<contour>
			<point x="533.64" y="1404.424" type="curve" smooth="yes"/>
			<point x="752.52" y="1404.424"/>
			<point x="910.824" y="1251.12"/>
			<point x="910.824" y="1028.24" type="curve" smooth="yes"/>
			<point x="910.824" y="807.36"/>
			<point x="752.52" y="651.056"/>
			<point x="533.64" y="651.056" type="curve" smooth="yes"/>
			<point x="316.76" y="651.056"/>
			<point x="161.456" y="807.36"/>
			<point x="161.456" y="1028.24" type="curve" smooth="yes"/>
			<point x="161.456" y="1251.12"/>
			<point x="316.76" y="1404.424"/>
		</contour>
		<contour>
			<point x="452.576" y="1057.512" type="line"/>
			<point x="452.576" y="1023.696" type="line"/>
			<point x="536.824" y="1023.696" type="line" smooth="yes"/>
			<point x="573.368" y="1023.696"/>
			<point x="586.52" y="1012"/>
			<point x="595.856" y="978.512" type="curve" smooth="yes"/>
			<point x="614.376" y="902.448" type="line" smooth="yes"/>
			<point x="632.016" y="823.24"/>
			<point x="652.92" y="810.272"/>
			<point x="777.456" y="821.664" type="curve"/>
			<point x="777.456" y="846.904" type="line"/>
			<point x="751" y="846.904"/>
			<point x="737.88" y="852.752"/>
			<point x="728.272" y="889.48" type="curve" smooth="yes"/>
			<point x="708.176" y="962" type="line" smooth="yes"/>
			<point x="694.992" y="1019.272"/>
			<point x="665.752" y="1041.816"/>
			<point x="601.936" y="1044.664" type="curve"/>
			<point x="601.936" y="1043.664" type="line"/>
			<point x="684.328" y="1046.392"/>
			<point x="728.176" y="1091.664"/>
			<point x="728.176" y="1148.088" type="curve" smooth="yes"/>
			<point x="728.176" y="1204.664"/>
			<point x="690.6" y="1248.24"/>
			<point x="580.48" y="1248.24" type="curve" smooth="yes"/>
			<point x="452.576" y="1248.24" type="line"/>
			<point x="452.576" y="1214" type="line"/>
			<point x="532.752" y="1214" type="line" smooth="yes"/>
			<point x="594.216" y="1214"/>
			<point x="620.4" y="1191.12"/>
			<point x="620.4" y="1139.968" type="curve" smooth="yes"/>
			<point x="620.4" y="1085.512"/>
			<point x="592.488" y="1057.512"/>
			<point x="539.88" y="1057.512" type="curve" smooth="yes"/>
		</contour>
		<contour>
			<point x="386.04" y="1215.848" type="line"/>
			<point x="386.04" y="856.056" type="line"/>
			<point x="328.432" y="840.208" type="line"/>
			<point x="328.432" y="822.24" type="line"/>
			<point x="554.12" y="822.24" type="line"/>
			<point x="554.12" y="840.208" type="line"/>
			<point x="496.936" y="856.056" type="line"/>
			<point x="496.936" y="1248.24" type="line"/>
			<point x="328.432" y="1248.24" type="line"/>
			<point x="328.432" y="1230.272" type="line"/>
		</contour>
	</outline>
</glyph>
<glyph name="degree" format="2">
	<unicode hex="00B0"/>
	<advance width="733.312"/>
	<outline>
		<contour>
			<point x="366.368" y="1446.544" type="curve" smooth="yes"/>
			<point x="192.672" y="1446.544"/>
			<point x="67.824" y="1324.272"/>
			<point x="67.824" y="1150" type="curve" smooth="yes"/>
			<point x="67.824" y="975.728"/>
			<point x="192.672" y="853.456"/>
			<point x="366.368" y="853.456" type="curve" smooth="yes"/>
			<point x="540.64" y="853.456"/>
			<point x="665.488" y="975.728"/>
			<point x="665.488" y="1150" type="curve" smooth="yes"/>
			<point x="665.488" y="1324.272"/>
			<point x="540.64" y="1446.544"/>
		</contour>
		<contour>
			<point x="366.368" y="924.328" type="curve" smooth="yes"/>
			<point x="237.456" y="924.328"/>
			<point x="144.272" y="1014.512"/>
			<point x="144.272" y="1150" type="curve" smooth="yes"/>
			<point x="144.272" y="1285.488"/>
			<point x="237.456" y="1375.672"/>
			<point x="366.368" y="1375.672" type="curve" smooth="yes"/>
			<point x="495.856" y="1375.672"/>
			<point x="588.464" y="1285.488"/>
			<point x="588.464" y="1150" type="curve" smooth="yes"/>
			<point x="588.464" y="1014.512"/>
			<point x="495.856" y="924.328"/>
		</contour>
	</outline>
</glyph>
<glyph name="plusminus" format="2">
	<unicode hex="00B1"/>
	<advance width="1150"/>
	<outline>
		<contour>
			<point x="535.64" y="1024" type="line"/>
			<point x="535.64" y="202" type="line"/>
			<point x="614.36" y="202" type="line"/>
			<point x="614.36" y="1024" type="line"/>
		</contour>
		<contour>
			<point x="164" y="652.36" type="line"/>
			<point x="164" y="573.64" type="line"/>
			<point x="986" y="573.64" type="line"/>
			<point x="986" y="652.36" type="line"/>
		</contour>
		<contour>
			<point x="164" y="78.72" type="line"/>
			<point x="164" y="0" type="line"/>
			<point x="986" y="0" type="line"/>
			<point x="986" y="78.72" type="line"/>
		</contour>
	</outline>
</glyph>
<glyph name="uni00B3" format="2">
	<unicode hex="00B3"/>
	<advance width="675.864"/>
	<outline>
		<contour>
			<point x="226.056" y="645.456" type="curve" smooth="yes"/>
			<point x="461.744" y="645.456"/>
			<point x="624.04" y="757.488"/>
			<point x="624.04" y="922.576" type="curve" smooth="yes"/>
			<point x="624.04" y="1039.488"/>
			<point x="543.28" y="1122.304"/>
			<point x="363.744" y="1105" type="curve"/>
			<point x="361.048" y="1097.544" type="line"/>
			<point x="503.344" y="1129.336"/>
			<point x="557.648" y="1203.848"/>
			<point x="557.648" y="1282.576" type="curve" smooth="yes"/>
			<point x="557.648" y="1374.576"/>
			<point x="497.528" y="1446.544"/>
			<point x="358.472" y="1446.544" type="curve" smooth="yes"/>
			<point x="195.544" y="1446.544"/>
			<point x="102.304" y="1354.488"/>
			<point x="62.64" y="1210.704" type="curve"/>
			<point x="99.424" y="1198.312" type="line"/>
			<point x="125.576" y="1274.984"/>
			<point x="178.488" y="1319.256"/>
			<point x="265.184" y="1319.256" type="curve" smooth="yes"/>
			<point x="331.976" y="1319.256"/>
			<point x="372.824" y="1283.072"/>
			<point x="372.824" y="1220.04" type="curve" smooth="yes"/>
			<point x="372.824" y="1154.552"/>
			<point x="325.792" y="1103.64"/>
			<point x="191.696" y="1062.272" type="curve"/>
			<point x="202.392" y="1018.792" type="line"/>
			<point x="234.152" y="1026.672" type="line" smooth="yes"/>
			<point x="369.456" y="1058.584"/>
			<point x="412.04" y="1010.032"/>
			<point x="412.04" y="897.456" type="curve" smooth="yes"/>
			<point x="412.04" y="759.824"/>
			<point x="355.216" y="694.664"/>
			<point x="272.208" y="694.664" type="curve" smooth="yes"/>
			<point x="197.6" y="694.664"/>
			<point x="127.576" y="813.352"/>
			<point x="104.728" y="813.352" type="curve" smooth="yes"/>
			<point x="67.368" y="813.352"/>
			<point x="39.552" y="781.84"/>
			<point x="39.552" y="744.6" type="curve" smooth="yes"/>
			<point x="39.552" y="692.392"/>
			<point x="80.52" y="645.456"/>
		</contour>
	</outline>
</glyph>
<glyph name="uni00B5" format="2">
	<unicode hex="00B5"/>
	<advance width="1311.752"/>
	<outline>
		<contour>
			<point x="179.92" y="1024" type="line"/>
			<point x="179.92" y="-457.696" type="line"/>
			<point x="189.92" y="-457.696" type="line"/>
			<point x="424.92" y="-437.032" type="line"/>
			<point x="228.976" y="197.12" type="line"/>
			<point x="218.432" y="186.096" type="line"/>
			<point x="229.52" y="41.848"/>
			<point x="333.4" y="-20"/>
			<point x="453.8" y="-20" type="curve" smooth="yes"/>
			<point x="586.52" y="-20"/>
			<point x="656.616" y="9.88"/>
			<point x="858.56" y="204.04" type="curve"/>
			<point x="849.344" y="227.736" type="line"/>
			<point x="789.04" y="193.824"/>
			<point x="715.904" y="168.12"/>
			<point x="639.312" y="168.12" type="curve" smooth="yes"/>
			<point x="524.352" y="168.12"/>
			<point x="471.616" y="217.888"/>
			<point x="471.616" y="329.84" type="curve" smooth="yes"/>
			<point x="471.616" y="1024" type="line"/>
		</contour>
		<contour>
			<point x="1095.312" y="191.936" type="curve" smooth="yes"/>
			<point x="1095.312" y="1024" type="line"/>
			<point x="803.616" y="1024" type="line"/>
			<point x="803.616" y="218.688" type="line" smooth="yes"/>
			<point x="803.616" y="55.216"/>
			<point x="855.88" y="-24.24"/>
			<point x="999.048" y="-24.24" type="curve" smooth="yes"/>
			<point x="1101.944" y="-24.24"/>
			<point x="1178.576" y="1.392"/>
			<point x="1280.544" y="104.824" type="curve"/>
			<point x="1280.544" y="146.664" type="line"/>
			<point x="1241.448" y="123.416"/>
			<point x="1205.08" y="113.232"/>
			<point x="1168.136" y="113.232" type="curve" smooth="yes"/>
			<point x="1123.376" y="113.232"/>
			<point x="1095.312" y="135.688"/>
		</contour>
	</outline>
</glyph>
<glyph name="paragraph" format="2">
  <advance width="1212"/>
  <unicode hex="00B6"/>
  <outline>
    <contour>
      <point x="708.36" y="1430.0" type="line"/>
      <point x="464.936" y="1430.0" type="line" smooth="yes"/>
      <point x="168.848" y="1430.0"/>
      <point x="53.032" y="1262.216"/>
      <point x="53.032" y="1064.248" type="curve" smooth="yes"/>
      <point x="53.032" y="861.008"/>
      <point x="172.54399999999998" y="708.312"/>
      <point x="464.36" y="708.312" type="curve" smooth="yes"/>
      <point x="708.36" y="708.312" type="line"/>
    </contour>
    <contour>
      <point x="727.752" y="-218.0" type="line"/>
      <point x="727.752" y="1363.096" type="line"/>
      <point x="909.904" y="1363.096" type="line"/>
      <point x="909.904" y="1430.0" type="line"/>
      <point x="653.2719999999999" y="1430.0" type="line"/>
      <point x="653.2719999999999" y="-218.0" type="line"/>
    </contour>
    <contour>
      <point x="963.264" y="-218.0" type="line"/>
      <point x="963.264" y="1364.672" type="line"/>
      <point x="1149.536" y="1402.0639999999999" type="line"/>
      <point x="1149.536" y="1430.0" type="line"/>
      <point x="888.784" y="1430.0" type="line"/>
      <point x="888.784" y="-218.0" type="line"/>
    </contour>
  </outline>
</glyph>
<glyph name="uni00B9" format="2">
	<unicode hex="00B9"/>
	<advance width="560.328"/>
	<outline>
		<contour>
			<point x="211.104" y="721.208" type="line"/>
			<point x="73.856" y="688.088" type="line"/>
			<point x="73.856" y="662" type="line"/>
			<point x="534.688" y="662" type="line"/>
			<point x="534.688" y="688.088" type="line"/>
			<point x="411.016" y="721.208" type="line"/>
			<point x="411.016" y="1446.544" type="line"/>
			<point x="381.928" y="1446.544" type="line"/>
			<point x="21.672" y="1267.944" type="line"/>
			<point x="29.944" y="1237.312" type="line"/>
			<point x="332.568" y="1301.768" type="line"/>
			<point x="211.104" y="1337.368" type="line"/>
		</contour>
	</outline>
</glyph>
<glyph name="ordmasculine" format="2">
	<unicode hex="00BA"/>
	<advance width="953.448"/>
	<outline>
		<contour>
			<point x="136.008" y="565.76" type="line"/>
			<point x="817.016" y="565.76" type="line"/>
			<point x="817.016" y="633.24" type="line"/>
			<point x="136.008" y="633.24" type="line"/>
		</contour>
		<contour>
			<point x="477.936" y="833.24" type="curve" smooth="yes"/>
			<point x="379.864" y="833.24"/>
			<point x="341.336" y="941.5633567167"/>
			<point x="341.336" y="1135.632" type="curve" smooth="yes"/>
			<point x="341.336" y="1318.8711741104"/>
			<point x="382.136" y="1406.336"/>
			<point x="475.088" y="1406.336" type="curve" smooth="yes"/>
			<point x="572.16" y="1406.336"/>
			<point x="611.688" y="1298.4277122446"/>
			<point x="611.688" y="1104.368" type="curve" smooth="yes"/>
			<point x="611.688" y="920.1411567944"/>
			<point x="569.888" y="833.24"/>
		</contour>
		<contour>
			<point x="468.392" y="785.76" type="curve" smooth="yes"/>
			<point x="682.264" y="785.76"/>
			<point x="842.472" y="919.8308672566"/>
			<point x="842.472" y="1124.576" type="curve" smooth="yes"/>
			<point x="842.472" y="1322.7513920973"/>
			<point x="697.32" y="1454.24"/>
			<point x="483.632" y="1454.24" type="curve" smooth="yes"/>
			<point x="268.912" y="1454.24"/>
			<point x="110.552" y="1319.1759292035"/>
			<point x="110.552" y="1115.424" type="curve" smooth="yes"/>
			<point x="110.552" y="917.2486079027"/>
			<point x="258.552" y="785.76"/>
		</contour>
	</outline>
</glyph>
<glyph name="guillemotright" format="2">
	<unicode hex="00BB"/>
	<advance width="986.288"/>
	<outline>
		<contour>
			<point x="340.984" y="433.16" type="line"/>
			<point x="340.984" y="612.264" type="line"/>
			<point x="91.608" y="95.976" type="line"/>
			<point x="110.728" y="81.128" type="line"/>
			<point x="531.264" y="514.152" type="line"/>
			<point x="531.264" y="531.272" type="line"/>
			<point x="110.728" y="964.296" type="line"/>
			<point x="91.608" y="949.448" type="line"/>
		</contour>
		<contour>
			<point x="717.944" y="433.16" type="line"/>
			<point x="717.944" y="612.264" type="line"/>
			<point x="468.568" y="95.976" type="line"/>
			<point x="487.688" y="81.128" type="line"/>
			<point x="908.224" y="514.152" type="line"/>
			<point x="908.224" y="531.272" type="line"/>
			<point x="487.688" y="964.296" type="line"/>
			<point x="468.568" y="949.448" type="line"/>
		</contour>
	</outline>
</glyph>
<glyph name="questiondown" format="2">
	<unicode hex="00BF"/>
	<advance width="999.968"/>
	<outline>
		<contour>
			<point x="673" y="-430.816" type="curve" smooth="yes"/>
			<point x="878.6" y="-430.816"/>
			<point x="958.872" y="-365.152"/>
			<point x="958.872" y="-283.28" type="curve" smooth="yes"/>
			<point x="958.872" y="-216.984"/>
			<point x="896.88" y="-161.84"/>
			<point x="845.824" y="-161.84" type="curve" smooth="yes"/>
			<point x="816.04" y="-161.84"/>
			<point x="688.416" y="-334.944"/>
			<point x="493.176" y="-334.944" type="curve" smooth="yes"/>
			<point x="339.584" y="-334.944"/>
			<point x="252.752" y="-257.088"/>
			<point x="252.752" y="-110.192" type="curve" smooth="yes"/>
			<point x="252.752" y="33"/>
			<point x="334.88" y="127.128"/>
			<point x="684.784" y="120.216" type="curve"/>
			<point x="593.128" y="522.264" type="line"/>
			<point x="554.768" y="522.264" type="line"/>
			<point x="554.768" y="188.896" type="line"/>
			<point x="588.312" y="344.24" type="line"/>
			<point x="221.68" y="358.664"/>
			<point x="98.592" y="250.384"/>
			<point x="98.592" y="15.544" type="curve" smooth="yes"/>
			<point x="98.592" y="-234.4"/>
			<point x="328.784" y="-430.816"/>
		</contour>
		<contour>
			<point x="571.432" y="706.336" type="curve" smooth="yes"/>
			<point x="672.512" y="706.336"/>
			<point x="744.232" y="780.056"/>
			<point x="744.232" y="875.44" type="curve" smooth="yes"/>
			<point x="744.232" y="970.824"/>
			<point x="672.512" y="1044.544"/>
			<point x="571.432" y="1044.544" type="curve" smooth="yes"/>
			<point x="470.352" y="1044.544"/>
			<point x="398.632" y="970.824"/>
			<point x="398.632" y="875.44" type="curve" smooth="yes"/>
			<point x="398.632" y="780.056"/>
			<point x="470.352" y="706.336"/>
		</contour>
	</outline>
</glyph>
<glyph name="AE" format="2">
	<unicode hex="00C6"/>
	<advance width="2181.432"/>
	<outline>
		<contour>
			<point x="466.344" y="527.44" type="line"/>
			<point x="1064.208" y="527.44" type="line"/>
			<point x="1064.208" y="600.16" type="line"/>
			<point x="466.344" y="600.16" type="line"/>
		</contour>
		<contour>
			<point x="952.736" y="1430" type="line"/>
			<point x="119.008" y="68.144" type="line"/>
			<point x="-45.664" y="26.784" type="line"/>
			<point x="-45.664" y="0" type="line"/>
			<point x="378.576" y="0" type="line"/>
			<point x="378.576" y="26.784" type="line"/>
			<point x="201.12" y="66.296" type="line"/>
			<point x="1006.728" y="1385.608" type="line"/>
			<point x="1006.728" y="1430" type="line"/>
		</contour>
		<contour>
			<point x="744.016" y="1401.368" type="line"/>
			<point x="923.048" y="1362.28" type="line"/>
			<point x="963.552" y="1430" type="line"/>
			<point x="744.016" y="1430" type="line"/>
		</contour>
		<contour>
			<point x="1758.376" y="1055.96" type="line"/>
			<point x="1732.136" y="1055.96" type="line"/>
			<point x="1609.264" y="796.176" type="line"/>
			<point x="1197.68" y="769.448" type="line"/>
			<point x="1197.68" y="723.976" type="line"/>
			<point x="1609.264" y="700.4" type="line"/>
			<point x="1732.136" y="438.04" type="line"/>
			<point x="1758.376" y="438.04" type="line"/>
			<point x="1715.896" y="746" type="line"/>
		</contour>
		<contour>
			<point x="2080.672" y="1008.44" type="line"/>
			<point x="1997.984" y="1498.84" type="line"/>
			<point x="1984.472" y="1498.84" type="line"/>
			<point x="1843.84" y="1430" type="line"/>
			<point x="1120.448" y="1430" type="line"/>
			<point x="1120.448" y="1353.04" type="line"/>
			<point x="1974.6" y="1353.04" type="line"/>
			<point x="1814.392" y="1391.032" type="line"/>
			<point x="2049.736" y="998.744" type="line"/>
		</contour>
		<contour>
			<point x="1848.928" y="43.056" type="line"/>
			<point x="1999.112" y="76.96" type="line"/>
			<point x="1120.448" y="76.96" type="line"/>
			<point x="1120.448" y="0" type="line"/>
			<point x="1880.256" y="0" type="line"/>
			<point x="2012.92" y="-66.296" type="line"/>
			<point x="2030.248" y="-66.296" type="line"/>
			<point x="2146.424" y="436.128" type="line"/>
			<point x="2112.944" y="444.824" type="line"/>
		</contour>
		<contour>
			<point x="818.968" y="0" type="line"/>
			<point x="1316.752" y="0" type="line"/>
			<point x="1316.752" y="1430" type="line"/>
			<point x="982.704" y="1430" type="line"/>
			<point x="982.704" y="77.36" type="line"/>
			<point x="818.968" y="32.816" type="line"/>
		</contour>
	</outline>
	<anchor name="UCtop" x="1149.728" y="1430"/>
	<anchor name="bottom" x="1149.728" y="0"/>
</glyph>
<glyph name="Ccedilla" format="2">
	<unicode hex="00C7"/>
	<advance width="1443.288"/>
	<outline>
		<contour>
			<point x="933.12" y="31.688" type="curve" smooth="yes"/>
			<point x="658.376" y="31.688"/>
			<point x="425.176" y="302.144"/>
			<point x="425.176" y="773.016" type="curve" smooth="yes"/>
			<point x="425.176" y="1236.64"/>
			<point x="613.808" y="1390.856"/>
			<point x="845.216" y="1390.856" type="curve" smooth="yes"/>
			<point x="954.736" y="1390.856"/>
			<point x="1052.136" y="1357.672"/>
			<point x="1171.592" y="1254.048" type="curve"/>
			<point x="1107" y="1330.392" type="line"/>
			<point x="1335.92" y="962.744" type="line"/>
			<point x="1366.008" y="969.984" type="line"/>
			<point x="1265.408" y="1495.024" type="line"/>
			<point x="1250.56" y="1495.024" type="line"/>
			<point x="1117.392" y="1395.456" type="line"/>
			<point x="1193.712" y="1415.936" type="line"/>
			<point x="1077.048" y="1442.36"/>
			<point x="988.648" y="1454.24"/>
			<point x="873.408" y="1454.24" type="curve" smooth="yes"/>
			<point x="402.576" y="1454.24"/>
			<point x="80.704" y="1159.696"/>
			<point x="80.704" y="728.576" type="curve" smooth="yes"/>
			<point x="80.704" y="230.272"/>
			<point x="415.712" y="-24.24"/>
			<point x="889.904" y="-24.24" type="curve" smooth="yes"/>
			<point x="1041.624" y="-24.24"/>
			<point x="1158.528" y="-11.12"/>
			<point x="1301.68" y="28.792" type="curve"/>
			<point x="1384.768" y="410.504" type="line"/>
			<point x="1353.832" y="410.504" type="line"/>
			<point x="1142.792" y="84.496" type="line"/>
			<point x="1189.848" y="129.224" type="line"/>
			<point x="1108.168" y="61.208"/>
			<point x="1022.672" y="31.688"/>
		</contour>
		<contour>
			<point x="718.928" y="-465" type="curve" smooth="yes"/>
			<point x="863.832" y="-465"/>
			<point x="994.552" y="-374.944"/>
			<point x="994.552" y="-256.856" type="curve" smooth="yes"/>
			<point x="994.552" y="-188.616"/>
			<point x="957.552" y="-127.344"/>
			<point x="767.408" y="-80.616" type="curve"/>
			<point x="733.928" y="-177.328" type="line"/>
			<point x="888.304" y="20.776" type="line"/>
			<point x="832.736" y="20.776" type="line"/>
			<point x="657.208" y="-208.448" type="line"/>
			<point x="657.208" y="-213.448" type="line"/>
			<point x="836.232" y="-248.48"/>
			<point x="870.536" y="-292.36"/>
			<point x="870.536" y="-336.696" type="curve" smooth="yes"/>
			<point x="870.536" y="-385.304"/>
			<point x="832.048" y="-416.64"/>
			<point x="779.896" y="-416.64" type="curve" smooth="yes"/>
			<point x="714.712" y="-416.64"/>
			<point x="653.264" y="-332.16"/>
			<point x="637.264" y="-332.16" type="curve" smooth="yes"/>
			<point x="604.448" y="-332.16"/>
			<point x="588.176" y="-359.552"/>
			<point x="588.176" y="-387.52" type="curve" smooth="yes"/>
			<point x="588.176" y="-431.184"/>
			<point x="623.144" y="-465"/>
		</contour>
	</outline>
</glyph>
<glyph name="multiply" format="2">
  <advance width="1150.0"/>
  <unicode hex="00D7"/>
  <outline>
    <contour>
      <point x="221.76000000000002" y="214.664" type="line"/>
      <point x="277.664" y="158.76000000000002" type="line"/>
      <point x="928.24" y="809.336" type="line"/>
      <point x="872.336" y="865.24" type="line"/>
    </contour>
    <contour>
      <point x="221.76000000000002" y="809.336" type="line"/>
      <point x="872.336" y="158.76000000000002" type="line"/>
      <point x="928.24" y="214.664" type="line"/>
      <point x="277.664" y="865.24" type="line"/>
    </contour>
  </outline>
</glyph>
<glyph name="Oslash" format="2">
	<unicode hex="00D8"/>
	<advance width="1658.136"/>
	<outline>
		<contour>
			<point x="421.008" y="317.04" type="line"/>
			<point x="323.696" y="241.296" type="line"/>
			<point x="92.192" y="0" type="line"/>
			<point x="202.304" y="0" type="line"/>
			<point x="382.176" y="187.36" type="line"/>
			<point x="467.28" y="251.472" type="line"/>
			<point x="1237.704" y="1112.96" type="line"/>
			<point x="1334.44" y="1188.704" type="line"/>
			<point x="1566.52" y="1430" type="line"/>
			<point x="1456.984" y="1430" type="line"/>
			<point x="1277.112" y="1242.64" type="line"/>
			<point x="1192.008" y="1178.528" type="line"/>
		</contour>
		<contour>
			<point x="842.288" y="1454.24" type="curve" smooth="yes"/>
			<point x="407.696" y="1454.24"/>
			<point x="92.768" y="1141.88"/>
			<point x="92.768" y="702.976" type="curve" smooth="yes"/>
			<point x="92.768" y="272.824"/>
			<point x="397.672" y="-24.24"/>
			<point x="818.152" y="-24.24" type="curve" smooth="yes"/>
			<point x="1251.592" y="-24.24"/>
			<point x="1566.52" y="288.12"/>
			<point x="1566.52" y="728.176" type="curve" smooth="yes"/>
			<point x="1566.52" y="1157.176"/>
			<point x="1261.616" y="1454.24"/>
		</contour>
		<contour>
			<point x="842.384" y="40.296" type="curve" smooth="yes"/>
			<point x="591.328" y="40.296"/>
			<point x="431.24" y="301.448"/>
			<point x="431.24" y="771.168" type="curve" smooth="yes"/>
			<point x="431.24" y="1190.552"/>
			<point x="584.864" y="1390.28"/>
			<point x="816.904" y="1390.28" type="curve" smooth="yes"/>
			<point x="1066.808" y="1390.28"/>
			<point x="1227.472" y="1128.552"/>
			<point x="1227.472" y="658.832" type="curve" smooth="yes"/>
			<point x="1227.472" y="240.024"/>
			<point x="1073.848" y="40.296"/>
		</contour>
	</outline>
	<anchor name="UCtop" x="829.568" y="1430"/>
	<anchor name="bottom" x="829.568" y="0"/>
</glyph>
<glyph name="Thorn" format="2">
	<unicode hex="00DE"/>
	<advance width="1403.696"/>
	<outline>
		<contour>
			<point x="1012.12" y="730.152" type="curve" smooth="yes"/>
			<point x="1012.12" y="518.512"/>
			<point x="875.232" y="406.208"/>
			<point x="683.408" y="406.208" type="curve" smooth="yes"/>
			<point x="371.456" y="406.208" type="line"/>
			<point x="380.784" y="329.248" type="line"/>
			<point x="808" y="329.248" type="line" smooth="yes"/>
			<point x="1179.48" y="329.248"/>
			<point x="1339.568" y="514.52"/>
			<point x="1339.568" y="738.064" type="curve" smooth="yes"/>
			<point x="1339.568" y="957.152"/>
			<point x="1187.752" y="1132.056"/>
			<point x="808" y="1132.056" type="curve" smooth="yes"/>
			<point x="380.784" y="1132.056" type="line"/>
			<point x="371.456" y="1055.096" type="line"/>
			<point x="600.896" y="1055.096" type="line" smooth="yes"/>
			<point x="901.84" y="1055.096"/>
			<point x="1012.12" y="937.792"/>
		</contour>
		<contour>
			<point x="720.616" y="32.816" type="line"/>
			<point x="556.88" y="77.36" type="line"/>
			<point x="556.88" y="1353.64" type="line"/>
			<point x="720.616" y="1396.76" type="line"/>
			<point x="720.616" y="1430" type="line"/>
			<point x="59.096" y="1430" type="line"/>
			<point x="59.096" y="1396.76" type="line"/>
			<point x="222.832" y="1353.64" type="line"/>
			<point x="222.832" y="77.36" type="line"/>
			<point x="59.096" y="32.816" type="line"/>
			<point x="59.096" y="0" type="line"/>
			<point x="720.616" y="0" type="line"/>
		</contour>
	</outline>
</glyph>
<glyph name="germandbls" format="2">
  <advance width="1362.672"/>
  <unicode hex="00DF"/>
  <outline>
    <contour>
      <point x="187.52" y="977.224" type="curve" smooth="yes"/>
      <point x="187.52" y="61.664" type="line"/>
      <point x="68.688" y="29.544" type="line"/>
      <point x="68.688" y="0.0" type="line"/>
      <point x="608.784" y="0.0" type="line"/>
      <point x="608.784" y="29.544" type="line"/>
      <point x="482.67199999999997" y="62.936" type="line"/>
      <point x="482.67199999999997" y="1068.1280000000002" type="line" smooth="yes"/>
      <point x="482.67199999999997" y="1317.632"/>
      <point x="578.3439999999999" y="1428.9440000000002"/>
      <point x="747.72" y="1428.9440000000002" type="curve" smooth="yes"/>
      <point x="917.24" y="1428.9440000000002"/>
      <point x="990.728" y="1304.768"/>
      <point x="990.728" y="1206.8" type="curve" smooth="yes"/>
      <point x="990.728" y="969.2800000000001"/>
      <point x="685.144" y="943.6400000000001"/>
      <point x="685.144" y="703.976" type="curve" smooth="yes"/>
      <point x="685.144" y="380.416"/>
      <point x="1129.432" y="471.648"/>
      <point x="1129.432" y="225.584" type="curve" smooth="yes"/>
      <point x="1129.432" y="106.55199999999999"/>
      <point x="1047.0400000000002" y="28.119999999999997"/>
      <point x="925.5519999999999" y="28.119999999999997" type="curve" smooth="yes"/>
      <point x="882.12" y="28.119999999999997"/>
      <point x="840.5999999999999" y="37.456"/>
      <point x="806.144" y="52.519999999999996" type="curve"/>
      <point x="852.408" y="13.671999999999999" type="line"/>
      <point x="690.384" y="319.30400000000003" type="line"/>
      <point x="660.112" y="319.30400000000003" type="line"/>
      <point x="711.448" y="12.096000000000002" type="line"/>
      <point x="776.5125206128895" y="-11.720020463164339"/>
      <point x="837.9157625570776" y="-21.696"/>
      <point x="928.8480000000001" y="-21.696" type="curve" smooth="yes"/>
      <point x="1155.048" y="-21.696"/>
      <point x="1322.52" y="129.48"/>
      <point x="1322.52" y="343.68" type="curve" smooth="yes"/>
      <point x="1322.52" y="729.7919999999999"/>
      <point x="868.12" y="656.312"/>
      <point x="868.12" y="856.408" type="curve" smooth="yes"/>
      <point x="868.12" y="1034.744"/>
      <point x="1188.24" y="1016.76"/>
      <point x="1188.24" y="1244.064" type="curve" smooth="yes"/>
      <point x="1188.24" y="1364.032"/>
      <point x="1086.632" y="1488.24"/>
      <point x="784.7760000000001" y="1488.24" type="curve" smooth="yes"/>
      <point x="460.016" y="1488.24"/>
      <point x="187.52" y="1298.1280000000002"/>
    </contour>
    <contour>
      <point x="216.79199999999997" y="1040.448" type="line"/>
      <point x="22.520000000000003" y="967.336" type="line"/>
      <point x="22.520000000000003" y="936.184" type="line"/>
      <point x="203.52" y="862.5680000000001" type="line"/>
    </contour>
  </outline>
</glyph>
<glyph name="ae" format="2">
	<unicode hex="00E6"/>
	<advance width="1589.792"/>
	<outline>
		<contour>
			<point x="442.632" y="957.552" type="curve" smooth="yes"/>
			<point x="567.336" y="957.552"/>
			<point x="627.552" y="890.64"/>
			<point x="627.552" y="773.568" type="curve" smooth="yes"/>
			<point x="627.552" y="304.392" type="line" smooth="yes"/>
			<point x="627.552" y="197.896"/>
			<point x="571.6" y="147.976"/>
			<point x="487.976" y="147.976" type="curve" smooth="yes"/>
			<point x="408.936" y="147.976"/>
			<point x="352.016" y="198.344"/>
			<point x="352.016" y="309.952" type="curve" smooth="yes"/>
			<point x="352.016" y="440.352"/>
			<point x="401.48" y="513.632"/>
			<point x="683.352" y="608.736" type="curve"/>
			<point x="680.832" y="657.096" type="line"/>
			<point x="146.376" y="489.272"/>
			<point x="66.04" y="410.456"/>
			<point x="66.04" y="240.544" type="curve" smooth="yes"/>
			<point x="66.04" y="75.512"/>
			<point x="178.592" y="-22.968"/>
			<point x="361.128" y="-22.968" type="curve" smooth="yes"/>
			<point x="534.616" y="-22.968"/>
			<point x="649.336" y="89.216"/>
			<point x="658.488" y="293.096" type="curve"/>
			<point x="641.4" y="285.464" type="line"/>
			<point x="696.384" y="69.496"/>
			<point x="869.936" y="-24.24"/>
			<point x="1109.96" y="-24.24" type="curve" smooth="yes"/>
			<point x="1287.072" y="-24.24"/>
			<point x="1415.976" y="54.36"/>
			<point x="1551" y="287.704" type="curve"/>
			<point x="1529.488" y="305.064" type="line"/>
			<point x="1447.224" y="211.52"/>
			<point x="1353.76" y="174.728"/>
			<point x="1245.032" y="174.728" type="curve" smooth="yes"/>
			<point x="1023.568" y="174.728"/>
			<point x="904.832" y="301.128"/>
			<point x="904.832" y="619.168" type="curve" smooth="yes"/>
			<point x="904.832" y="880.376"/>
			<point x="976.816" y="986.096"/>
			<point x="1101.928" y="986.096" type="curve" smooth="yes"/>
			<point x="1199.456" y="986.096"/>
			<point x="1248.04" y="893.872"/>
			<point x="1263.528" y="647.272" type="curve"/>
			<point x="1394.104" y="692.48" type="line"/>
			<point x="859.064" y="692.48" type="line"/>
			<point x="859.064" y="620.488" type="line"/>
			<point x="1531.24" y="620.488" type="line"/>
			<point x="1511.968" y="893.912"/>
			<point x="1373.304" y="1048.24"/>
			<point x="1134.472" y="1048.24" type="curve" smooth="yes"/>
			<point x="963.9546181818" y="1048.24"/>
			<point x="837.195861592" y="963.3605271482"/>
			<point x="751.176" y="842.512" type="curve"/>
			<point x="887.272" y="842.512" type="line"/>
			<point x="849.8747123273" y="969.4437123378"/>
			<point x="757.7481668801" y="1048.24"/>
			<point x="569.664" y="1048.24" type="curve" smooth="yes"/>
			<point x="335.968" y="1048.24"/>
			<point x="75.312" y="906.736"/>
			<point x="75.312" y="789.648" type="curve" smooth="yes"/>
			<point x="75.312" y="748.496"/>
			<point x="107.16" y="726.256"/>
			<point x="169.152" y="726.256" type="curve" smooth="yes"/>
			<point x="216.328" y="726.256"/>
			<point x="260.568" y="744.344"/>
			<point x="280.536" y="770.856" type="curve" smooth="yes"/>
			<point x="305.688" y="803.704"/>
			<point x="319.416" y="874.2"/>
			<point x="332.352" y="990.176" type="curve"/>
			<point x="286.56" y="937.456" type="line"/>
			<point x="321.44" y="950.52"/>
			<point x="380.448" y="957.552"/>
		</contour>
	</outline>
	<anchor name="top" x="766.192" y="1024"/>
	<anchor name="bottom" x="766.192" y="0"/>
</glyph>
<glyph name="ccedilla" format="2">
	<unicode hex="00E7"/>
	<advance width="995.576"/>
	<outline>
		<contour>
			<point x="620.2" y="1048.24" type="curve" smooth="yes"/>
			<point x="306.056" y="1048.24"/>
			<point x="62.28" y="813"/>
			<point x="62.28" y="493.152" type="curve" smooth="yes"/>
			<point x="62.28" y="162.24"/>
			<point x="258.944" y="-24.24"/>
			<point x="538.352" y="-24.24" type="curve" smooth="yes"/>
			<point x="711.16" y="-24.24"/>
			<point x="835.64" y="52.24"/>
			<point x="966.512" y="283.464" type="curve"/>
			<point x="945.576" y="300.824" type="line"/>
			<point x="864.888" y="209.4"/>
			<point x="776.272" y="174.728"/>
			<point x="666.88" y="174.728" type="curve" smooth="yes"/>
			<point x="457.384" y="174.728"/>
			<point x="343.016" y="303.248"/>
			<point x="343.016" y="637.824" type="curve" smooth="yes"/>
			<point x="343.016" y="890.472"/>
			<point x="422.12" y="986.336"/>
			<point x="537.168" y="986.336" type="curve" smooth="yes"/>
			<point x="662.896" y="986.336"/>
			<point x="792.368" y="762.808"/>
			<point x="824.88" y="762.808" type="curve" smooth="yes"/>
			<point x="890" y="762.808"/>
			<point x="943.84" y="808.44"/>
			<point x="943.84" y="879.496" type="curve" smooth="yes"/>
			<point x="943.84" y="963.008"/>
			<point x="854.176" y="1048.24"/>
		</contour>
		<contour>
			<point x="459.68" y="-465" type="curve" smooth="yes"/>
			<point x="604.584" y="-465"/>
			<point x="735.304" y="-374.944"/>
			<point x="735.304" y="-256.856" type="curve" smooth="yes"/>
			<point x="735.304" y="-188.616"/>
			<point x="698.304" y="-127.344"/>
			<point x="508.16" y="-80.616" type="curve"/>
			<point x="474.68" y="-177.328" type="line"/>
			<point x="637.696" y="32.872" type="line"/>
			<point x="582.128" y="32.872" type="line"/>
			<point x="397.96" y="-208.448" type="line"/>
			<point x="397.96" y="-213.448" type="line"/>
			<point x="576.984" y="-248.48"/>
			<point x="611.288" y="-292.36"/>
			<point x="611.288" y="-336.696" type="curve" smooth="yes"/>
			<point x="611.288" y="-385.304"/>
			<point x="572.8" y="-416.64"/>
			<point x="520.648" y="-416.64" type="curve" smooth="yes"/>
			<point x="455.464" y="-416.64"/>
			<point x="394.016" y="-332.16"/>
			<point x="378.016" y="-332.16" type="curve" smooth="yes"/>
			<point x="345.2" y="-332.16"/>
			<point x="328.928" y="-359.552"/>
			<point x="328.928" y="-387.52" type="curve" smooth="yes"/>
			<point x="328.928" y="-431.184"/>
			<point x="363.896" y="-465"/>
		</contour>
	</outline>
</glyph>
<glyph name="eth" format="2">
	<unicode hex="00F0"/>
	<advance width="1194.08"/>
	<outline>
		<contour>
			<point x="581.056" y="-24.24" type="curve" smooth="yes"/>
			<point x="888.44" y="-24.24"/>
			<point x="1120.04" y="188.544"/>
			<point x="1120.04" y="596.024" type="curve" smooth="yes"/>
			<point x="1120.04" y="985.6"/>
			<point x="951.56" y="1387.656"/>
			<point x="229.04" y="1488.088" type="curve"/>
			<point x="212.768" y="1447.912" type="line"/>
			<point x="733.368" y="1306.28"/>
			<point x="829.016" y="1094.88"/>
			<point x="837.968" y="702.344" type="curve"/>
			<point x="919.432" y="684.44" type="line"/>
			<point x="893.328" y="925.88"/>
			<point x="735.024" y="1012"/>
			<point x="577.664" y="1012" type="curve" smooth="yes"/>
			<point x="291.032" y="1012"/>
			<point x="62.128" y="803.184"/>
			<point x="62.128" y="485.576" type="curve" smooth="yes"/>
			<point x="62.128" y="178.272"/>
			<point x="279.008" y="-24.24"/>
		</contour>
		<contour>
			<point x="592.72" y="34.6" type="curve" smooth="yes"/>
			<point x="440.032" y="34.6"/>
			<point x="369.856" y="206.848"/>
			<point x="369.856" y="513.72" type="curve" smooth="yes"/>
			<point x="369.856" y="809.144"/>
			<point x="443.152" y="954.584"/>
			<point x="589.024" y="954.584" type="curve" smooth="yes"/>
			<point x="742.288" y="954.584"/>
			<point x="812.464" y="780.76"/>
			<point x="812.464" y="472.736" type="curve" smooth="yes"/>
			<point x="812.464" y="178.04"/>
			<point x="739.168" y="34.6"/>
		</contour>
		<contour>
			<point x="415.68" y="1095.488" type="line"/>
			<point x="880.48" y="1460.816" type="line"/>
			<point x="844.664" y="1505.176" type="line"/>
			<point x="379.288" y="1140.424" type="line"/>
		</contour>
	</outline>
</glyph>
<glyph name="divide" format="2">
	<unicode hex="00F7"/>
	<advance width="1150"/>
	<outline>
		<contour>
			<point x="575" y="266.752" type="curve" smooth="yes"/>
			<point x="509.64" y="266.752"/>
			<point x="461.824" y="215.512"/>
			<point x="461.824" y="154" type="curve" smooth="yes"/>
			<point x="461.824" y="92.488"/>
			<point x="509.64" y="42.248"/>
			<point x="575" y="42.248" type="curve" smooth="yes"/>
			<point x="640.36" y="42.248"/>
			<point x="688.176" y="92.488"/>
			<point x="688.176" y="154" type="curve" smooth="yes"/>
			<point x="688.176" y="215.512"/>
			<point x="640.36" y="266.752"/>
		</contour>
		<contour>
			<point x="575" y="981.752" type="curve" smooth="yes"/>
			<point x="509.64" y="981.752"/>
			<point x="461.824" y="931.512"/>
			<point x="461.824" y="870" type="curve" smooth="yes"/>
			<point x="461.824" y="808.488"/>
			<point x="509.64" y="757.824"/>
			<point x="575" y="757.824" type="curve" smooth="yes"/>
			<point x="640.36" y="757.824"/>
			<point x="688.176" y="808.488"/>
			<point x="688.176" y="870" type="curve" smooth="yes"/>
			<point x="688.176" y="931.512"/>
			<point x="640.36" y="981.752"/>
		</contour>
		<contour>
			<point x="164" y="551.36" type="line"/>
			<point x="164" y="472.64" type="line"/>
			<point x="986" y="472.64" type="line"/>
			<point x="986" y="551.36" type="line"/>
		</contour>
	</outline>
</glyph>
<glyph name="thorn" format="2">
	<unicode hex="00FE"/>
	<advance width="1213.12"/>
	<outline>
		<contour>
			<point x="127.888" y="1253.096" type="curve"/>
			<point x="127.888" y="-379.096" type="line"/>
			<point x="9.056" y="-411.216" type="line"/>
			<point x="9.056" y="-440.76" type="line"/>
			<point x="558.416" y="-440.76" type="line"/>
			<point x="558.416" y="-411.216" type="line"/>
			<point x="419.584" y="-379.096" type="line"/>
			<point x="419.584" y="55.064" type="line"/>
			<point x="242.336" y="55.064" type="line"/>
			<point x="345.272" y="-0.512"/>
			<point x="468.608" y="-24.24"/>
			<point x="588.152" y="-24.24" type="curve" smooth="yes"/>
			<point x="912.544" y="-24.24"/>
			<point x="1147.72" y="189.912"/>
			<point x="1147.72" y="572.6" type="curve" smooth="yes"/>
			<point x="1147.72" y="869.232"/>
			<point x="1005.712" y="1048.24"/>
			<point x="753.04" y="1048.24" type="curve" smooth="yes"/>
			<point x="635.408" y="1048.24"/>
			<point x="538.032" y="1004.112"/>
			<point x="356.792" y="814.112" type="curve"/>
			<point x="365.432" y="786.904" type="line"/>
			<point x="430.264" y="850.952"/>
			<point x="503.216" y="879.864"/>
			<point x="592.472" y="879.864" type="curve" smooth="yes"/>
			<point x="767.008" y="879.864"/>
			<point x="844.024" y="763.336"/>
			<point x="844.024" y="485.816" type="curve" smooth="yes"/>
			<point x="844.024" y="168.224"/>
			<point x="756.616" y="34.36"/>
			<point x="605.56" y="34.36" type="curve" smooth="yes"/>
			<point x="495.088" y="34.36"/>
			<point x="419.584" y="109.704"/>
			<point x="419.584" y="224.592" type="curve" smooth="yes"/>
			<point x="419.584" y="1295.584" type="line"/>
			<point x="419.584" y="1488.24" type="line"/>
			<point x="405.832" y="1488.24" type="line"/>
			<point x="-34.688" y="1390.04" type="line"/>
			<point x="-34.688" y="1365.68" type="line"/>
			<point x="43.312" y="1311.5987948194"/>
			<point x="101.888" y="1271.1230683935"/>
		</contour>
	</outline>
</glyph>
<glyph name="Aogonek" format="2">
	<unicode hex="0104"/>
	<advance width="1534.984"/>
	<outline>
		<contour>
			<point x="331.28" y="506.24" type="line"/>
			<point x="1036.584" y="506.24" type="line"/>
			<point x="1036.584" y="578.96" type="line"/>
			<point x="331.28" y="578.96" type="line"/>
		</contour>
		<contour>
			<point x="1420.952" y="80.48" type="line"/>
			<point x="819.216" y="1441.52" type="line"/>
			<point x="664.192" y="1441.52" type="line"/>
			<point x="129.76" y="82.544" type="line"/>
			<point x="-23.24" y="31.968" type="line"/>
			<point x="-23.24" y="0" type="line"/>
			<point x="393.392" y="0" type="line"/>
			<point x="393.392" y="31.968" type="line"/>
			<point x="210.176" y="79.544" type="line"/>
			<point x="637.792" y="1191.824" type="line"/>
			<point x="588.624" y="1171.472" type="line"/>
			<point x="1064.88" y="78.48" type="line"/>
			<point x="889.664" y="32.816" type="line"/>
			<point x="889.664" y="0" type="line"/>
			<point x="1576.952" y="0" type="line"/>
			<point x="1576.952" y="32.816" type="line"/>
		</contour>
		<contour>
			<point x="1248.776" y="-44.04" type="curve" smooth="yes"/>
			<point x="1327.8" y="84.904" type="line"/>
			<point x="1299.984" y="84.904" type="line"/>
			<point x="1163.84" y="-73.528" type="line" smooth="yes"/>
			<point x="1044.16" y="-207.584"/>
			<point x="1021.376" y="-268.4"/>
			<point x="1021.376" y="-329.064" type="curve" smooth="yes"/>
			<point x="1021.376" y="-403.88"/>
			<point x="1069.528" y="-465"/>
			<point x="1177.16" y="-465" type="curve" smooth="yes"/>
			<point x="1248.128" y="-465"/>
			<point x="1300.064" y="-437.304"/>
			<point x="1397.696" y="-324.28" type="curve"/>
			<point x="1385" y="-304.464" type="line"/>
			<point x="1328.336" y="-348.584"/>
			<point x="1292.912" y="-353.888"/>
			<point x="1261.608" y="-353.888" type="curve" smooth="yes"/>
			<point x="1197.456" y="-353.888"/>
			<point x="1160.032" y="-321.312"/>
			<point x="1160.032" y="-267.008" type="curve" smooth="yes"/>
			<point x="1160.032" y="-217.4"/>
			<point x="1178.336" y="-151.424"/>
		</contour>
	</outline>
</glyph>
<glyph name="aogonek" format="2">
	<unicode hex="0105"/>
	<advance width="1091.776"/>
	<outline>
		<contour>
			<point x="1104.48" y="104.824" type="line"/>
			<point x="1104.48" y="146.664" type="line"/>
			<point x="1065.384" y="123.416"/>
			<point x="1029.016" y="113.232"/>
			<point x="992.072" y="113.232" type="curve" smooth="yes"/>
			<point x="947.312" y="113.232"/>
			<point x="919.248" y="135.688"/>
			<point x="919.248" y="191.936" type="curve" smooth="yes"/>
			<point x="919.248" y="748.896" type="line" smooth="yes"/>
			<point x="919.248" y="931.216"/>
			<point x="823.92" y="1048.24"/>
			<point x="569.664" y="1048.24" type="curve" smooth="yes"/>
			<point x="335.968" y="1048.24"/>
			<point x="75.312" y="906.736"/>
			<point x="75.312" y="789.648" type="curve" smooth="yes"/>
			<point x="75.312" y="748.496"/>
			<point x="107.16" y="726.256"/>
			<point x="169.152" y="726.256" type="curve" smooth="yes"/>
			<point x="216.328" y="726.256"/>
			<point x="260.568" y="744.344"/>
			<point x="280.536" y="770.856" type="curve" smooth="yes"/>
			<point x="304.84" y="802.432"/>
			<point x="318.568" y="870.808"/>
			<point x="330.232" y="971.52" type="curve"/>
			<point x="286.56" y="937.456" type="line"/>
			<point x="321.44" y="950.52"/>
			<point x="380.448" y="957.552"/>
			<point x="442.632" y="957.552" type="curve" smooth="yes"/>
			<point x="567.336" y="957.552"/>
			<point x="627.552" y="890.64"/>
			<point x="627.552" y="773.568" type="curve" smooth="yes"/>
			<point x="627.552" y="304.392" type="line" smooth="yes"/>
			<point x="627.552" y="197.896"/>
			<point x="571.6" y="147.976"/>
			<point x="487.976" y="147.976" type="curve" smooth="yes"/>
			<point x="408.936" y="147.976"/>
			<point x="352.016" y="197.496"/>
			<point x="352.016" y="308.68" type="curve" smooth="yes"/>
			<point x="352.016" y="438.656"/>
			<point x="401.48" y="511.512"/>
			<point x="683.352" y="606.616" type="curve"/>
			<point x="680.832" y="654.552" type="line"/>
			<point x="146.376" y="487.576"/>
			<point x="66.04" y="408.76"/>
			<point x="66.04" y="239.696" type="curve" smooth="yes"/>
			<point x="66.04" y="75.088"/>
			<point x="178.592" y="-22.968"/>
			<point x="362.824" y="-22.968" type="curve" smooth="yes"/>
			<point x="497.912" y="-22.968"/>
			<point x="598.64" y="65.096"/>
			<point x="636.88" y="225.048" type="curve"/>
			<point x="627.096" y="231.408" type="line"/>
			<point x="632.096" y="58.608"/>
			<point x="680.664" y="-24.24"/>
			<point x="822.984" y="-24.24" type="curve" smooth="yes"/>
			<point x="900.912" y="-24.24"/>
			<point x="963.512" y="-9.728"/>
			<point x="1032.72" y="40.696" type="curve"/>
			<point x="1025.72" y="50.24" type="line"/>
			<point x="920.36" y="-60.248" type="line" smooth="yes"/>
			<point x="781.432" y="-200.456"/>
			<point x="756.584" y="-259.488"/>
			<point x="756.584" y="-323.88" type="curve" smooth="yes"/>
			<point x="756.584" y="-401.576"/>
			<point x="801.856" y="-465"/>
			<point x="909.488" y="-465" type="curve" smooth="yes"/>
			<point x="980.456" y="-465"/>
			<point x="1032.392" y="-437.304"/>
			<point x="1130.024" y="-324.28" type="curve"/>
			<point x="1117.328" y="-304.464" type="line"/>
			<point x="1060.664" y="-348.584"/>
			<point x="1025.24" y="-353.888"/>
			<point x="993.936" y="-353.888" type="curve" smooth="yes"/>
			<point x="931.512" y="-353.888"/>
			<point x="895.24" y="-314.976"/>
			<point x="895.24" y="-259.52" type="curve" smooth="yes"/>
			<point x="895.24" y="-209.912"/>
			<point x="909.392" y="-153.032"/>
			<point x="1005.872" y="-26.184" type="curve" smooth="yes"/>
		</contour>
	</outline>
</glyph>
<glyph name="Dcroat" format="2">
	<unicode hex="0110"/>
	<advance width="1609.088"/>
	<outline>
		<contour>
			<point x="64.368" y="709.488" type="line"/>
			<point x="843.088" y="709.488" type="line"/>
			<point x="843.088" y="786.208" type="line"/>
			<point x="64.368" y="786.208" type="line"/>
		</contour>
		<contour>
			<point x="1185.336" y="726.152" type="curve" smooth="yes"/>
			<point x="1185.336" y="260.024"/>
			<point x="1005.52" y="76.96"/>
			<point x="687.72" y="76.96" type="curve" smooth="yes"/>
			<point x="398.784" y="76.96" type="line"/>
			<point x="381.4" y="0" type="line"/>
			<point x="727.808" y="0" type="line" smooth="yes"/>
			<point x="1182.808" y="0"/>
			<point x="1526.808" y="253"/>
			<point x="1526.808" y="748" type="curve" smooth="yes"/>
			<point x="1526.808" y="1182"/>
			<point x="1231.232" y="1430"/>
			<point x="713.808" y="1430" type="curve" smooth="yes"/>
			<point x="381.4" y="1430" type="line"/>
			<point x="398.784" y="1353.04" type="line"/>
			<point x="655.536" y="1353.04" type="line" smooth="yes"/>
			<point x="1007.672" y="1353.04"/>
			<point x="1185.336" y="1150.064"/>
		</contour>
		<contour>
			<point x="64.368" y="0" type="line"/>
			<point x="562.152" y="0" type="line"/>
			<point x="562.152" y="1430" type="line"/>
			<point x="64.368" y="1430" type="line"/>
			<point x="64.368" y="1396.76" type="line"/>
			<point x="228.104" y="1353.64" type="line"/>
			<point x="228.104" y="77.36" type="line"/>
			<point x="64.368" y="32.816" type="line"/>
		</contour>
	</outline>
</glyph>
<glyph name="dcroat" format="2">
	<unicode hex="0111"/>
	<advance width="1244.968"/>
	<outline>
		<contour>
			<point x="791.688" y="799.408" type="curve" smooth="yes"/>
			<point x="791.688" y="129.688" type="line"/>
			<point x="803.984" y="-33.208" type="line"/>
			<point x="819.16" y="-33.208" type="line"/>
			<point x="1233.904" y="33.656" type="line"/>
			<point x="1233.904" y="59.472" type="line"/>
			<point x="1191.904" y="81.2524805212"/>
			<point x="1107.384" y="123.7460111307"/>
			<point x="1083.384" y="136.192" type="curve"/>
			<point x="1083.384" y="1306.528" type="line"/>
			<point x="1091.448" y="1488.24" type="line"/>
			<point x="1078.272" y="1488.24" type="line"/>
			<point x="629.112" y="1390.04" type="line"/>
			<point x="629.112" y="1365.68" type="line"/>
			<point x="686.112" y="1326.1591192911"/>
			<point x="767.688" y="1269.7363708248"/>
			<point x="791.688" y="1253.096" type="curve"/>
			<point x="791.688" y="952.384" type="line"/>
			<point x="996.072" y="968.512" type="line"/>
			<point x="889.744" y="1024.088"/>
			<point x="763.016" y="1048.24"/>
			<point x="639.656" y="1048.24" type="curve" smooth="yes"/>
			<point x="305.088" y="1048.24"/>
			<point x="63.552" y="835.784"/>
			<point x="63.552" y="462.424" type="curve" smooth="yes"/>
			<point x="63.552" y="170.456"/>
			<point x="228.28" y="-24.24"/>
			<point x="488.584" y="-24.24" type="curve" smooth="yes"/>
			<point x="603.248" y="-24.24"/>
			<point x="696.384" y="20.736"/>
			<point x="854.056" y="211.584" type="curve"/>
			<point x="845.416" y="237.52" type="line"/>
			<point x="782.28" y="170.504"/>
			<point x="708.904" y="144.136"/>
			<point x="623.04" y="144.136" type="curve" smooth="yes"/>
			<point x="449.776" y="144.136"/>
			<point x="367.248" y="259.816"/>
			<point x="367.248" y="551.328" type="curve" smooth="yes"/>
			<point x="367.248" y="858.32"/>
			<point x="455.928" y="989.64"/>
			<point x="605.712" y="989.64" type="curve" smooth="yes"/>
			<point x="716.184" y="989.64"/>
			<point x="791.688" y="914.296"/>
		</contour>
		<contour>
			<point x="481.24" y="1130.496" type="line"/>
			<point x="1263.816" y="1130.496" type="line"/>
			<point x="1263.816" y="1202.128" type="line"/>
			<point x="481.24" y="1202.128" type="line"/>
		</contour>
	</outline>
</glyph>
<glyph name="Eogonek" format="2">
	<unicode hex="0118"/>
	<advance width="1421.56"/>
	<outline>
		<contour>
			<point x="998.504" y="1055.96" type="line"/>
			<point x="972.264" y="1055.96" type="line"/>
			<point x="849.392" y="796.176" type="line"/>
			<point x="437.808" y="769.448" type="line"/>
			<point x="437.808" y="723.976" type="line"/>
			<point x="849.392" y="700.4" type="line"/>
			<point x="972.264" y="438.04" type="line"/>
			<point x="998.504" y="438.04" type="line"/>
			<point x="956.024" y="746" type="line"/>
		</contour>
		<contour>
			<point x="1320.8" y="1008.44" type="line"/>
			<point x="1238.112" y="1498.84" type="line"/>
			<point x="1224.6" y="1498.84" type="line"/>
			<point x="1083.968" y="1430" type="line"/>
			<point x="360.576" y="1430" type="line"/>
			<point x="360.576" y="1353.04" type="line"/>
			<point x="1214.728" y="1353.04" type="line"/>
			<point x="1054.52" y="1391.032" type="line"/>
			<point x="1289.864" y="998.744" type="line"/>
		</contour>
		<contour>
			<point x="1089.056" y="43.056" type="line"/>
			<point x="1239.24" y="76.96" type="line"/>
			<point x="360.576" y="76.96" type="line"/>
			<point x="360.576" y="0" type="line"/>
			<point x="1120.384" y="0" type="line"/>
			<point x="1253.048" y="-66.296" type="line"/>
			<point x="1270.376" y="-66.296" type="line"/>
			<point x="1386.552" y="436.128" type="line"/>
			<point x="1353.072" y="444.824" type="line"/>
		</contour>
		<contour>
			<point x="59.096" y="0" type="line"/>
			<point x="556.88" y="0" type="line"/>
			<point x="556.88" y="1430" type="line"/>
			<point x="59.096" y="1430" type="line"/>
			<point x="59.096" y="1396.76" type="line"/>
			<point x="222.832" y="1353.64" type="line"/>
			<point x="222.832" y="77.36" type="line"/>
			<point x="59.096" y="32.816" type="line"/>
		</contour>
		<contour>
			<point x="1103.688" y="-45.312" type="curve" smooth="yes"/>
			<point x="1185.608" y="84.904" type="line"/>
			<point x="1157.792" y="84.904" type="line"/>
			<point x="1018.024" y="-78.344" type="line" smooth="yes"/>
			<point x="902.84" y="-210.4"/>
			<point x="883.08" y="-270.096"/>
			<point x="883.08" y="-327.368" type="curve" smooth="yes"/>
			<point x="883.08" y="-410.24"/>
			<point x="944.04" y="-465"/>
			<point x="1041.496" y="-465" type="curve" smooth="yes"/>
			<point x="1112.464" y="-465"/>
			<point x="1160.16" y="-437.304"/>
			<point x="1257.792" y="-324.28" type="curve"/>
			<point x="1245.096" y="-304.464" type="line"/>
			<point x="1188.432" y="-348.584"/>
			<point x="1153.008" y="-353.888"/>
			<point x="1121.704" y="-353.888" type="curve" smooth="yes"/>
			<point x="1058.432" y="-353.888"/>
			<point x="1017.072" y="-319.312"/>
			<point x="1017.496" y="-259.376" type="curve" smooth="yes"/>
			<point x="1017.92" y="-207.832"/>
			<point x="1033.072" y="-155.528"/>
		</contour>
	</outline>
</glyph>
<glyph name="eogonek" format="2">
	<unicode hex="0119"/>
	<advance width="1030.248"/>
	<outline>
		<contour>
			<point x="990.032" y="287.704" type="line"/>
			<point x="968.52" y="305.064" type="line"/>
			<point x="886.256" y="211.52"/>
			<point x="792.792" y="174.728"/>
			<point x="684.064" y="174.728" type="curve" smooth="yes"/>
			<point x="462.6" y="174.728"/>
			<point x="343.864" y="301.128"/>
			<point x="343.864" y="619.168" type="curve" smooth="yes"/>
			<point x="343.864" y="880.376"/>
			<point x="415.848" y="986.096"/>
			<point x="540.96" y="986.096" type="curve" smooth="yes"/>
			<point x="638.488" y="986.096"/>
			<point x="687.072" y="902.512"/>
			<point x="702.56" y="668.008" type="curve"/>
			<point x="833.136" y="714.368" type="line"/>
			<point x="298.096" y="714.368" type="line"/>
			<point x="298.096" y="642.376" type="line"/>
			<point x="970.272" y="642.376" type="line"/>
			<point x="951" y="901.4"/>
			<point x="812.336" y="1048.24"/>
			<point x="573.504" y="1048.24" type="curve" smooth="yes"/>
			<point x="243.368" y="1048.24"/>
			<point x="63.128" y="790.576"/>
			<point x="63.128" y="492.304" type="curve" smooth="yes"/>
			<point x="63.128" y="161.816"/>
			<point x="263.824" y="-24.24"/>
			<point x="548.992" y="-24.24" type="curve" smooth="yes"/>
			<point x="677.832" y="-24.24"/>
			<point x="781.008" y="17.392"/>
			<point x="880.184" y="130.712" type="curve"/>
			<point x="870.216" y="142.376" type="line"/>
			<point x="818.936" y="66.336" type="line" smooth="yes"/>
			<point x="692.912" y="-122.56"/>
			<point x="620.984" y="-215.192"/>
			<point x="620.984" y="-314.336" type="curve" smooth="yes"/>
			<point x="620.984" y="-405.88"/>
			<point x="683.952" y="-465"/>
			<point x="789.856" y="-465" type="curve" smooth="yes"/>
			<point x="866.008" y="-465"/>
			<point x="917.944" y="-437.304"/>
			<point x="1015.576" y="-324.28" type="curve"/>
			<point x="1002.88" y="-304.464" type="line"/>
			<point x="950.456" y="-345.616"/>
			<point x="916.728" y="-353.888"/>
			<point x="879.488" y="-353.888" type="curve" smooth="yes"/>
			<point x="803.608" y="-353.888"/>
			<point x="760.792" y="-312.4"/>
			<point x="760.792" y="-234.856" type="curve" smooth="yes"/>
			<point x="760.792" y="-164.128"/>
			<point x="792.912" y="-62.528"/>
			<point x="893.936" y="117.608" type="curve" smooth="yes"/>
		</contour>
	</outline>
</glyph>
<glyph name="Hbar" format="2">
  <advance width="1739"/>
  <unicode hex="0126"/>
  <outline>
    <contour>
      <point x="558.8800000000001" y="77.36" type="line"/>
      <point x="558.8800000000001" y="1353.6399999999999" type="line"/>
      <point x="722.616" y="1396.76" type="line"/>
      <point x="722.616" y="1430.0" type="line"/>
      <point x="61.096" y="1430.0" type="line"/>
      <point x="61.096" y="1396.76" type="line"/>
      <point x="224.83200000000002" y="1353.6399999999999" type="line"/>
      <point x="224.83200000000002" y="77.36" type="line"/>
      <point x="61.096" y="32.816" type="line"/>
      <point x="61.096" y="0.0" type="line"/>
      <point x="722.616" y="0.0" type="line"/>
      <point x="722.616" y="32.816" type="line"/>
    </contour>
    <contour>
      <point x="1514.24" y="77.36" type="line"/>
      <point x="1514.24" y="1353.6399999999999" type="line"/>
      <point x="1677.976" y="1396.76" type="line"/>
      <point x="1677.976" y="1430.0" type="line"/>
      <point x="1016.456" y="1430.0" type="line"/>
      <point x="1016.456" y="1396.76" type="line"/>
      <point x="1180.192" y="1353.6399999999999" type="line"/>
      <point x="1180.192" y="77.36" type="line"/>
      <point x="1016.456" y="32.816" type="line"/>
      <point x="1016.456" y="0.0" type="line"/>
      <point x="1677.976" y="0.0" type="line"/>
      <point x="1677.976" y="32.816" type="line"/>
    </contour>
    <contour>
      <point x="61.096" y="1050.064" type="line"/>
      <point x="1677.976" y="1050.064" type="line"/>
      <point x="1677.976" y="1126.7839999999999" type="line"/>
      <point x="61.096" y="1126.7839999999999" type="line"/>
    </contour>
    <contour>
      <point x="375.824" y="702.3679999999999" type="line"/>
      <point x="1360.2479999999998" y="702.3679999999999" type="line"/>
      <point x="1360.2479999999998" y="779.3280000000001" type="line"/>
      <point x="375.824" y="779.3280000000001" type="line"/>
    </contour>
  </outline>
</glyph>
<glyph name="Iogonek" format="2">
  <advance width="780"/>
  <unicode hex="012E"/>
  <outline>
    <contour>
      <point x="720.6160000000001" y="32.816" type="line"/>
      <point x="556.88" y="77.36" type="line"/>
      <point x="556.88" y="1353.6399999999999" type="line"/>
      <point x="720.6160000000001" y="1396.76" type="line"/>
      <point x="720.6160000000001" y="1430.0" type="line"/>
      <point x="59.096" y="1430.0" type="line"/>
      <point x="59.096" y="1396.76" type="line"/>
      <point x="222.83200000000002" y="1353.6399999999999" type="line"/>
      <point x="222.83200000000002" y="77.36" type="line"/>
      <point x="59.096" y="32.816" type="line"/>
      <point x="59.096" y="0.0" type="line"/>
      <point x="720.6160000000001" y="0.0" type="line"/>
    </contour>
    <contour>
      <point x="409.608" y="-43.616" type="curve" smooth="yes"/>
      <point x="467.0" y="84.904" type="line"/>
      <point x="439.184" y="84.904" type="line"/>
      <point x="332.67199999999997" y="-74.104" type="line" smooth="yes"/>
      <point x="230.984" y="-222.376"/>
      <point x="207.92800000000003" y="-273.584"/>
      <point x="207.92800000000003" y="-329.064" type="curve" smooth="yes"/>
      <point x="207.92800000000003" y="-403.88"/>
      <point x="256.08" y="-465.0"/>
      <point x="363.712" y="-465.0" type="curve" smooth="yes"/>
      <point x="434.68" y="-465.0"/>
      <point x="486.616" y="-437.30400000000003"/>
      <point x="584.248" y="-324.28000000000003" type="curve"/>
      <point x="571.552" y="-304.46400000000006" type="line"/>
      <point x="514.8879999999999" y="-348.584"/>
      <point x="479.464" y="-353.88800000000003"/>
      <point x="448.15999999999997" y="-353.88800000000003" type="curve" smooth="yes"/>
      <point x="385.736" y="-353.88800000000003"/>
      <point x="346.584" y="-320.16"/>
      <point x="346.584" y="-262.976" type="curve" smooth="yes"/>
      <point x="346.584" y="-219.70399999999998"/>
      <point x="351.856" y="-170.552"/>
    </contour>
  </outline>
</glyph>
<glyph name="iogonek" format="2">
	<unicode hex="012F"/>
	<advance width="613.208"/>
	<outline>
		<contour>
			<point x="303.616" y="1168.08" type="curve" smooth="yes"/>
			<point x="403.728" y="1168.08"/>
			<point x="462.328" y="1244.136"/>
			<point x="462.328" y="1328.704" type="curve" smooth="yes"/>
			<point x="462.328" y="1411"/>
			<point x="403.728" y="1479.056"/>
			<point x="303.616" y="1479.056" type="curve" smooth="yes"/>
			<point x="203.928" y="1479.056"/>
			<point x="141.752" y="1411"/>
			<point x="141.752" y="1328.704" type="curve" smooth="yes"/>
			<point x="141.752" y="1244.136"/>
			<point x="203.928" y="1168.08"/>
		</contour>
		<contour>
			<point x="462.496" y="1054.576" type="line"/>
			<point x="448.744" y="1054.576" type="line"/>
			<point x="40.944" y="943.648" type="line"/>
			<point x="40.944" y="919.288" type="line"/>
			<point x="101.944" y="863.6897907093"/>
			<point x="148.8" y="826.0198131868"/>
			<point x="170.8" y="805.968" type="curve"/>
			<point x="170.8" y="61.664" type="line"/>
			<point x="51.968" y="29.544" type="line"/>
			<point x="51.968" y="0" type="line"/>
			<point x="576.664" y="0" type="line"/>
			<point x="576.664" y="29.544" type="line"/>
			<point x="462.496" y="60.392" type="line"/>
			<point x="462.496" y="849.824" type="line"/>
		</contour>
		<contour>
			<point x="323.064" y="-42.464" type="curve" smooth="yes"/>
			<point x="383.912" y="84.904" type="line"/>
			<point x="356.096" y="84.904" type="line"/>
			<point x="245.552" y="-72.952" type="line" smooth="yes"/>
			<point x="145.592" y="-212.008"/>
			<point x="116.776" y="-268.4"/>
			<point x="116.776" y="-329.064" type="curve" smooth="yes"/>
			<point x="116.776" y="-403.88"/>
			<point x="162.048" y="-465"/>
			<point x="269.68" y="-465" type="curve" smooth="yes"/>
			<point x="340.648" y="-465"/>
			<point x="392.584" y="-437.304"/>
			<point x="490.216" y="-324.28" type="curve"/>
			<point x="477.52" y="-304.464" type="line"/>
			<point x="420.856" y="-348.584"/>
			<point x="385.432" y="-353.888"/>
			<point x="354.128" y="-353.888" type="curve" smooth="yes"/>
			<point x="291.704" y="-353.888"/>
			<point x="255.432" y="-320.16"/>
			<point x="255.432" y="-267.008" type="curve" smooth="yes"/>
			<point x="255.432" y="-219.704"/>
			<point x="261.856" y="-169.4"/>
		</contour>
	</outline>
</glyph>
<glyph name="dotlessi" format="2">
  <advance width="613.2080000000001"/>
  <unicode hex="0131"/>
  <anchor x="300.888" y="1024.0" name="top"/>
  <anchor x="304.352" y="0.0" name="bottom"/>
  <anchor x="478.592" y="0.0" name="right"/>
  <outline>
    <contour>
      <point x="462.496" y="1054.576" type="line"/>
      <point x="448.74399999999997" y="1054.576" type="line"/>
      <point x="40.944" y="943.648" type="line"/>
      <point x="40.944" y="919.288" type="line"/>
      <point x="101.944" y="863.6897907092907"/>
      <point x="147.952" y="826.6633846153846"/>
      <point x="170.79999999999998" y="805.9680000000001" type="curve"/>
      <point x="170.79999999999998" y="61.664" type="line"/>
      <point x="51.967999999999996" y="29.544" type="line"/>
      <point x="51.967999999999996" y="0.0" type="line"/>
      <point x="576.664" y="0.0" type="line"/>
      <point x="576.664" y="29.544" type="line"/>
      <point x="462.496" y="60.392" type="line"/>
      <point x="462.496" y="849.824" type="line"/>
    </contour>
  </outline>
</glyph>
<glyph name="lslash" format="2">
	<unicode hex="0142"/>
	<advance width="662.72"/>
	<outline>
		<contour>
			<point x="283.384" y="660.056" type="line"/>
			<point x="355.528" y="661.728" type="line"/>
			<point x="626.352" y="876.432" type="line"/>
			<point x="626.352" y="976.24" type="line"/>
			<point x="355.528" y="761.536" type="line"/>
			<point x="283.384" y="759.864" type="line"/>
			<point x="43.792" y="569.728" type="line"/>
			<point x="43.792" y="469.92" type="line"/>
		</contour>
		<contour>
			<point x="476.376" y="61.664" type="line"/>
			<point x="476.376" y="1295.584" type="line"/>
			<point x="476.376" y="1488.24" type="line"/>
			<point x="462.624" y="1488.24" type="line"/>
			<point x="22.104" y="1390.04" type="line"/>
			<point x="22.104" y="1365.68" type="line"/>
			<point x="100.104" y="1311.5987948194"/>
			<point x="158.68" y="1271.1230683935"/>
			<point x="184.68" y="1253.096" type="curve"/>
			<point x="184.68" y="61.664" type="line"/>
			<point x="65.848" y="29.544" type="line"/>
			<point x="65.848" y="0" type="line"/>
			<point x="595.208" y="0" type="line"/>
			<point x="595.208" y="29.544" type="line"/>
		</contour>
	</outline>
</glyph>
<glyph name="Eng" format="2">
	<unicode hex="014A"/>
	<advance width="1542.312"/>
	<outline>
		<contour>
			<point x="1298.4" y="455.776" type="line"/>
			<point x="571.936" y="1430" type="line"/>
			<point x="33.224" y="1430" type="line"/>
			<point x="33.224" y="1400.576" type="line"/>
			<point x="231.8" y="1331.28" type="line"/>
			<point x="231.8" y="76.512" type="line"/>
			<point x="63.824" y="32.816" type="line"/>
			<point x="63.824" y="0" type="line"/>
			<point x="481.96" y="0" type="line"/>
			<point x="481.96" y="32.816" type="line"/>
			<point x="300.768" y="76.512" type="line"/>
			<point x="300.768" y="1338.376" type="line"/>
			<point x="270.224" y="1321.576" type="line"/>
			<point x="1284" y="-31.024" type="line"/>
		</contour>
		<contour>
			<point x="1329.632" y="26.456" type="curve" smooth="yes"/>
			<point x="1329.632" y="1353.064" type="line"/>
			<point x="1497.608" y="1396.76" type="line"/>
			<point x="1497.608" y="1430" type="line"/>
			<point x="1079.472" y="1430" type="line"/>
			<point x="1079.472" y="1396.76" type="line"/>
			<point x="1260.664" y="1353.064" type="line"/>
			<point x="1260.664" y="26.84" type="line" smooth="yes"/>
			<point x="1260.664" y="-225.28"/>
			<point x="1168.024" y="-302.672"/>
			<point x="1065.112" y="-302.672" type="curve" smooth="yes"/>
			<point x="975.056" y="-302.672"/>
			<point x="904.36" y="-232.528"/>
			<point x="883.272" y="-232.528" type="curve" smooth="yes"/>
			<point x="837.856" y="-232.528"/>
			<point x="792.92" y="-271.704"/>
			<point x="792.92" y="-335.76" type="curve" smooth="yes"/>
			<point x="792.92" y="-406.392"/>
			<point x="845.096" y="-465"/>
			<point x="960.792" y="-465" type="curve" smooth="yes"/>
			<point x="1165.24" y="-465"/>
			<point x="1329.632" y="-320.152"/>
		</contour>
	</outline>
</glyph>
<glyph name="OE" format="2">
	<unicode hex="0152"/>
	<advance width="2299.936"/>
	<outline>
		<contour>
			<point x="1876.88" y="1055.96" type="line"/>
			<point x="1850.64" y="1055.96" type="line"/>
			<point x="1727.768" y="796.176" type="line"/>
			<point x="1316.184" y="769.448" type="line"/>
			<point x="1316.184" y="723.976" type="line"/>
			<point x="1727.768" y="700.4" type="line"/>
			<point x="1850.64" y="438.04" type="line"/>
			<point x="1876.88" y="438.04" type="line"/>
			<point x="1834.4" y="746" type="line"/>
		</contour>
		<contour>
			<point x="1101.208" y="1430" type="line"/>
			<point x="1101.208" y="0" type="line"/>
			<point x="1435.256" y="0" type="line"/>
			<point x="1435.256" y="1430" type="line"/>
		</contour>
		<contour>
			<point x="919.872" y="0" type="curve" smooth="yes"/>
			<point x="1998.76" y="0" type="line"/>
			<point x="2131.424" y="-66.296" type="line"/>
			<point x="2148.752" y="-66.296" type="line"/>
			<point x="2264.928" y="436.128" type="line"/>
			<point x="2231.448" y="444.824" type="line"/>
			<point x="1967.432" y="43.056" type="line"/>
			<point x="2117.616" y="76.96" type="line"/>
			<point x="978.144" y="76.96" type="line" smooth="yes"/>
			<point x="626.008" y="76.96"/>
			<point x="422.904" y="279.936"/>
			<point x="422.904" y="703.848" type="curve" smooth="yes"/>
			<point x="422.904" y="1169.976"/>
			<point x="628.16" y="1353.04"/>
			<point x="945.96" y="1353.04" type="curve" smooth="yes"/>
			<point x="2093.104" y="1353.04" type="line"/>
			<point x="1932.896" y="1391.032" type="line"/>
			<point x="2168.24" y="998.744" type="line"/>
			<point x="2199.176" y="1008.44" type="line"/>
			<point x="2116.488" y="1498.84" type="line"/>
			<point x="2102.976" y="1498.84" type="line"/>
			<point x="1962.344" y="1430" type="line"/>
			<point x="905.872" y="1430" type="line" smooth="yes"/>
			<point x="450.872" y="1430"/>
			<point x="81.432" y="1177"/>
			<point x="81.432" y="682" type="curve" smooth="yes"/>
			<point x="81.432" y="248"/>
			<point x="402.448" y="0"/>
		</contour>
	</outline>
</glyph>
<glyph name="oe" format="2">
	<unicode hex="0153"/>
	<advance width="1790.784"/>
	<outline>
		<contour>
			<point x="584.656" y="34.6" type="curve" smooth="yes"/>
			<point x="431.968" y="34.6"/>
			<point x="369.28" y="202.6"/>
			<point x="369.28" y="529.96" type="curve" smooth="yes"/>
			<point x="369.28" y="844.872"/>
			<point x="435.664" y="988.976"/>
			<point x="585.568" y="988.976" type="curve" smooth="yes"/>
			<point x="738.256" y="988.976"/>
			<point x="800.944" y="821.4"/>
			<point x="800.944" y="494.04" type="curve" smooth="yes"/>
			<point x="800.944" y="178.704"/>
			<point x="734.56" y="34.6"/>
		</contour>
		<contour>
			<point x="1012.632" y="221.472" type="curve"/>
			<point x="897.768" y="221.472" type="line"/>
			<point x="977.4" y="59.432"/>
			<point x="1127.04" y="-24.24"/>
			<point x="1310.952" y="-24.24" type="curve" smooth="yes"/>
			<point x="1488.064" y="-24.24"/>
			<point x="1616.968" y="54.36"/>
			<point x="1751.992" y="287.704" type="curve"/>
			<point x="1730.48" y="305.064" type="line"/>
			<point x="1648.216" y="211.52"/>
			<point x="1554.752" y="174.728"/>
			<point x="1446.024" y="174.728" type="curve" smooth="yes"/>
			<point x="1224.56" y="174.728"/>
			<point x="1105.824" y="301.128"/>
			<point x="1105.824" y="619.168" type="curve" smooth="yes"/>
			<point x="1105.824" y="880.376"/>
			<point x="1177.808" y="986.096"/>
			<point x="1302.92" y="986.096" type="curve" smooth="yes"/>
			<point x="1400.448" y="986.096"/>
			<point x="1449.032" y="902.512"/>
			<point x="1464.52" y="668.008" type="curve"/>
			<point x="1595.096" y="714.368" type="line"/>
			<point x="1060.056" y="714.368" type="line"/>
			<point x="1060.056" y="642.376" type="line"/>
			<point x="1732.232" y="642.376" type="line"/>
			<point x="1712.96" y="901.4"/>
			<point x="1574.296" y="1048.24"/>
			<point x="1335.464" y="1048.24" type="curve" smooth="yes"/>
			<point x="1134.92" y="1048.24"/>
			<point x="985.56" y="943.208"/>
			<point x="903.2" y="787.48" type="curve"/>
			<point x="1027.744" y="787.48" type="line"/>
			<point x="941.08" y="948.36"/>
			<point x="788.016" y="1048.24"/>
			<point x="594.352" y="1048.24" type="curve" smooth="yes"/>
			<point x="292.184" y="1048.24"/>
			<point x="61.552" y="827.544"/>
			<point x="61.552" y="510.032" type="curve" smooth="yes"/>
			<point x="61.552" y="195.488"/>
			<point x="278.432" y="-24.24"/>
			<point x="575.872" y="-24.24" type="curve" smooth="yes"/>
			<point x="758.784" y="-24.24"/>
			<point x="919.424" y="66.616"/>
		</contour>
	</outline>
	<anchor name="top" x="939.68" y="1024"/>
	<anchor name="bottom" x="939.68" y="0"/>
</glyph>
